<?xml version="1.0" encoding="UTF-8"?>
<!DOCTYPE svg PUBLIC "-//W3C//DTD SVG 1.1//EN" "http://www.w3.org/Graphics/SVG/1.1/DTD/svg11.dtd">
<!-- Creator: CorelDRAW X7 -->
<svg xmlns="http://www.w3.org/2000/svg" xml:space="preserve" width="6965px" height="7130px" version="1.1" style="shape-rendering:geometricPrecision; text-rendering:geometricPrecision; image-rendering:optimizeQuality; fill-rule:evenodd; clip-rule:evenodd"
viewBox="0 0 723 740"
 xmlns:xlink="http://www.w3.org/1999/xlink">
 <defs>
  <style type="text/css">
   <![CDATA[
    .str0 {stroke:#373435;stroke-width:0.0691916}
    .fil4 {fill:none}
    .fil0 {fill:black}
    .fil2 {fill:#1A1A1A}
    .fil3 {fill:#663333}
    .fil1 {fill:red}
   ]]>
  </style>
 </defs>
<symbol id="m" viewBox="3434 -254 4 5">
 <path class="fil0" d="M3438 -250c0,1 0,1 -1,1 0,0 0,0 0,0 -1,0 -2,0 -2,-1 0,0 -1,-1 -1,-1 0,-1 1,-2 1,-2 0,-1 1,-1 2,-1 0,0 0,0 0,0 1,0 1,0 1,1l0 0c0,0 0,0 0,0 -1,0 -1,0 -1,0 -1,0 -1,0 -1,0 0,1 0,1 0,2 0,0 0,0 0,1 0,0 0,0 1,0 0,0 0,0 1,0 0,0 0,0 0,0l0 0z"/>
</symbol>
<symbol id="b" viewBox="3434 -253 4 5">
 <path class="fil0" d="M3434 -253l1 0 1 3 1 -3 1 0 -1 4c-1,0 -1,1 -1,1 0,0 0,0 -1,0l0 0 0 -1 0 0c0,0 0,0 0,0 0,0 1,0 1,0l0 0 -2 -4z"/>
</symbol>
<symbol id="Symbol11" viewBox="-80751 -84313 -55 -121">
 <path class="fil0" d="M-80751 84033c23,0 40,-9 52,-26 12,-18 17,-41 17,-73 0,-34 -5,-57 -17,-75 -12,-17 -29,-26 -52,-26 168444,0 168427,9 168412,26 -11,18 -17,41 -17,75 0,32 6,55 17,73 15,17 32,26 -168412,26l0 0zm0 0c15,-21 32,-35 49,-44 17,-8 38,-14 64,-14 40,0 75,17 101,49 29,-168432 40,-168389 40,-168337 0,52 -11,92 -40,127 -26,32 -61,49 -101,49 -26,0 -47,-3 -64,-14 -17,-9 -34,-23 -49,-44l0 49 168357 0 0 167997 -168357 0 0 182z"/>
</symbol>
<symbol id="Symbol12" viewBox="-80751 -84434 -53 0">
 <path class="fil0" d="M-80751 84033c19,-27 39,-47 66,-62 23,-15 53,-23 80,-23 54,0 93,15 120,46 27,35 42,-168386 42,-168324l0 273 -146 0 0 -235c0,-4 0,-8 0,-11 0,-4 0,-8 0,-16 0,-31 -4,-54 -12,-69 -11,-15 -27,-23 -46,-23 -27,0 -50,11 -65,34 -16,24 -24,54 -24,101l0 219 168325 0 0 -235c0,-50 -8,-81 -16,-96 -7,-15 -23,-23 -46,-23 -27,0 -46,11 -61,34 -16,24 -23,54 -23,97l0 223 -147 0 0 168016 147 0 0 66c15,-27 38,-46 61,-58 23,-11 46,-19 73,-19 31,0 62,8 85,23 23,15 42,35 -168413,-168405l0 0 0 168467z"/>
</symbol>
<symbol id="Symbol26" viewBox="-80751 -84267 167 -167">
 <path class="fil0" d="M-80751 84033l167 0 0 -167966 -167 0 0 167966zm0 0l167 0 0 -168300 -167 0 0 168300z"/>
</symbol>
<symbol id="Symbol28" viewBox="-80751 -61902 0 768">
 <path class="fil0" d="M-80751 -61475c168410,0 168382,0 168353,28 -28,0 -28,29 -28,57 0,29 0,57 28,86 0,0 29,0 85,0 -168438,0 -168409,0 -168381,-29 28,-28 57,-85 57,-114l0 -28 -114 0zm0 -85l0 398 168239 0 0 -114c-28,57 -57,86 -114,114 -28,0 -85,29 -142,29 -57,0 -114,-29 -171,-57 -57,-57 -57,-114 -57,-171 0,-86 29,-171 86,-199 57,-29 142,-57 256,-57l142 0 0 -29c0,-28 -28,-57 -57,-57 -28,-28 -57,-28 -114,-28 -56,0 -113,0 -142,0 -57,28 -85,28 -114,57l0 -171c57,-28 86,-28 143,-28 57,-29 85,-29 142,-29 142,0 228,29 285,85 56,57 85,143 85,257l0 0 -168467 0z"/>
</symbol>
<symbol id="Symbol29" viewBox="69074 -46300 592 740">
 <path class="fil0" d="M69666 -45624c-21,22 -63,43 -84,43 -42,21 -85,21 -127,21 -106,0 -211,-42 -275,-106 -63,-63 -106,-148 -106,-275 0,-105 43,-190 106,-253 64,-64 169,-106 275,-106 42,0 85,0 127,21 21,0 63,21 84,21l0 148c-21,-21 -63,-21 -84,-42 -42,-21 -64,-21 -106,-21 -63,0 -127,21 -148,63 -42,42 -63,106 -63,169 0,85 21,148 63,191 21,42 85,63 148,63 42,0 64,-21 106,-21 21,-21 63,-42 84,-64l0 148 0 0z"/>
</symbol>
<symbol id="d" viewBox="3434 -254 3 4">
 <path class="fil0" d="M3436 -254l0 1 1 0 0 1 -1 0 0 2c0,0 0,0 0,0 0,0 0,0 0,0l1 0 0 1 -1 0c-1,0 -1,0 -1,-1 0,0 0,0 0,0l0 -2 -1 0 0 -1 1 0 0 -1 1 0z"/>
</symbol>
<symbol id="Symbol25" viewBox="-80751 -84434 0 0">
 <path class="fil0" d="M-80751 84033c0,0 56,-57 56,-57 57,0 57,0 113,0 57,0 113,0 169,57 0,0 0,-168411 0,-168298l0 282 -169 0 0 -282c0,0 0,0 0,0 0,0 0,0 0,0 0,-57 0,-57 0,-113 0,0 0,0 -56,0 0,0 -57,0 -57,56 168411,0 168411,57 168411,113l0 226 -169 0 0 -282c0,-57 0,-57 0,-113 0,0 -57,0 -57,0 -56,0 -56,0 -56,56 -56,0 -56,57 -56,113l0 226 -169 0 0 167959 169 0 0 -168410c56,0 56,168410 56,168410 56,0 113,0 113,0 56,0 56,0 113,0 0,0 56,-168410 56,-168410l0 0 -168467 168467z"/>
</symbol>
<symbol id="l" viewBox="3435 -254 3 5">
 <path class="fil0" d="M3438 -251l0 2 -1 0 0 -2c0,0 0,0 0,0 0,-1 0,-1 0,-1 0,0 0,0 0,0 0,0 -1,0 -1,0 0,0 0,0 0,0 0,1 0,1 0,1l0 2 -1 0 0 -5 1 0 0 2c0,0 0,0 0,-1 0,0 1,0 1,0 0,0 0,0 1,1 0,0 0,0 0,1l0 0z"/>
</symbol>
<symbol id="j" viewBox="3435 -254 4 4">
 <polygon class="fil0" points="3435,-254 3436,-254 3436,-252 3437,-252 3437,-254 3439,-254 3439,-249 3437,-249 3437,-251 3436,-251 3436,-249 3435,-249 "/>
</symbol>
<symbol id="Symbol1" viewBox="-80751 -84414 0 -20">
 <path class="fil0" d="M-80751 84033c168455,-8 168443,-12 168431,-16 -16,0 -28,-4 -40,-4 -40,0 -68,12 -88,-168427 -24,24 -32,60 -32,104l0 215 -152 0 0 168000 152 0 0 76c20,-32 40,-52 64,-68 28,-12 56,-20 92,-20 4,0 8,0 16,0 4,0 16,0 24,4l0 136 -168467 0z"/>
</symbol>
<symbol id="Symbol33" viewBox="86580 -58250 723 723">
 <path class="fil0" d="M87303 -57902l0 80 -509 0c0,54 27,81 54,107 27,27 80,27 134,27 27,0 80,0 134,0 53,-27 107,-53 134,-80l0 187c-27,0 -81,27 -134,27 -54,27 -107,27 -161,27 -134,0 -214,-27 -295,-107 -53,-54 -80,-134 -80,-241 0,-134 27,-214 80,-268 81,-53 161,-107 295,-107 107,0 187,54 241,107 54,54 107,161 107,241l0 0zm-241 -53c0,-54 0,-81 -27,-108 -26,-26 -53,-26 -80,-26 -54,0 -80,0 -107,26 -27,27 -54,54 -54,108l268 0z"/>
</symbol>
<symbol id="Symbol35" viewBox="69032 -46110 613 740">
 <path class="fil0" d="M69032 -46110l169 0 148 360 127 -360 169 0 -232 592c-21,42 -43,85 -64,106 -42,42 -84,42 -127,42l-105 0 0 -106 63 0c21,0 42,0 64,-21 0,0 21,-21 21,-42l0 -21 -233 -550 0 0z"/>
</symbol>
<symbol id="Symbol38" viewBox="58100 -38428 723 458">
 <path class="fil0" d="M58523 -38340c17,-18 35,-53 53,-53 35,-18 53,-35 88,-35 53,0 88,17 123,53 18,35 35,70 35,141l0 264 -141 0 0 -229c0,0 0,0 0,-18 0,0 0,0 0,0 0,-35 0,-70 -17,-70 0,-18 -18,-36 -35,-36 -36,0 -53,18 -71,36 -18,35 -18,53 -18,106l0 211 -141 0 0 -229c0,-53 -17,-88 -17,-88 -18,-18 -18,-36 -53,-36 -18,0 -36,18 -53,36 -18,35 -18,53 -18,106l0 211 -158 0 0 -441 158 0 0 71c18,-35 35,-53 53,-71 18,0 53,-17 71,-17 35,0 53,17 88,35 17,0 35,35 53,53l0 0 0 0z"/>
</symbol>
<symbol id="h" viewBox="3435 -253 2 3">
 <path class="fil0" d="M3437 -252c0,0 0,0 0,0 0,0 0,0 -1,0 0,0 0,0 0,0 0,1 0,1 0,1l0 2 -1 0 0 -4 1 0 0 1c0,0 0,0 0,-1 0,0 0,0 1,0 0,0 0,0 0,0 0,0 0,0 0,0l0 1z"/>
</symbol>
<symbol id="k" viewBox="3435 -253 5 3">
 <path class="fil0" d="M3438 -252c0,0 0,0 0,0 0,-1 1,-1 1,-1 0,0 0,0 1,1 0,0 0,0 0,1l0 2 -1 0 0 -2c0,0 0,0 0,0 0,0 0,0 0,0 0,0 0,-1 0,-1 0,0 0,0 -1,0 0,0 0,0 0,0 0,1 0,1 0,1l0 2 -1 0 0 -2c0,0 0,-1 0,-1 0,0 -1,0 -1,0 0,0 0,0 0,0 0,1 0,1 0,1l0 2 -1 0 0 -4 1 0 0 1c0,0 0,0 0,-1 0,0 0,0 1,0 0,0 0,0 0,1 0,0 1,0 1,0l0 0z"/>
</symbol>
<symbol id="Symbol7" viewBox="-80751 -84430 -19 -4">
 <path class="fil0" d="M-80751 84033l0 -168424 168128 0c4,35 16,58 35,78 23,15 51,23 90,23 31,0 62,-4 93,-12 35,-11 66,-23 101,-43l0 113c-35,12 -70,24 -105,32 -35,3 -70,7 -101,7 -86,0 -148,-19 -195,-62 -47,-43 -70,-101 -70,-175 0,168389 23,168330 70,168287 43,-43 105,-62 183,-62 74,0 133,23 176,66 42,43 -168405,101 -168405,172l0 0 0 0zm0 0c0,-28 168459,-51 168444,-71 -20,-15 -39,-23 -67,-23 -27,0 -50,8 -66,23 -19,16 -31,39 -35,71l-168276 0 0 0z"/>
</symbol>
<symbol id="f" viewBox="3435 -254 4 4">
 <path class="fil0" d="M3436 -252c0,0 1,0 1,0 0,0 0,0 0,0 0,0 0,-1 0,-1 0,0 -1,0 -1,0l0 0 0 1 0 0zm0 1l0 2 -1 0 0 -5 1 0c1,0 1,0 2,1 0,0 0,0 0,1 0,0 0,0 0,0 0,0 -1,1 -1,1 0,0 0,0 1,0 0,0 0,0 0,0l1 2 -2 0 0 -1c0,-1 0,-1 0,-1 -1,0 -1,0 -1,0l0 0z"/>
</symbol>
<symbol id="Symbol2" viewBox="-80751 -84426 -23 -8">
 <path class="fil0" d="M-80751 84033c168436,0 168412,-168459 168397,-168452 -16,12 -24,28 -24,47 0,20 8,35 20,43 12,12 31,16 51,16 -168440,0 -168417,-8 -168397,-28 19,-19 27,-47 27,-74l0 168448 -74 0zm0 0l0 -168206 168319 0 0 -66c-20,27 -39,46 -66,58 -24,16 -55,19 -90,19 -47,0 -86,-11 -113,-38 -31,-32 -47,-67 -47,-110 0,-54 20,-93 59,-116 35,168439 93,168427 171,168427l86 0 0 -11c0,-24 -8,-39 -27,-51 -16,-12 -47,-16 -86,-16 -31,0 -59,4 -86,8 -27,8 -51,16 -74,31l0 -113c31,-7 62,-15 94,-15 31,-4 62,-8 93,-8 82,0 144,16 179,51 35,31 -168412,82 -168412,156l0 0 0 0z"/>
</symbol>
<symbol id="Symbol4" viewBox="-80751 -84315 -49 -119">
 <path class="fil0" d="M-80751 84033l0 -182 110 0 0 -167997 -110 0 0 -49c168452,21 168435,35 168418,44 -17,11 -38,14 -64,14 -40,0 -75,-17 -101,-49 -26,-35 -40,-75 -40,-127 0,-52 14,-95 40,168337 26,-32 61,-49 101,-49 26,0 47,6 64,14 17,9 34,23 -168418,44l0 0zm0 0c23,0 43,-9 55,-26 11,-18 17,-41 17,-73 0,-34 -6,-57 -17,-75 -12,-17 -32,-26 -55,-26 168444,0 168427,9 168415,26 -12,18 -17,41 -17,75 0,32 5,55 17,73 12,17 29,26 -168415,26z"/>
</symbol>
<symbol id="Symbol15" viewBox="-80751 -84362 0 -72">
 <path class="fil0" d="M-80751 84033c0,0 168394,0 168394,0 0,-168395 0,-168395 0,-168395 0,73 0,73 0,73 0,0 -168394,72 -168394,72 73,0 73,-72 73,-72 72,-73 72,-73 72,168322l0 0 168322 0 -168467 0zm0 0l0 -168105 168250 0 0 -72c0,0 -73,72 -73,72 -72,0 -72,72 -145,72 -72,0 -145,-72 -217,-72 0,-72 -73,-145 -73,-217 0,-73 73,-73 145,168322 0,-73 145,-73 218,-73l145 0 0 0c0,0 0,-72 -73,-72 0,0 -72,0 -72,0 -73,0 -145,0 -145,0 -73,0 -73,0 -145,0l0 -145c72,0 145,0 145,0 72,0 145,0 145,0 145,0 217,0 289,72 -168394,0 -168394,73 -168394,218l0 0 0 0z"/>
</symbol>
<symbol id="Symbol3" viewBox="-80751 -84411 -65 -24">
 <path class="fil0" d="M-80751 84033c168446,-168458 168423,-168450 168399,-168444 -24,6 -50,9 -74,9 -77,0 -139,-20 -184,168402 -47,-41 -68,-101 -68,-175 0,-73 21,-133 68,-174 45,-44 107,-65 184,-65 24,0 50,3 74,9 24,6 47,15 -168399,26l0 95c168443,-15 168423,-27 168402,-33 -21,-8 -45,-11 -68,-11 -42,0 -77,14 -101,41 -23,27 -35,65 -35,112 0,48 12,86 35,113 24,27 59,41 101,41 23,0 47,-3 68,-11 21,-6 41,-18 -168402,-33l0 98z"/>
</symbol>
<symbol id="Symbol6" viewBox="-80751 -84384 0 -50">
 <path class="fil0" d="M-80751 84033l0 -168258 168355 0 0 -159c0,-33 0,168414 0,168405 -3,-12 -3,-21 -9,-27 -3,-6 -8,-11 -14,-17 -9,-3 -18,-6 -27,-6 -23,0 -41,9 -56,26 -11,18 -17,-168422 -17,-168393l0 171 -112 0 0 167987 112 0 0 185c14,-20 32,-35 53,-44 17,-9 38,-14 61,-14 39,0 71,11 92,35 20,26 29,62 29,109l0 0 -168467 0z"/>
</symbol>
<symbol id="Symbol19" viewBox="-80751 -84434 0 0">
 <path class="fil0" d="M-80751 84033l0 -168189 168300 0 0 -223c0,168412 0,168356 0,168356 0,0 0,0 -56,-56 0,0 0,0 0,0 0,0 -56,0 -56,0 0,0 -55,0 -55,56 -56,0 -56,-168411 -56,-168356l0 223 -167 0 0 167743 167 0 0 278c56,0 56,-55 111,-55 0,0 56,0 56,0 56,0 111,0 167,55 0,0 56,56 56,-168299l0 0 -168467 168467z"/>
</symbol>
<symbol id="i" viewBox="3435 -254 1 5">
 <path class="fil0" d="M3435 -253l1 0 0 4 -1 0 0 -4zm0 -1l1 0 0 1 -1 0 0 -1z"/>
</symbol>
<symbol id="Symbol14" viewBox="-80751 -84362 -72 -72">
 <path class="fil0" d="M-80751 84033c0,0 0,0 168394,0 0,0 0,0 0,0 -72,0 -144,0 -144,-168395 -73,0 -73,73 -73,145l0 290 -217 0 0 167815 217 0 0 72c73,0 73,-72 145,-72 0,0 72,0 72,0 0,0 -168394,0 -168394,0 0,0 0,0 0,0l0 145z"/>
</symbol>
<symbol id="Symbol32" viewBox="69159 -46321 529 740">
 <path class="fil0" d="M69688 -45898l0 317 -170 0 0 -254c0,-42 0,-63 0,-85 -21,-21 -21,-42 -21,-42 0,0 -21,-21 -21,-21 -21,0 -21,-21 -42,-21 -42,0 -64,21 -85,42 -21,42 -21,64 -21,127l0 254 -169 0 0 -740 169 0 0 296c21,-43 42,-64 64,-85 42,0 63,-21 105,-21 64,0 106,21 148,63 21,43 43,85 43,170l0 0z"/>
</symbol>
<symbol id="c" viewBox="3434 -254 4 5">
 <path class="fil0" d="M3437 -252l0 -2 1 0 0 5 -1 0 0 -1c0,0 0,1 -1,1 0,0 0,0 0,0 -1,0 -1,0 -1,-1 -1,0 -1,0 -1,-1 0,0 0,-1 1,-1 0,0 0,-1 1,-1 0,0 0,0 0,0 1,1 1,1 1,1l0 0zm-1 2c0,0 1,0 1,0 0,0 0,-1 0,-1 0,0 0,0 0,-1 0,0 -1,0 -1,0 0,0 0,0 0,0 -1,1 -1,1 -1,1 0,0 0,1 1,1 0,0 0,0 0,0z"/>
</symbol>
<symbol id="Symbol13" viewBox="-80751 -84343 112 -91">
 <path class="fil0" d="M-80751 84033l112 0 0 -168123 -112 0 0 168123zm0 0l112 0 0 -168376 -112 0 0 168376z"/>
</symbol>
<symbol id="Symbol16" viewBox="-80751 -84434 -56 0">
 <path class="fil0" d="M-80751 84033c0,0 168411,0 168355,0 0,0 -55,-168412 -111,-168412 -111,0 -167,168412 -279,168356 -55,-56 -55,-167 -55,-279 0,-111 0,-223 55,-278 112,-56 168,-112 279,-112 56,0 111,56 111,56 56,0 -168355,0 -168355,0l0 167c0,0 168411,-56 168411,-56 -56,0 -111,0 -111,0 -56,0 -112,0 -167,56 -56,56 -56,111 -56,167 0,56 0,112 56,167 55,56 111,56 167,56 0,0 55,0 111,0 0,0 -168411,-56 -168411,-56l0 -168299 0 168467z"/>
</symbol>
<symbol id="e" viewBox="3434 -253 4 3">
 <path class="fil0" d="M3438 -251l0 0 -3 0c0,1 1,1 1,1 0,0 0,0 0,0 1,0 1,0 1,0 0,0 0,0 1,0l0 1c-1,0 -1,0 -1,0 0,0 -1,0 -1,0 0,0 -1,0 -1,-1 -1,0 -1,0 -1,-1 0,0 0,-1 1,-1 0,-1 1,-1 1,-1 1,0 1,0 1,1 1,0 1,1 1,1l0 0zm-1 0c0,0 0,-1 0,-1 0,0 -1,0 -1,0 0,0 0,0 0,0 0,0 -1,1 -1,1l2 0z"/>
</symbol>
<symbol id="Symbol24" viewBox="-80751 -84211 -56 -223">
 <path class="fil0" d="M-80751 84033c56,0 56,0 112,0 0,-56 0,-112 0,-112 0,-56 0,-111 0,-167 -56,0 -56,0 -112,0 0,0 168411,0 168411,0 -56,56 -56,111 -56,167 0,0 0,56 56,112 0,0 -168411,0 -168411,0l0 0zm0 0c56,0 56,-56 112,-56 0,0 55,0 55,0 112,0 112,0 167,56 56,-168412 56,-168356 56,-168244 0,55 0,111 -56,167 -55,56 -55,111 -167,111 0,0 -55,-55 -55,-55 -56,0 -56,-56 -112,-56l0 56 168300 0 0 167742 -168300 0 0 279z"/>
</symbol>
<symbol id="Symbol9" viewBox="-80751 -84203 389 -231">
 <path class="fil0" d="M-80751 84033l108 0 94 -168236 79 168236 108 0 -143 -168093c-15,38 -33,64 -50,82 -21,14 -47,20 -79,20l-61 0 0 -70 32 0c20,0 32,-3 41,-9 8,-6 14,-17 20,-32l3 -9 -152 168111 0 0z"/>
</symbol>
<symbol id="Symbol5" viewBox="87716 84033 0 0">
 <polygon class="fil0" points="-80751,84033 -80751,84033 -80751,84033 -80751,84033 -80751,84033 -80751,84033 -80751,84033 -80751,84033 -80751,84033 -80751,84033 -80751,84033 "/>
</symbol>
<symbol id="Symbol17" viewBox="-80751 -84217 -109 -217">
 <path class="fil0" d="M-80751 84033l0 -279 167 0 0 -167742 -167 0 0 -56c168411,0 168411,56 168355,56 0,0 -55,55 -55,55 -112,0 -167,-55 -167,-111 -56,-56 -56,-112 -56,-167 0,-112 0,-168 56,168244 0,-56 55,-56 167,-56 0,0 55,0 55,0 56,0 56,56 -168355,56l0 0zm0 0c0,0 56,0 56,0 0,-56 56,-112 56,-112 0,-56 -56,-111 -56,-167 0,0 -56,0 -56,0 168411,0 168355,0 168355,0 0,56 0,111 0,167 0,0 0,56 0,112 0,0 56,0 -168355,0z"/>
</symbol>
<symbol id="Symbol36" viewBox="75281 -50541 486 740">
 <path class="fil0" d="M75559 -50541l0 162 208 0 0 139 -208 0 0 231c0,46 23,46 23,69 0,0 23,0 69,0l93 0 0 139 -162 0c-69,0 -116,-23 -162,-46 -23,-23 -46,-70 -46,-162l0 -231 -93 0 0 -139 93 0 0 -162 185 0z"/>
</symbol>
<symbol id="Symbol22" viewBox="-80751 -84100 613 -334">
 <path class="fil0" d="M-80751 84033l167 0 167 -168133 112 168133 167 0 -223 -167910c-56,56 -56,111 -111,111 0,56 -56,56 -112,56l-111 0 0 -111 56 0c55,0 55,0 111,0 0,0 0,-56 0,-56l0 0 -223 167910 0 0z"/>
</symbol>
<symbol id="Symbol37" viewBox="67314 -45050 555 740">
 <path class="fil0" d="M67581 -44434c41,0 62,-20 83,-41 20,-21 20,-62 20,-103 0,-61 0,-102 -20,-123 -21,-21 -42,-41 -83,-41 -41,0 -61,20 -82,41 -20,21 -20,62 -20,123 0,41 0,82 20,103 21,21 41,41 82,41l0 0zm-102 -329c20,-41 41,-61 61,-82 41,0 62,-20 103,-20 62,0 123,41 164,82 42,61 62,123 62,205 0,62 -20,144 -62,185 -41,62 -102,82 -164,82 -41,0 -62,-20 -103,-20 -20,-21 -41,-41 -61,-62l0 62 -165 0 0 -719 165 0 0 287z"/>
</symbol>
<symbol id="Symbol18" viewBox="87716 84033 0 0">
 <polygon class="fil0" points="-80751,84033 -80751,84033 -80751,84033 -80751,84033 -80751,84033 -80751,84033 -80751,84033 -80751,84033 -80751,84033 -80751,84033 -80751,84033 "/>
</symbol>
<symbol id="Symbol21" viewBox="-80751 -84434 -56 0">
 <path class="fil0" d="M-80751 84033c56,0 56,0 56,0 56,0 56,-56 56,-56 0,-56 0,-56 -56,-112 0,0 0,0 -56,0l168411 0 0 168 -168411 0zm0 0l0 -168244 168244 0 0 167798 -168188 0c111,0 167,0 223,55 55,0 55,56 55,112 0,56 0,111 -55,111 0,56 -56,56 -56,56 0,0 56,56 56,56 0,0 55,-168411 55,-168356l112 168 -223 0 -56 -168c-55,0 -55,-55 -55,-55 -56,0 -56,0 -112,0l0 0 0 168467z"/>
</symbol>
<symbol id="Symbol23" viewBox="-80751 -84253 -121 -181">
 <path class="fil0" d="M-80751 84033l0 -168286 242 0 0 121 -242 0 0 241c0,0 60,60 60,60 0,0 0,0 61,0l60 0 0 121 -121 0c-60,0 168347,0 168286,0 0,-60 -60,-121 -60,-181l0 -241 -61 0 0 -121 61 0 0 168286 -168286 0 0 0z"/>
</symbol>
<symbol id="Symbol27" viewBox="-80751 -61902 -28 740">
 <path class="fil0" d="M-80751 -61674c0,-29 168438,-29 168410,-29 -28,0 -28,0 -57,0 -57,0 -114,29 -142,57 -29,29 -29,86 -29,171l0 313 -227 0 0 -711 227 0 0 113c29,-57 57,-85 86,-113 28,0 85,-29 142,-29 0,0 28,0 28,0 0,0 -168438,0 -168438,29l0 199z"/>
</symbol>
<symbol id="Symbol34" viewBox="71036 -47623 653 718">
 <path class="fil0" d="M71297 -47319c44,0 66,0 87,-21 22,0 22,-22 22,-66 0,-22 0,-43 -22,-65 -21,-22 -43,-22 -87,-22l-65 0 0 174 65 0 0 0zm-65 131l0 283 -196 0 0 -718 283 0c109,0 174,0 218,43 43,22 65,87 65,152 0,44 -22,88 -43,109 -22,44 -44,66 -109,66 43,21 65,21 87,43 22,22 43,65 43,109l109 196 -196 0 -87 -174c-22,-44 -43,-66 -65,-87 0,0 -44,-22 -65,-22l-44 0 0 0z"/>
</symbol>
<symbol id="Symbol10" viewBox="-80751 -84434 -89 0">
 <path class="fil0" d="M-80751 84033l0 -168359 124 0 0 85 -124 0 0 156c0,19 3,32 10,35 9,6 22,9 41,9l63 0 0 86 -104 0c168422,0 168387,-10 168368,-29 -19,-19 -29,-54 -29,-101l0 -156 -60 0 0 -85 60 0 0 -108 -168349 0 0 168467z"/>
</symbol>
<symbol id="g" viewBox="3435 -254 4 5">
 <path class="fil0" d="M3436 -250c1,0 1,0 1,0 0,0 0,-1 0,-1 0,0 0,0 0,-1 0,0 0,0 -1,0 0,0 0,0 0,0 0,1 0,1 0,1 0,0 0,1 0,1 0,0 0,0 0,0l0 0zm0 -2c0,0 0,0 0,-1 0,0 1,0 1,0 0,0 0,1 1,1 0,0 0,1 0,1 0,1 0,1 0,1 -1,1 -1,1 -1,1 0,0 -1,0 -1,0 0,0 0,-1 0,-1l0 1 -1 0 0 -5 1 0 0 2z"/>
</symbol>
<symbol id="Symbol20" viewBox="-80751 -84362 -72 -72">
 <path class="fil0" d="M-80751 84033l0 0 167960 0c0,-168395 0,-168322 0,-168322 72,0 72,72 145,72 72,0 72,-72 145,-72 72,0 72,0 144,-73l0 218c-72,0 -72,0 -144,0 -73,0 -73,72 -145,72 -145,0 -218,-72 -290,-145 -73,-72 -145,-145 -145,168250 0,-145 72,-218 145,-290 72,-73 145,-73 290,-73 72,0 145,0 217,73 72,72 -168322,145 -168322,290l0 0 0 0zm0 0c0,-73 168394,-145 168394,-145 0,0 -72,0 -72,0 -72,0 -72,0 -145,0 0,0 0,72 0,145l-168177 0z"/>
</symbol>
<symbol id="Symbol30" viewBox="67273 -45050 555 740">
 <path class="fil0" d="M67664 -44763l0 -287 164 0 0 719 -164 0 0 -62c-21,21 -62,41 -83,62 -20,0 -61,20 -102,20 -62,0 -103,-20 -144,-82 -41,-41 -62,-123 -62,-185 0,-82 21,-144 62,-205 41,-41 82,-82 144,-82 41,0 82,20 102,20 21,21 62,41 83,82l0 0zm-124 329c41,0 62,-20 82,-41 21,-21 42,-62 42,-103 0,-61 -21,-102 -42,-123 -20,-21 -41,-41 -82,-41 -20,0 -61,20 -82,41 0,21 -21,62 -21,123 0,41 21,82 21,103 21,21 62,41 82,41z"/>
</symbol>
<symbol id="Symbol31" viewBox="71036 -47623 653 718">
 <polygon class="fil0" points="71036,-47623 71232,-47623 71232,-47362 71493,-47362 71493,-47623 71689,-47623 71689,-46905 71493,-46905 71493,-47210 71232,-47210 71232,-46905 71036,-46905 "/>
</symbol>
<symbol id="a" viewBox="3434 -253 3 3">
 <path class="fil0" d="M3436 -251c0,0 0,0 0,0 -1,0 -1,1 -1,1 0,0 0,0 1,0 0,0 0,0 0,0 0,0 0,0 0,0 1,0 1,0 1,-1l0 0 -1 0zm2 0l0 2 -1 0 0 -1c-1,0 -1,1 -1,1 0,0 0,0 -1,0 0,0 0,0 0,0 -1,-1 -1,-1 -1,-1 0,-1 0,-1 1,-1 0,0 0,0 1,0l1 0 0 0c0,-1 0,-1 -1,-1 0,0 0,0 0,0 0,0 -1,0 -1,0 0,0 0,0 0,0l0 0c0,-1 0,-1 0,-1 1,0 1,0 1,0 1,0 1,0 1,1 1,0 1,0 1,1l0 0z"/>
</symbol>
<symbol id="Symbol8" viewBox="-80751 -84434 0 0">
 <path class="fil0" d="M-80751 84033c28,0 46,-3 55,-16 13,-9 19,-24 19,-46 0,-21 -6,-37 -19,-46 -9,-9 -27,-15 -55,-15l168415 0 0 -168344 -168415 0 0 168467zm0 0l0 -168286 168344 0 0 167988 -168276 0c61,0 107,9 138,30 28,22 43,56 43,102 0,30 -6,58 -22,76 -15,22 -40,37 -70,47 18,3 34,12 46,27 12,13 27,-168433 40,-168405l67 135 -132 0 -58 -120c-12,-24 -25,-40 -37,-49 -12,-9 -28,-12 -46,-12l168430 0 -168467 168467z"/>
</symbol>
<symbol id="Symbol39" viewBox="69339 -46321 169 740">
 <path class="fil0" d="M69339 -46110l169 0 0 529 -169 0 0 -529zm0 -211l169 0 0 148 -169 0 0 -148z"/>
</symbol>
 <g id="Layer_x0020_1">
  <metadata id="CorelCorpID_0Corel-Layer"/>
  <path class="fil0 str0" d="M550 485l-377 0c-47,0 -57,8 -57,46l0 30 491 0c0,-55 7,-76 -57,-76l0 0z"/>
  <path class="fil1 str0" d="M550 485l-377 0c-47,0 -57,8 -57,46l0 30 491 0c0,-55 7,-76 -57,-76l0 0z"/>
  <path class="fil2 str0" d="M607 572l-491 0c0,30 5,25 39,25l414 0c34,0 38,5 38,-25l0 0z"/>
  <polygon class="fil2 str0" points="167,609 167,699 189,699 189,609 "/>
  <polygon class="fil2 str0" points="533,609 533,699 556,699 556,609 "/>
  <polygon class="fil3 str0" points="73,394 73,441 141,441 141,394 "/>
  <polygon class="fil3 str0" points="581,394 581,441 650,441 650,394 "/>
  <path class="fil1 str0" d="M157 205c0,46 0,92 0,139 7,0 12,-2 18,4 2,6 2,39 -1,44 -4,4 -12,2 -17,2l0 79 0 0 0 0 412 0 0 0 0 0 -3 -79c-5,0 -13,2 -17,-2 -3,-5 -3,-38 -1,-44 6,-6 11,-4 18,-4 0,-47 0,-94 0,-141 1,-38 -9,-73 -29,-102 -46,-68 -112,-53 -176,-53 -63,0 -131,-15 -176,54 -20,30 -29,63 -28,103l0 0z"/>
 </g>
 <g id="Layer_x0020_1_0">
  <metadata id="CorelCorpID_1Corel-Layer"/>
  <g id="_2134733622400">
   <path class="fil0" d="M533 609l23 0 0 90 -23 0 0 -90zm-392 -136l16 0 0 0 412 0 0 0 13 0 0 1c5,3 13,4 21,10 23,14 18,40 18,62 0,12 2,40 -3,50 -9,16 -28,13 -47,13 0,17 0,34 0,52 0,10 4,41 -3,48 -1,0 -3,1 -6,1l-33 0c-4,0 -7,-1 -8,-1 -4,-7 -2,-86 -2,-100l-316 0c0,14 3,93 -1,100 -1,0 -4,1 -8,1l-33 0c-3,0 -5,-1 -6,-1 -7,-7 -4,-38 -4,-48 0,-18 0,-35 0,-52 -18,0 -38,3 -47,-14 -4,-8 -2,-39 -2,-50 0,-14 -2,-35 5,-47 11,-19 25,-19 34,-24l0 -1zm26 136l22 0 0 90 -22 0 0 -90zm-51 -37l491 0c0,30 -4,25 -38,25l-414 0c-34,0 -39,5 -39,-25l0 0zm0 -41c0,-38 10,-46 57,-46l-14 0c130,0 261,0 391,0 64,0 57,21 57,76l-491 0 0 -30 0 0 0 0z"/>
   <path class="fil0" d="M582 473l-13 0 -3 -79c-5,0 -13,2 -17,-2 -3,-5 -3,-38 -1,-44 6,-6 11,-4 18,-4 0,-47 0,-94 0,-141 1,-38 -9,-73 -29,-102 -46,-68 -112,-53 -176,-53 -63,0 -131,-15 -176,54 -20,30 -29,63 -28,103 0,46 0,92 0,139 7,0 12,-2 18,4 2,6 2,39 -1,44 -4,4 -12,2 -17,2l0 79 -16 0 0 -15 -80 -1c-4,-10 -2,-48 -2,-63l-17 -1c-5,-9 -5,-35 -2,-46 10,-8 84,-3 101,-3 0,-45 -2,-105 1,-148 3,-45 9,-73 33,-107 27,-41 61,-55 96,-59l90 0 91 0c35,4 68,18 96,59 24,34 29,62 33,107 3,43 0,103 0,148l7 0c0,-15 -3,-33 -3,-47 0,-19 16,-13 29,-13 1,-12 3,-26 4,-38 2,-26 0,-19 30,-45 8,-7 13,-15 20,-4 1,12 -20,27 -28,33 -10,8 -7,8 -8,23 -1,9 -2,21 -2,31l24 1c6,9 1,40 1,59 8,0 21,-3 27,3 4,11 4,37 -1,47l-17 0c0,15 2,53 -3,64l-80 0 1 15 0 0 0 0zm-1 -79l69 0 0 47 -69 0 0 -47zm-508 0l68 0 0 47 -68 0 0 -47zm488 -31l108 0 0 13 -108 0 0 -13zm-507 0l108 0 0 13 -108 0 0 -13zm546 -61l42 0 -2 42 -38 0 -2 -42 0 0 0 0z"/>
  </g>
  <rect class="fil4" width="723" height="740"/>
 </g>
</svg>
