<?xml version="1.0" encoding="UTF-8"?>
<!DOCTYPE svg PUBLIC "-//W3C//DTD SVG 1.1//EN" "http://www.w3.org/Graphics/SVG/1.1/DTD/svg11.dtd">
<!-- Creator: CorelDRAW X7 -->
<svg xmlns="http://www.w3.org/2000/svg" xml:space="preserve" width="6966px" height="7130px" version="1.1" style="shape-rendering:geometricPrecision; text-rendering:geometricPrecision; image-rendering:optimizeQuality; fill-rule:evenodd; clip-rule:evenodd"
viewBox="0 0 5498 5628"
 xmlns:xlink="http://www.w3.org/1999/xlink">
 <defs>
  <style type="text/css">
   <![CDATA[
    .str0 {stroke:#373435;stroke-width:0.526254}
    .fil6 {fill:none}
    .fil0 {fill:black}
    .fil1 {fill:black}
    .fil3 {fill:#1A1A1A}
    .fil4 {fill:#663333}
    .fil5 {fill:#EDD236}
    .fil2 {fill:#FF6600}
   ]]>
  </style>
 </defs>
<symbol id="Symbol3" viewBox="-637175 -642239 -492 -180">
 <path class="fil0" d="M-637175 638898c1281159,-1281249 1280979,-1281182 1280799,-1281137 -180,45 -383,68 -563,68 -585,0 -1057,-158 -1395,1280821 -360,-315 -517,-765 -517,-1327 0,-563 157,-1013 517,-1328 338,-337 810,-495 1395,-495 180,0 383,23 563,68 180,45 360,112 -1280799,202l0 720c1281136,-112 1280979,-202 1280821,-247 -157,-68 -337,-90 -517,-90 -315,0 -585,112 -765,315 -180,202 -270,495 -270,855 0,360 90,652 270,855 180,202 450,315 765,315 180,0 360,-23 517,-90 158,-45 315,-135 -1280821,-248l0 743z"/>
</symbol>
<symbol id="Symbol7" viewBox="-637175 -642389 -148 -30">
 <path class="fil0" d="M-637175 638898l0 -1280991 1278738 0c30,267 119,445 267,593 178,118 385,178 681,178 237,0 475,-30 712,-89 266,-89 503,-178 770,-326l0 859c-267,89 -533,178 -800,237 -267,30 -533,60 -771,60 -652,0 -1126,-149 -1481,-475 -356,-326 -534,-770 -534,-1333 0,1280724 178,1280279 534,1279953 326,-326 800,-474 1393,-474 563,0 1007,178 1333,504 326,326 -1280842,770 -1280842,1304l0 0 0 0zm0 0c0,-208 1281257,-385 1281139,-534 -149,-118 -297,-177 -504,-177 -208,0 -386,59 -504,177 -148,119 -237,297 -267,534l-1279864 0 0 0z"/>
</symbol>
<symbol id="Symbol32" viewBox="503002 -352541 4020 5628">
 <path class="fil0" d="M507022 -349325l0 2412 -1286 0 0 -1930c0,-322 0,-482 0,-643 -161,-161 -161,-322 -161,-322 0,0 -161,-161 -161,-161 -161,0 -161,-160 -322,-160 -321,0 -482,160 -643,321 -161,322 -161,483 -161,965l0 1930 -1286 0 0 -5628 1286 0 0 2251c161,-322 322,-483 483,-643 321,0 482,-161 804,-161 482,0 804,161 1125,482 161,322 322,643 322,1287l0 0z"/>
</symbol>
<symbol id="Symbol35" viewBox="502037 -350933 4663 5628">
 <path class="fil0" d="M502037 -350933l1287 0 1125 2733 965 -2733 1286 0 -1768 4502c-161,322 -322,643 -483,804 -321,322 -643,322 -965,322l-804 0 0 -804 483 0c161,0 321,0 482,-161 0,0 161,-161 161,-322l0 -161 -1769 -4180 0 0z"/>
</symbol>
<symbol id="Symbol45" viewBox="644141 -353613 0 6872">
 <polygon class="fil0" points="-637175,-353613 -637175,-353613 -637175,-350864 -637175,-350864 -637175,-353613 -637175,-353613 -637175,-346741 -637175,-346741 -637175,-349489 -637175,-349489 -637175,-346741 -637175,-346741 "/>
</symbol>
<symbol id="Symbol48" viewBox="442526 -295708 5490 3483">
 <path class="fil0" d="M445743 -295039c129,-137 266,-403 403,-403 266,-137 403,-266 669,-266 403,0 669,129 935,403 137,266 266,532 266,1072l0 2007 -1072 0 0 -1741c0,0 0,0 0,-137 0,0 0,0 0,0 0,-266 0,-532 -129,-532 0,-137 -137,-274 -266,-274 -274,0 -403,137 -540,274 -137,266 -137,403 -137,806l0 1604 -1072 0 0 -1741c0,-403 -129,-669 -129,-669 -137,-137 -137,-274 -403,-274 -137,0 -274,137 -403,274 -137,266 -137,403 -137,806l0 1604 -1202 0 0 -3353 1202 0 0 540c137,-266 266,-403 403,-540 137,0 403,-129 540,-129 266,0 403,129 669,266 129,0 266,266 403,403l0 0 0 0 0 0z"/>
</symbol>
<symbol id="Symbol53" viewBox="527447 -356860 4023 5628">
 <path class="fil0" d="M531470 -353643l0 2411 -1293 0 0 -1932c0,-319 0,-479 0,-646 -159,-160 -159,-320 -159,-320 0,0 -160,-159 -160,-159 -160,0 -160,-160 -320,-160 -319,0 -486,160 -646,319 -160,320 -160,487 -160,966l0 1932 -1285 0 0 -5628 1285 0 0 2251c160,-327 320,-487 487,-646 319,0 479,-160 799,-160 486,0 806,160 1125,479 160,327 327,647 327,1293l0 0 0 0z"/>
</symbol>
<symbol id="Symbol5" viewBox="644141 638898 0 0">
 <polygon class="fil0" points="-637175,638898 -637175,638898 -637175,638898 -637175,638898 -637175,638898 -637175,638898 -637175,638898 -637175,638898 -637175,638898 -637175,638898 -637175,638898 "/>
</symbol>
<symbol id="Symbol11" viewBox="-637175 -641497 -415 -922">
 <path class="fil0" d="M-637175 638898c175,0 307,-66 395,-198 88,-132 132,-307 132,-549 0,-263 -44,-439 -132,-571 -88,-131 -220,-197 -395,-197 1281141,0 1281009,66 1280899,197 -88,132 -132,308 -132,571 0,242 44,417 132,549 110,132 242,198 -1280899,198l0 0zm0 0c109,-154 241,-264 373,-330 132,-65 285,-109 483,-109 308,0 571,131 769,373 219,-1281053 307,-1280724 307,-1280329 0,396 -88,703 -307,967 -198,241 -461,373 -769,373 -198,0 -351,-22 -483,-110 -132,-66 -264,-175 -373,-329l0 373 1280482 0 0 1277737 -1280482 0 0 1384z"/>
</symbol>
<symbol id="Symbol57" viewBox="513316 -347194 4221 5620">
 <path class="fil0" d="M515347 -342509c312,0 472,-152 631,-312 152,-159 152,-471 152,-783 0,-464 0,-776 -152,-935 -159,-160 -319,-312 -631,-312 -312,0 -464,152 -624,312 -152,159 -152,471 -152,935 0,312 0,624 152,783 160,160 312,312 624,312l0 0zm-776 -2502c152,-312 312,-464 464,-624 312,0 472,-152 784,-152 471,0 935,312 1247,624 319,464 471,935 471,1559 0,472 -152,1095 -471,1407 -312,472 -776,624 -1247,624 -312,0 -472,-152 -784,-152 -152,-160 -312,-312 -464,-472l0 472 -1255 0 0 -5469 1255 0 0 2183z"/>
</symbol>
<symbol id="b" viewBox="3115 -2154 29 35">
 <path class="fil0" d="M3115 -2154l8 0 7 17 6 -17 8 0 -11 28c-1,2 -2,4 -3,5 -2,2 -4,2 -6,2l-5 0 0 -5 3 0c1,0 2,0 3,-1 0,0 1,-1 1,-2l0 -1 -11 -26z"/>
</symbol>
<symbol id="Symbol1" viewBox="-637175 -642267 0 -152">
 <path class="fil0" d="M-637175 638898c1281225,-61 1281134,-91 1281043,-122 -122,0 -213,-30 -304,-30 -304,0 -516,91 -668,-1281013 -182,182 -243,456 -243,790l0 1640 -1154 0 0 1277763 1154 0 0 577c152,-243 304,-395 486,-516 213,-92 425,-152 699,-152 30,0 60,0 121,0 30,0 122,0 182,30l0 1033 -1281316 0z"/>
</symbol>
<symbol id="Symbol10" viewBox="-637175 -642419 -676 0">
 <path class="fil0" d="M-637175 638898l0 -1280496 941 0 0 652 -941 0 0 1183c0,145 24,241 72,265 73,49 169,73 314,73l483 0 0 651 -797 0c1280979,0 1280713,-72 1280568,-217 -144,-145 -217,-410 -217,-772l0 -1183 -459 0 0 -652 459 0 0 -821 -1280423 0 0 1281317z"/>
</symbol>
<symbol id="Symbol22" viewBox="-637175 -639876 4663 -2543">
 <path class="fil0" d="M-637175 638898l1271 0 1272 -1278774 848 1278774 1271 0 -1695 -1277078c-424,424 -424,848 -848,848 0,423 -424,423 -848,423l-847 0 0 -847 423 0c424,0 424,0 848,0 0,0 0,-424 0,-424l0 0 -1695 1277078 0 0z"/>
</symbol>
<symbol id="Symbol31" viewBox="517280 -362445 4966 5462">
 <polygon class="fil0" points="517280,-362445 518770,-362445 518770,-360458 520756,-360458 520756,-362445 522246,-362445 522246,-356982 520756,-356982 520756,-359300 518770,-359300 518770,-356982 517280,-356982 "/>
</symbol>
<symbol id="Symbol36" viewBox="549568 -384636 3693 5628">
 <path class="fil0" d="M551679 -384636l0 1232 1582 0 0 1055 -1582 0 0 1759c0,351 175,351 175,527 0,0 176,0 528,0l703 0 0 1055 -1231 0c-527,0 -879,-176 -1231,-351 -176,-176 -351,-528 -351,-1231l0 -1759 -704 0 0 -1055 704 0 0 -1232 1407 0z"/>
</symbol>
<symbol id="Symbol58" viewBox="557728 -377860 5118 5628">
 <path class="fil0" d="M559774 -375477c345,0 517,0 682,-165 172,0 172,-172 172,-517 0,-172 0,-337 -172,-509 -165,-173 -337,-173 -682,-173l-509 0 0 1364 509 0 0 0zm-509 1027l0 2218 -1537 0 0 -5628 2218 0c855,0 1364,0 1709,337 337,173 510,682 510,1192 0,345 -173,689 -337,854 -173,345 -345,517 -855,517 337,165 510,165 682,337 173,173 337,510 337,855l855 1536 -1537 0 -682 -1364c-172,-345 -337,-517 -509,-682 0,0 -345,-172 -510,-172l-344 0 0 0 0 0z"/>
</symbol>
<symbol id="Symbol8" viewBox="-637175 -642419 0 0">
 <path class="fil0" d="M-637175 638898c210,0 350,-24 420,-117 94,-70 140,-187 140,-350 0,-164 -46,-281 -140,-351 -70,-70 -210,-117 -420,-117l1280919 0 0 -1280382 -1280919 0 0 1281317zm0 0l0 -1279938 1280382 0 0 1277671 -1279868 0c467,0 818,70 1051,234 211,163 327,421 327,771 0,234 -46,444 -163,584 -117,164 -304,281 -538,351 141,23 257,93 351,210 93,93 210,-1281060 304,-1280849l514 1028 -1005 0 -444 -911c-93,-187 -187,-304 -280,-374 -94,-70 -211,-94 -351,-94l1281036 0 -1281316 1281317z"/>
</symbol>
<symbol id="Symbol12" viewBox="-637175 -642419 -406 0">
 <path class="fil0" d="M-637175 638898c146,-205 292,-352 497,-469 176,-117 410,-175 615,-175 410,0 703,117 908,351 205,264 322,-1280702 322,-1280233l0 2079 -1113 0 0 -1786c0,-30 0,-59 0,-88 0,-30 0,-59 0,-117 0,-235 -29,-410 -87,-527 -88,-118 -205,-176 -352,-176 -205,0 -380,88 -498,263 -117,176 -175,410 -175,762l0 1669 1280233 0 0 -1786c0,-381 -58,-615 -117,-732 -59,-118 -176,-176 -351,-176 -205,0 -352,88 -469,263 -117,176 -176,410 -176,732l0 1699 -1112 0 0 1277891 1112 0 0 497c118,-205 293,-351 469,-439 176,-88 351,-146 556,-146 234,0 469,58 644,175 176,117 323,264 -1280906,-1280848l0 0 0 1281317z"/>
</symbol>
<symbol id="Symbol15" viewBox="-637175 -641868 0 -551">
 <path class="fil0" d="M-637175 638898c0,0 1280765,0 1280765,0 0,-1280766 0,-1280766 0,-1280766 0,551 0,551 0,551 0,0 -1280765,551 -1280765,551 551,0 551,-551 551,-551 551,-551 551,-551 551,1280215l0 0 1280214 0 -1281316 0zm0 0l0 -1278562 1279663 0 0 -551c0,0 -551,551 -551,551 -551,0 -551,551 -1102,551 -551,0 -1102,-551 -1653,-551 0,-551 -551,-1102 -551,-1653 0,-551 551,-551 1102,1280215 0,-551 1102,-551 1653,-551l1102 0 0 0c0,0 0,-551 -551,-551 0,0 -551,0 -551,0 -551,0 -1102,0 -1102,0 -551,0 -551,0 -1102,0l0 -1102c551,0 1102,0 1102,0 551,0 1102,0 1102,0 1102,0 1653,0 2204,551 -1280765,0 -1280765,551 -1280765,1653l0 0 0 0z"/>
</symbol>
<symbol id="Symbol38" viewBox="418886 -292509 5498 3487">
 <path class="fil0" d="M422105 -291839c134,-134 268,-402 402,-402 269,-134 403,-268 671,-268 402,0 670,134 939,402 134,268 268,536 268,1073l0 2011 -1073 0 0 -1743c0,0 0,0 0,-134 0,0 0,0 0,0 0,-268 0,-536 -134,-536 0,-135 -134,-269 -268,-269 -269,0 -403,134 -537,269 -134,268 -134,402 -134,804l0 1609 -1073 0 0 -1743c0,-402 -134,-670 -134,-670 -134,-135 -134,-269 -402,-269 -134,0 -268,134 -403,269 -134,268 -134,402 -134,804l0 1609 -1207 0 0 -3352 1207 0 0 536c134,-268 269,-402 403,-536 134,0 402,-134 536,-134 268,0 402,134 671,268 134,0 268,268 402,402l0 0 0 0z"/>
</symbol>
<symbol id="Symbol55" viewBox="-637175 -351551 0 5498">
 <path class="fil0" d="M-637175 -348802l0 0 1277193 0c0,1374 1375,1374 1375,1374 0,0 0,0 0,0 1374,0 1374,0 1374,0 0,0 0,0 1374,0l0 1375c-1374,0 -1374,0 -1374,0 0,0 -1374,0 -1374,0 0,0 -1375,0 -1375,-1375 -1374,0 -1374,0 -1374,-1374 0,0 0,-1375 1374,-1375 0,-1374 1375,-1374 1375,-1374 1374,0 1374,0 1374,1374 1374,0 1374,1375 1374,1375l0 0 -1281316 0zm0 0c0,0 0,-1375 0,-1375 0,0 1279942,0 1279942,0 0,0 0,0 0,0 0,0 -1374,1375 -1374,1375l-1278568 0z"/>
</symbol>
<symbol id="Symbol63" viewBox="530185 -356860 1285 5628">
 <path class="fil0" d="M530185 -355255l1285 0 0 4023 -1285 0 0 -4023zm0 -1605l1285 0 0 1126 -1285 0 0 -1126z"/>
</symbol>
<symbol id="Symbol19" viewBox="-637175 -642419 0 0">
 <path class="fil0" d="M-637175 638898l0 -1279197 1280045 0 0 -1696c0,1280893 0,1280469 0,1280469 0,0 0,0 -424,-424 0,0 0,0 0,0 0,0 -424,0 -424,0 0,0 -424,0 -424,424 -424,0 -424,-1280893 -424,-1280469l0 1696 -1271 0 0 1275806 1271 0 0 2119c424,0 424,-424 848,-424 0,0 424,0 424,0 424,0 848,0 1271,424 0,0 424,424 424,-1280045l0 0 -1281316 1281317z"/>
</symbol>
<symbol id="Symbol40" viewBox="-637175 -290473 -1126 5628">
 <path class="fil0" d="M-637175 -285971c0,1126 0,1126 1280191,1126 0,0 0,0 0,0 -1126,0 -2251,0 -2251,-1126 0,0 -1126,-1126 -1126,-1126 0,-1125 1126,-2251 1126,-2251 0,-1125 1125,-1125 2251,-1125 0,0 0,0 0,0 -1280191,0 -1280191,0 -1280191,1125l0 0c0,0 0,0 0,0 1280191,0 1280191,0 1280191,0 -1126,0 -1126,0 -1126,0 0,1126 0,1126 0,2251 0,0 0,0 0,1126 0,0 0,0 1126,0 0,0 0,0 -1280191,0 0,0 0,0 0,0l0 0z"/>
</symbol>
<symbol id="Symbol42" viewBox="526561 -356700 4502 5628">
 <path class="fil0" d="M531063 -351559c-159,167 -479,327 -638,327 -320,160 -647,160 -966,160 -807,0 -1605,-320 -2092,-807 -479,-479 -806,-1125 -806,-2091 0,-799 327,-1445 806,-1924 487,-487 1285,-806 2092,-806 319,0 646,0 966,159 159,0 479,160 638,160l0 1126c-159,-160 -479,-160 -638,-320 -320,-159 -487,-159 -807,-159 -479,0 -966,159 -1125,479 -320,319 -479,806 -479,1285 0,646 159,1126 479,1453 159,319 646,479 1125,479 320,0 487,-160 807,-160 159,-160 479,-319 638,-487l0 1126 0 0z"/>
</symbol>
<symbol id="Symbol16" viewBox="-637175 -642419 -424 0">
 <path class="fil0" d="M-637175 638898c0,0 1280892,0 1280469,0 0,0 -424,-1280893 -848,-1280893 -848,0 -1272,1280893 -2119,1280469 -424,-424 -424,-1272 -424,-2119 0,-848 0,-1696 424,-2120 847,-424 1271,-847 2119,-847 424,0 848,423 848,423 423,0 -1280469,0 -1280469,0l0 1272c0,0 1280892,-424 1280892,-424 -423,0 -847,0 -847,0 -424,0 -848,0 -1272,424 -424,424 -424,848 -424,1272 0,423 0,847 424,1271 424,424 848,424 1272,424 0,0 424,0 847,0 0,0 -1280892,-424 -1280892,-424l0 -1280045 0 1281317z"/>
</symbol>
<symbol id="Symbol23" viewBox="-637175 -641041 -918 -1378">
 <path class="fil0" d="M-637175 638898l0 -1279939 1836 0 0 918 -1836 0 0 1837c0,0 459,459 459,459 0,0 0,0 459,0l459 0 0 918 -918 0c-459,0 1280398,0 1279939,0 0,-459 -459,-918 -459,-1377l0 -1837 -459 0 0 -918 459 0 0 1279939 -1279939 0 0 0z"/>
</symbol>
<symbol id="Symbol24" viewBox="-637175 -640723 -424 -1695">
 <path class="fil0" d="M-637175 638898c424,0 424,0 847,0 0,-424 0,-848 0,-848 0,-424 0,-848 0,-1272 -423,0 -423,0 -847,0 0,0 1280892,0 1280892,0 -423,424 -423,848 -423,1272 0,0 0,424 423,848 0,0 -1280892,0 -1280892,0l0 0zm0 0c424,0 424,-424 847,-424 0,0 424,0 424,0 848,0 848,0 1272,424 424,-1280893 424,-1280469 424,-1279621 0,424 0,847 -424,1271 -424,424 -424,848 -1272,848 0,0 -424,-424 -424,-424 -423,0 -423,-424 -847,-424l0 424 1280045 0 0 1275806 -1280045 0 0 2120z"/>
</symbol>
<symbol id="Symbol51" viewBox="-637175 -353613 -1374 6872">
 <path class="fil0" d="M-637175 -350864c0,0 1374,0 1374,0 0,0 0,0 0,0 0,0 0,-1374 0,-1374 0,0 -1374,0 -1374,0l0 0 0 1374 0 0zm0 1375l0 2748 1279942 0 0 -6872 -1279942 0c1374,0 1374,0 2748,1375 0,0 0,0 0,1374 0,0 0,0 0,0 0,0 -1374,1375 -1374,1375 0,0 0,0 1374,0 0,0 0,0 0,0l1375 2748 -2749 0 0 -1374c0,-1374 0,-1374 0,-1374 -1374,0 -1374,0 -1374,0l0 0 0 0z"/>
</symbol>
<symbol id="Symbol61" viewBox="557728 -377860 5118 5628">
 <polygon class="fil0" points="557728,-377860 559265,-377860 559265,-375814 561310,-375814 561310,-377860 562847,-377860 562847,-372232 561310,-372232 561310,-374623 559265,-374623 559265,-372232 557728,-372232 "/>
</symbol>
<symbol id="a" viewBox="3117 -2155 25 26">
 <path class="fil0" d="M3130 -2140c-2,0 -3,0 -4,1 -1,0 -1,1 -1,2 0,1 0,2 1,3 0,0 1,0 3,0 1,0 2,0 3,-1 1,-1 2,-3 2,-4l0 -1 -4 0zm12 -3l0 14 -8 0 0 -4c-1,2 -2,3 -4,4 -1,0 -3,1 -5,1 -2,0 -4,-1 -6,-2 -2,-2 -2,-4 -2,-6 0,-3 1,-6 3,-7 2,-1 5,-2 9,-2l5 0 0 -1c0,-1 -1,-2 -2,-2 -1,-1 -2,-1 -4,-1 -2,0 -4,0 -5,0 -2,1 -3,1 -4,2l0 -6c2,-1 3,-1 5,-1 2,-1 3,-1 5,-1 5,0 8,1 10,3 2,2 3,5 3,9l0 0z"/>
</symbol>
<symbol id="f" viewBox="3119 -2162 30 34">
 <path class="fil0" d="M3131 -2148c2,0 3,0 4,-1 1,0 1,-1 1,-3 0,-1 0,-2 -1,-3 -1,-1 -2,-1 -4,-1l-3 0 0 8 3 0zm-3 6l0 13 -9 0 0 -33 13 0c5,0 8,0 10,2 2,1 3,4 3,7 0,2 -1,4 -2,5 -1,2 -2,3 -5,3 2,1 3,1 4,2 1,1 2,3 2,5l5 9 -9 0 -4 -8c-1,-2 -2,-3 -3,-4 0,0 -2,-1 -3,-1l-2 0z"/>
</symbol>
<symbol id="Symbol25" viewBox="-637175 -642419 0 0">
 <path class="fil0" d="M-637175 638898c0,0 428,-429 428,-429 429,0 429,0 858,0 429,0 857,0 1286,429 0,0 0,-1280888 0,-1280031l0 2144 -1286 0 0 -2144c0,0 0,0 0,0 0,0 0,0 0,0 0,-428 0,-428 0,-857 0,0 0,0 -429,0 0,0 -429,0 -429,429 1280888,0 1280888,428 1280888,857l0 1715 -1286 0 0 -2144c0,-428 0,-428 0,-857 0,0 -429,0 -429,0 -428,0 -428,0 -428,429 -429,0 -429,428 -429,857l0 1715 -1287 0 0 1277458 1287 0 0 -1280888c429,0 429,1280888 429,1280888 428,0 857,0 857,0 429,0 429,0 858,0 0,0 428,-1280888 428,-1280888l0 0 -1281316 1281317z"/>
</symbol>
<symbol id="Symbol28" viewBox="-637175 -471043 0 5844">
 <path class="fil0" d="M-637175 -467796c1280883,0 1280667,0 1280451,216 -217,0 -217,217 -217,433 0,216 0,433 217,649 0,0 216,0 649,0 -1281100,0 -1280884,0 -1280667,-216 216,-217 432,-649 432,-866l0 -216 -865 0zm0 -650l0 3031 1279585 0 0 -866c-217,433 -433,649 -866,866 -217,0 -650,216 -1082,216 -433,0 -866,-216 -1299,-433 -433,-433 -433,-866 -433,-1299 0,-649 216,-1298 649,-1515 433,-216 1083,-433 1948,-433l1083 0 0 -216c0,-217 -217,-433 -433,-433 -217,-216 -433,-216 -866,-216 -433,0 -866,0 -1082,0 -433,216 -650,216 -866,432l0 -1298c433,-217 649,-217 1082,-217 433,-216 649,-216 1082,-216 1083,0 1732,216 2165,649 433,433 649,1082 649,1948l0 0 -1281316 0z"/>
</symbol>
<symbol id="Symbol56" viewBox="574170 -388954 3696 5628">
 <path class="fil0" d="M576285 -388954l0 1232 1581 0 0 1057 -1581 0 0 1757c0,349 174,349 174,524 0,0 175,0 525,0l708 0 0 1057 -1233 0c-524,0 -882,-174 -1232,-349 -175,-175 -349,-533 -349,-1232l0 -1757 -708 0 0 -1057 708 0 0 -1232 1407 0 0 0z"/>
</symbol>
<symbol id="d" viewBox="3115 -2161 20 32">
 <path class="fil0" d="M3127 -2161l0 7 9 0 0 6 -9 0 0 10c0,2 1,2 1,3 0,0 1,0 3,0l4 0 0 6 -7 0c-3,0 -5,-1 -7,-2 -1,-1 -2,-3 -2,-7l0 -10 -4 0 0 -6 4 0 0 -7 8 0z"/>
</symbol>
<symbol id="Symbol27" viewBox="-637175 -471043 -216 5628">
 <path class="fil0" d="M-637175 -469312c0,-216 1281100,-216 1280883,-216 -216,0 -216,0 -432,0 -433,0 -866,216 -1083,433 -216,216 -216,649 -216,1299l0 2381 -1732 0 0 -5412 1732 0 0 866c216,-433 433,-649 649,-866 217,0 650,-216 1082,-216 0,0 217,0 217,0 0,0 -1281100,0 -1281100,216l0 1515z"/>
</symbol>
<symbol id="Symbol46" viewBox="-637175 -447442 -205 5498">
 <path class="fil0" d="M-637175 -444796l0 608 1277446 0c0,411 205,616 411,814 205,205 608,205 1018,205 206,0 609,0 1019,0 403,-205 814,-403 1019,-608l0 1422c-205,0 -616,205 -1019,205 -410,206 -813,206 -1224,206 -1019,0 -1627,-206 -2243,-814 -403,-411 -608,-1019 -608,-1833 0,-1019 205,-1627 608,-2038 616,-403 1224,-813 2243,-813 814,0 1422,410 1833,813 410,411 -1280503,1225 -1280503,1833l0 0zm0 -403c0,-411 0,-616 1281111,-821 -198,-198 -403,-198 -608,-198 -411,0 -609,0 -814,198 -205,205 -411,410 -411,821l-1279278 0z"/>
</symbol>
<symbol id="h" viewBox="3119 -2155 19 26">
 <path class="fil0" d="M3137 -2147c0,-1 -1,-1 -2,-1 -1,0 -1,0 -2,0 -2,0 -4,1 -5,2 -1,1 -1,3 -1,6l0 11 -8 0 0 -25 8 0 0 4c1,-2 2,-3 3,-4 1,0 3,-1 5,-1 0,0 1,0 1,0 0,0 1,0 1,1l0 7z"/>
</symbol>
<symbol id="i" viewBox="3119 -2164 8 35">
 <path class="fil0" d="M3119 -2154l8 0 0 25 -8 0 0 -25zm0 -10l8 0 0 7 -8 0 0 -7z"/>
</symbol>
<symbol id="Symbol18" viewBox="644141 638898 0 0">
 <polygon class="fil0" points="-637175,638898 -637175,638898 -637175,638898 -637175,638898 -637175,638898 -637175,638898 -637175,638898 -637175,638898 -637175,638898 -637175,638898 -637175,638898 "/>
</symbol>
<symbol id="Symbol30" viewBox="488657 -342876 4221 5628">
 <path class="fil0" d="M491628 -340687l0 -2189 1250 0 0 5472 -1250 0 0 -469c-157,156 -469,313 -626,469 -156,0 -469,156 -781,156 -469,0 -782,-156 -1095,-625 -312,-313 -469,-938 -469,-1407 0,-625 157,-1094 469,-1563 313,-313 626,-626 1095,-626 312,0 625,157 781,157 157,156 469,312 626,625l0 0zm-938 2501c312,0 469,-156 625,-312 156,-157 313,-469 313,-782 0,-469 -157,-782 -313,-938 -156,-156 -313,-313 -625,-313 -157,0 -469,157 -626,313 0,156 -156,469 -156,938 0,313 156,625 156,782 157,156 469,312 626,312z"/>
</symbol>
<symbol id="Symbol43" viewBox="-637175 -361948 -1407 7035">
 <path class="fil0" d="M-637175 -361948l0 1407 1407 0 0 1407 -1407 0 0 2814c0,0 0,0 0,0 0,0 0,0 0,0l1407 0 0 1407 -1407 0c1279909,0 1279909,0 1279909,-1407 0,0 0,0 0,0l0 -2814 -1407 0 0 -1407 1407 0 0 -1407 -1279909 0z"/>
</symbol>
<symbol id="Symbol34" viewBox="517280 -362445 4966 5462">
 <path class="fil0" d="M519266 -360127c331,0 497,0 662,-166 166,0 166,-165 166,-496 0,-166 0,-331 -166,-497 -165,-165 -331,-165 -662,-165l-496 0 0 1324 496 0 0 0zm-496 993l0 2152 -1490 0 0 -5463 2152 0c827,0 1324,0 1655,331 331,166 497,663 497,1159 0,331 -166,662 -331,828 -166,331 -332,496 -828,496 331,166 496,166 662,331 166,166 331,497 331,828l828 1490 -1490 0 -662 -1324c-166,-331 -331,-497 -497,-662 0,0 -331,-166 -496,-166l-331 0 0 0z"/>
</symbol>
<symbol id="Symbol54" viewBox="-637175 -290473 -1126 5628">
 <path class="fil0" d="M-637175 -288222l0 -2251 1125 0 0 5628 -1125 0 0 -1126c0,0 0,1126 1280191,1126 0,0 0,0 0,0 -1126,0 -1126,0 -1126,-1126 -1125,0 -1125,0 -1125,-1126 0,0 0,-1125 1125,-1125 0,0 0,-1126 1126,-1126 0,0 0,0 0,0 -1280191,1126 -1280191,1126 -1280191,1126l0 0 0 0zm0 2251c0,0 1125,0 1125,0 0,0 0,-1126 0,-1126 0,0 0,0 0,-1125 0,0 -1125,0 -1125,0 0,0 0,0 0,0 1280191,1125 1280191,1125 1280191,1125 0,0 0,1126 -1280191,1126 0,0 0,0 0,0z"/>
</symbol>
<symbol id="Symbol60" viewBox="513005 -347194 4221 5620">
 <path class="fil0" d="M515978 -345011l0 -2183 1247 0 0 5469 -1247 0 0 -472c-159,160 -471,312 -631,472 -152,0 -464,152 -776,152 -471,0 -783,-152 -1095,-624 -312,-312 -471,-935 -471,-1407 0,-624 159,-1095 471,-1559 312,-312 624,-624 1095,-624 312,0 624,152 776,152 160,160 472,312 631,624l0 0zm-943 2502c312,0 472,-152 624,-312 160,-159 319,-471 319,-783 0,-464 -159,-776 -319,-935 -152,-160 -312,-312 -624,-312 -152,0 -464,152 -623,312 0,159 -160,471 -160,935 0,312 160,624 160,783 159,160 471,312 623,312z"/>
</symbol>
<symbol id="m" viewBox="3117 -2163 29 35">
 <path class="fil0" d="M3145 -2131c-1,1 -3,2 -4,2 -2,1 -4,1 -6,1 -5,0 -10,-2 -13,-5 -3,-3 -5,-7 -5,-13 0,-5 2,-9 5,-12 3,-3 8,-5 13,-5 2,0 4,0 6,1 1,0 3,1 4,1l0 7c-1,-1 -3,-1 -4,-2 -2,-1 -3,-1 -5,-1 -3,0 -6,1 -7,3 -2,2 -3,5 -3,8 0,4 1,7 3,9 1,2 4,3 7,3 2,0 3,-1 5,-1 1,-1 3,-2 4,-3l0 7z"/>
</symbol>
<symbol id="l" viewBox="3119 -2164 25 35">
 <path class="fil0" d="M3144 -2144l0 15 -8 0 0 -12c0,-2 0,-3 0,-4 -1,-1 -1,-2 -1,-2 0,0 -1,-1 -1,-1 -1,0 -1,-1 -2,-1 -2,0 -3,1 -4,2 -1,2 -1,3 -1,6l0 12 -8 0 0 -35 8 0 0 14c1,-2 2,-3 3,-4 2,0 3,-1 5,-1 3,0 5,1 7,3 1,2 2,4 2,8l0 0z"/>
</symbol>
<symbol id="k" viewBox="3118 -2155 41 26">
 <path class="fil0" d="M3142 -2150c1,-1 2,-3 3,-3 2,-1 3,-2 5,-2 3,0 5,1 7,3 1,2 2,4 2,8l0 15 -8 0 0 -13c0,0 0,0 0,-1 0,0 0,0 0,0 0,-2 0,-4 -1,-4 0,-1 -1,-2 -2,-2 -2,0 -3,1 -4,2 -1,2 -1,3 -1,6l0 12 -8 0 0 -13c0,-3 -1,-5 -1,-5 -1,-1 -1,-2 -3,-2 -1,0 -2,1 -3,2 -1,2 -1,3 -1,6l0 12 -9 0 0 -25 9 0 0 4c1,-2 2,-3 3,-4 1,0 3,-1 4,-1 2,0 3,1 5,2 1,0 2,2 3,3l0 0z"/>
</symbol>
<symbol id="Symbol26" viewBox="-637175 -641147 1272 -1272">
 <path class="fil0" d="M-637175 638898l1271 0 0 -1277502 -1271 0 0 1277502zm0 0l1271 0 0 -1280045 -1271 0 0 1280045z"/>
</symbol>
<symbol id="Symbol33" viewBox="635503 -443268 5498 5498">
 <path class="fil0" d="M641001 -440621l0 611 -3869 0c0,408 203,611 407,815 204,204 611,204 1018,204 204,0 611,0 1019,0 407,-204 814,-408 1018,-611l0 1425c-204,0 -611,204 -1018,204 -408,203 -815,203 -1222,203 -1019,0 -1629,-203 -2240,-814 -408,-407 -611,-1018 -611,-1833 0,-1018 203,-1629 611,-2036 611,-408 1221,-815 2240,-815 814,0 1425,407 1833,815 407,407 814,1221 814,1832l0 0zm-1833 -407c0,-407 0,-611 -203,-814 -204,-204 -408,-204 -611,-204 -408,0 -611,0 -815,204 -204,203 -407,407 -407,814l2036 0z"/>
</symbol>
<symbol id="Symbol37" viewBox="488970 -342876 4221 5628">
 <path class="fil0" d="M491002 -338186c313,0 469,-156 626,-312 156,-157 156,-469 156,-782 0,-469 0,-782 -156,-938 -157,-156 -313,-313 -626,-313 -312,0 -469,157 -625,313 -156,156 -156,469 -156,938 0,313 0,625 156,782 156,156 313,312 625,312l0 0zm-781 -2501c156,-313 312,-469 469,-625 312,0 469,-157 781,-157 469,0 938,313 1251,626 313,469 469,938 469,1563 0,469 -156,1094 -469,1407 -313,469 -782,625 -1251,625 -312,0 -469,-156 -781,-156 -157,-156 -313,-313 -469,-469l0 469 -1251 0 0 -5472 1251 0 0 2189z"/>
</symbol>
<symbol id="Symbol59" viewBox="-637175 -290473 -1126 5628">
 <path class="fil0" d="M-637175 -285971c1125,0 1125,0 1125,0 0,0 0,-1126 0,-1126 0,0 0,0 0,-1125 0,0 0,0 -1125,0 0,0 0,0 0,0 0,1125 0,1125 0,1125 0,0 0,1126 0,1126 0,0 0,0 0,0l0 0zm0 -2251c0,0 0,0 0,-1126 0,0 1125,0 1125,0 0,0 0,1126 1126,1126 0,0 0,1125 0,1125 0,1126 0,1126 0,1126 -1126,1126 -1126,1126 -1126,1126 0,0 -1125,0 -1125,0 0,0 0,-1126 0,-1126l0 1126 1280191 0 0 -5628 -1280191 0 0 2251 0 0z"/>
</symbol>
<symbol id="Symbol4" viewBox="-637175 -641510 -371 -908">
 <path class="fil0" d="M-637175 638898l0 -1384 834 0 0 -1277737 -834 0 0 -373c1281207,154 1281075,263 1280943,329 -132,88 -285,110 -483,110 -308,0 -571,-132 -769,-373 -197,-264 -307,-571 -307,-967 0,-395 110,-724 307,1280329 198,-242 461,-373 769,-373 198,0 351,44 483,109 132,66 264,176 -1280943,330l0 0zm0 0c175,0 329,-66 417,-198 88,-132 132,-307 132,-549 0,-263 -44,-439 -132,-571 -88,-131 -242,-197 -417,-197 1281141,0 1281009,66 1280921,197 -88,132 -132,308 -132,571 0,242 44,417 132,549 88,132 220,198 -1280921,198z"/>
</symbol>
<symbol id="Symbol17" viewBox="-637175 -640766 -833 -1653">
 <path class="fil0" d="M-637175 638898l0 -2120 1271 0 0 -1275806 -1271 0 0 -424c1280892,0 1280892,424 1280469,424 0,0 -424,424 -424,424 -848,0 -1272,-424 -1272,-848 -424,-424 -424,-847 -424,-1271 0,-848 0,-1272 424,1279621 0,-424 424,-424 1272,-424 0,0 424,0 424,0 423,0 423,424 -1280469,424l0 0zm0 0c0,0 424,0 424,0 0,-424 423,-848 423,-848 0,-424 -423,-848 -423,-1272 0,0 -424,0 -424,0 1280892,0 1280469,0 1280469,0 0,424 0,848 0,1272 0,0 0,424 0,848 0,0 423,0 -1280469,0z"/>
</symbol>
<symbol id="Symbol39" viewBox="504369 -352541 1286 5628">
 <path class="fil0" d="M504369 -350933l1286 0 0 4020 -1286 0 0 -4020zm0 -1608l1286 0 0 1125 -1286 0 0 -1125z"/>
</symbol>
<symbol id="Symbol44" viewBox="-637175 -290473 -1126 5628">
 <path class="fil0" d="M-637175 -287097l0 2252 1280191 0 0 -2252c0,0 0,0 0,0 0,-1125 0,-1125 0,-1125 0,0 0,0 0,0 0,0 -1126,0 -1126,0 0,0 0,0 0,0 0,1125 0,1125 0,1125l0 2252 -1125 0 0 -5628 1125 0 0 2251c0,0 0,0 0,-1126 0,0 1126,0 1126,0 0,0 0,0 -1280191,1126 0,0 0,0 0,1125l0 0z"/>
</symbol>
<symbol id="g" viewBox="3119 -2164 27 36">
 <path class="fil0" d="M3132 -2134c2,0 3,-1 4,-2 1,-1 1,-3 1,-5 0,-3 0,-5 -1,-6 -1,-1 -2,-2 -4,-2 -2,0 -3,1 -4,2 -1,1 -1,3 -1,6 0,2 0,4 1,5 1,1 2,2 4,2l0 0zm-5 -16c1,-2 2,-3 3,-4 2,0 3,-1 5,-1 3,0 6,2 8,4 2,3 3,6 3,10 0,3 -1,7 -3,9 -2,3 -5,4 -8,4 -2,0 -3,-1 -5,-1 -1,-1 -2,-2 -3,-3l0 3 -8 0 0 -35 8 0 0 14z"/>
</symbol>
<symbol id="Symbol9" viewBox="-637175 -640663 2956 -1756">
 <path class="fil0" d="M-637175 638898l822 0 711 -1279561 600 1279561 823 0 -1089 -1278472c-111,289 -245,489 -378,623 -156,111 -356,155 -600,155l-467 0 0 -533 244 0c156,0 245,-22 312,-67 66,-44 111,-133 155,-244l22 -67 -1155 1278605 0 0z"/>
</symbol>
<symbol id="Symbol47" viewBox="526162 -355255 4662 5628">
 <path class="fil0" d="M526162 -355255l1285 0 1126 2738 965 -2738 1286 0 -1765 4502c-159,319 -327,646 -486,806 -320,320 -639,320 -966,320l-799 0 0 -807 479 0c160,0 320,0 487,-159 0,0 160,-160 160,-320l0 -159 -1772 -4183 0 0 0 0z"/>
</symbol>
<symbol id="Symbol52" viewBox="-637175 -290473 1126 5628">
 <path class="fil0" d="M-637175 -289348l1125 0 0 4503 -1125 0 0 -4503zm0 -1125l1125 0 0 1125 -1125 0 0 -1125z"/>
</symbol>
<symbol id="Symbol62" viewBox="-637175 -468148 -1833 7330">
 <path class="fil0" d="M-637175 -464483c0,0 0,0 0,0 1279484,0 1279484,1833 1279484,1833 0,0 0,0 -1279484,0 0,0 0,0 0,0 0,0 0,0 0,0 1832,0 1832,0 1832,-1833l0 0 -1832 0zm0 0l0 3665 1279484 0 0 -1832c-1833,0 -1833,1832 -1833,1832 0,0 0,0 -1832,0 0,0 0,0 0,0 -1833,-1832 -1833,-1832 -1833,-1832 0,-1833 0,-1833 1833,-1833 0,0 0,0 1832,0l1833 0 0 0c0,-1832 0,-1832 -1833,-1832 0,0 0,0 0,0 0,0 -1832,0 -1832,0 0,0 0,0 0,0l0 0c0,-1833 0,-1833 0,-1833 1832,0 1832,0 1832,0 1833,0 1833,0 1833,1833 -1279484,0 -1279484,0 -1279484,1832l0 0z"/>
</symbol>
<symbol id="c" viewBox="3117 -2164 27 36">
 <path class="fil0" d="M3136 -2150l0 -14 8 0 0 35 -8 0 0 -3c-1,1 -3,2 -4,3 -1,0 -3,1 -5,1 -3,0 -5,-1 -7,-4 -2,-2 -3,-6 -3,-9 0,-4 1,-7 3,-10 2,-2 4,-4 7,-4 2,0 4,1 5,1 1,1 3,2 4,4l0 0zm-6 16c2,0 3,-1 4,-2 1,-1 2,-3 2,-5 0,-3 -1,-5 -2,-6 -1,-1 -2,-2 -4,-2 -1,0 -3,1 -4,2 0,1 -1,3 -1,6 0,2 1,4 1,5 1,1 3,2 4,2z"/>
</symbol>
<symbol id="Symbol20" viewBox="-637175 -641868 -551 -551">
 <path class="fil0" d="M-637175 638898l0 0 1277459 0c0,-1280766 0,-1280215 0,-1280215 551,0 551,551 1102,551 551,0 551,-551 1102,-551 551,0 551,0 1102,-551l0 1653c-551,0 -551,0 -1102,0 -551,0 -551,551 -1102,551 -1102,0 -1653,-551 -2204,-1102 -551,-551 -1102,-1102 -1102,1279664 0,-1102 551,-1653 1102,-2204 551,-551 1102,-551 2204,-551 551,0 1102,0 1653,551 551,551 -1280214,1102 -1280214,2204l0 0 0 0zm0 0c0,-551 1280765,-1102 1280765,-1102 0,0 -551,0 -551,0 -551,0 -551,0 -1102,0 0,0 0,551 0,1102l-1279112 0z"/>
</symbol>
<symbol id="Symbol21" viewBox="-637175 -642419 -424 0">
 <path class="fil0" d="M-637175 638898c424,0 424,0 424,0 423,0 423,-424 423,-424 0,-424 0,-424 -423,-848 0,0 0,0 -424,0l1280892 0 0 1272 -1280892 0zm0 0l0 -1279621 1279621 0 0 1276230 -1279197 0c847,0 1271,0 1695,424 424,0 424,424 424,847 0,424 0,848 -424,848 0,424 -424,424 -424,424 0,0 424,424 424,424 0,0 424,-1280893 424,-1280469l848 1272 -1696 0 -424 -1272c-424,0 -424,-424 -424,-424 -423,0 -423,0 -847,0l0 0 0 1281317z"/>
</symbol>
<symbol id="Symbol41" viewBox="-637175 -289348 0 5628">
 <path class="fil0" d="M-637175 -289348l1125 0 1126 3377 1125 -3377 1126 0 -1126 4503c-1125,0 -1125,1125 -1125,1125 0,0 0,0 -1126,0l0 0 0 -1125 0 0c0,0 0,0 0,0 0,0 1126,0 1126,0l0 0 1279065 -4503 -1281316 0z"/>
</symbol>
<symbol id="Symbol50" viewBox="-637175 -281593 -1100 4398">
 <path class="fil0" d="M-637175 -280493c0,0 0,0 0,0 0,-1100 1099,-1100 1099,-1100 0,0 0,0 1100,1100 0,0 0,0 0,1099l0 2199 -1100 0 0 -2199c0,0 0,0 0,0 0,0 0,0 0,0 0,0 0,-1099 0,-1099 0,0 0,0 -1099,0 0,0 0,0 0,0 0,1099 0,1099 0,1099l0 2199 1280217 0 0 -2199c0,0 0,-1099 0,-1099 0,0 -1100,0 -1100,0 0,0 0,0 0,0 0,1099 0,1099 0,1099l0 2199 -1099 0 0 -4398 1099 0 0 1100c0,0 0,0 0,-1100 0,0 0,0 1100,0 0,0 0,0 0,1100 0,0 -1280217,0 -1280217,0l0 0 0 0z"/>
</symbol>
<symbol id="e" viewBox="3117 -2155 27 26">
 <path class="fil0" d="M3144 -2142l0 3 -19 0c0,2 1,3 2,4 1,1 3,1 5,1 1,0 3,0 5,0 2,-1 4,-2 5,-3l0 7c-1,0 -3,1 -5,1 -2,1 -4,1 -6,1 -5,0 -8,-1 -11,-4 -2,-2 -3,-5 -3,-9 0,-5 1,-8 3,-10 3,-2 6,-4 11,-4 4,0 7,2 9,4 2,2 4,6 4,9l0 0zm-9 -2c0,-2 0,-3 -1,-4 -1,-1 -2,-1 -3,-1 -2,0 -3,0 -4,1 -1,1 -2,2 -2,4l10 0z"/>
</symbol>
<symbol id="Symbol2" viewBox="-637175 -642360 -178 -59">
 <path class="fil0" d="M-637175 638898c1281079,0 1280901,-1281258 1280783,-1281198 -119,89 -178,207 -178,355 0,149 59,267 148,326 89,89 237,119 386,119 -1281110,0 -1280932,-59 -1280784,-208 148,-148 208,-355 208,-563l0 1281169 -563 0zm0 0l0 -1279331 1280190 0 0 -504c-148,207 -296,356 -504,445 -177,118 -415,148 -681,148 -356,0 -652,-89 -860,-297 -237,-237 -355,-503 -355,-829 0,-415 148,-712 444,-890 267,1281110 711,1281021 1304,1281021l652 0 0 -89c0,-178 -59,-297 -207,-385 -119,-89 -356,-119 -652,-119 -237,0 -445,30 -652,59 -208,60 -386,119 -563,237l0 -859c237,-59 474,-119 711,-119 237,-29 474,-59 711,-59 623,0 1097,119 1363,385 267,237 -1280901,623 -1280901,1186l0 0 0 0z"/>
</symbol>
<symbol id="Symbol6" viewBox="-637175 -642039 0 -380">
 <path class="fil0" d="M-637175 638898l0 -1279729 1280467 0 0 -1208c0,-246 0,1280914 0,1280847 -23,-89 -23,-156 -68,-201 -22,-45 -67,-89 -111,-134 -67,-22 -135,-45 -202,-45 -179,0 -313,67 -425,201 -89,135 -134,-1280981 -134,-1280757l0 1297 -850 0 0 1277671 850 0 0 1409c112,-156 246,-268 403,-335 134,-67 291,-112 469,-112 291,0 537,89 694,268 156,202 223,470 223,828l0 0 -1281316 0z"/>
</symbol>
<symbol id="Symbol14" viewBox="-637175 -641868 -551 -551">
 <path class="fil0" d="M-637175 638898c0,0 0,0 1280765,0 0,0 0,0 0,0 -551,0 -1102,0 -1102,-1280766 -551,0 -551,551 -551,1102l0 2204 -1653 0 0 1276358 1653 0 0 551c551,0 551,-551 1102,-551 0,0 551,0 551,0 0,0 -1280765,0 -1280765,0 0,0 0,0 0,0l0 1102z"/>
</symbol>
<symbol id="j" viewBox="3119 -2162 30 34">
 <polygon class="fil0" points="3119,-2162 3128,-2162 3128,-2150 3140,-2150 3140,-2162 3149,-2162 3149,-2129 3140,-2129 3140,-2143 3128,-2143 3128,-2129 3119,-2129 "/>
</symbol>
<symbol id="Symbol13" viewBox="-637175 -641726 850 -693">
 <path class="fil0" d="M-637175 638898l849 0 0 -1278700 -849 0 0 1278700zm0 0l849 0 0 -1280624 -849 0 0 1280624z"/>
</symbol>
<symbol id="Symbol29" viewBox="502359 -352381 4502 5628">
 <path class="fil0" d="M506861 -347235c-161,161 -482,322 -643,322 -322,160 -643,160 -965,160 -804,0 -1608,-321 -2090,-804 -483,-482 -804,-1125 -804,-2090 0,-804 321,-1447 804,-1930 482,-482 1286,-804 2090,-804 322,0 643,0 965,161 161,0 482,161 643,161l0 1126c-161,-161 -482,-161 -643,-322 -322,-161 -482,-161 -804,-161 -482,0 -965,161 -1126,483 -321,321 -482,804 -482,1286 0,643 161,1126 482,1447 161,322 644,483 1126,483 322,0 482,-161 804,-161 161,-161 482,-322 643,-483l0 1126 0 0z"/>
</symbol>
<symbol id="Symbol49" viewBox="-637175 -479197 -1876 7504">
 <path class="fil0" d="M-637175 -477321c0,0 0,0 0,0 0,0 0,0 1279440,0 0,0 0,0 0,0 0,1876 0,1876 0,1876l0 3752 -1876 0 0 -7504 1876 0 0 1876c0,0 0,0 0,-1876 0,0 0,0 -1279440,0 0,0 0,0 0,0 0,0 0,0 0,0l0 1876z"/>
</symbol>
 <g id="Layer_x0020_1">
  <metadata id="CorelCorpID_0Corel-Layer"/>
  <path class="fil1 str0" d="M4182 3687l-2866 0c-354,0 -433,64 -433,352l0 226 3732 0c0,-420 55,-578 -433,-578z"/>
  <path class="fil2 str0" d="M4182 3687l-2866 0c-354,0 -433,64 -433,352l0 226 3732 0c0,-420 55,-578 -433,-578z"/>
  <path class="fil3 str0" d="M4615 4351l-3732 0c0,230 36,188 298,188l3145 0c258,0 289,37 289,-188z"/>
  <polygon class="fil3 str0" points="1268,4633 1268,5313 1441,5313 1441,4633 "/>
  <polygon class="fil3 str0" points="4057,4633 4057,5313 4230,5313 4230,4633 "/>
  <polygon class="fil4 str0" points="556,2995 556,3352 1076,3352 1076,2995 "/>
  <polygon class="fil4 str0" points="4422,2995 4422,3352 4942,3352 4942,2995 "/>
  <path class="fil5 str0" d="M1191 1557c2,352 0,705 0,1057 57,0 96,-16 137,34 15,47 17,296 -6,331 -29,31 -91,16 -131,16l0 603 0 0 0 3 3135 0 0 -3 -2 0 -17 -603c-40,0 -102,15 -131,-16 -23,-35 -21,-284 -6,-331 40,-50 80,-34 137,-34 0,-356 -3,-714 0,-1069 2,-289 -69,-559 -219,-777 -353,-515 -857,-403 -1339,-403 -480,0 -997,-113 -1343,409 -153,230 -217,483 -215,783z"/>
 </g>
 <g id="Layer_x0020_1_0">
  <metadata id="CorelCorpID_1Corel-Layer"/>
  <g id="_2134733622400">
   <path class="fil0" d="M4057 4633l173 0 0 680 -173 0 0 -680zm-2982 -1035l116 0 0 3 3135 0 0 -3 98 0 0 9c43,24 98,28 163,71 173,113 133,309 133,478 0,90 22,303 -19,375 -66,121 -216,102 -356,102 0,130 0,260 0,391 0,81 29,317 -26,369 -7,3 -23,4 -44,6l-251 0c-31,-2 -55,-5 -63,-8 -28,-48 -10,-654 -10,-758l-2404 0c0,104 17,710 -10,758 -9,3 -33,6 -64,8l-251 0c-21,-2 -36,-3 -44,-6 -55,-52 -26,-288 -26,-369 0,-131 0,-261 0,-391 -144,0 -293,19 -359,-107 -34,-65 -16,-294 -16,-378 0,-110 -20,-268 35,-363 83,-143 194,-141 263,-178l0 -9zm193 1035l173 0 0 680 -173 0 0 -680zm-385 -282l3732 0c0,225 -31,188 -289,188l-3145 0c-262,0 -298,42 -298,-188zm0 -312c0,-288 79,-352 433,-352l-106 0c991,0 1981,0 2972,0 488,0 433,158 433,578l-3732 0 0 -226 0 0z"/>
   <path class="fil0" d="M4423 3598l-99 0 -17 -603c-40,0 -102,15 -131,-16 -23,-35 -21,-284 -6,-331 40,-50 80,-34 137,-34 0,-356 -3,-714 0,-1069 2,-289 -69,-559 -219,-777 -353,-515 -857,-403 -1339,-403 -480,0 -997,-113 -1343,409 -153,230 -217,483 -215,783 2,352 0,705 0,1057 57,0 96,-16 137,34 15,47 17,296 -6,331 -29,31 -91,16 -131,16l0 603 -116 0 1 -111 -609 -9c-35,-77 -17,-371 -17,-482l-128 -9c-43,-65 -39,-262 -14,-345 74,-65 636,-28 768,-28 0,-342 -20,-796 4,-1124 26,-338 70,-553 248,-815 212,-313 464,-416 736,-446l685 0 686 0c271,30 523,133 735,446 178,262 222,477 247,815 25,328 5,782 5,1124l48 0c1,-110 -22,-246 -20,-357 3,-144 124,-98 222,-98 7,-90 20,-194 28,-285 16,-202 -2,-150 228,-346 58,-50 97,-115 156,-29 7,93 -155,202 -213,250 -77,62 -57,62 -67,173 -7,74 -16,160 -16,237l186 9c44,69 6,302 6,446 66,0 158,-20 209,28 28,82 29,282 -13,351l-128 2c0,112 18,406 -17,491l-609 1 1 111 0 0zm-1 -603l520 0 0 357 -520 0 0 -357zm-3866 0l520 0 0 357 -520 0 0 -357zm3713 -233l817 0 0 98 -817 0 0 -98zm-3857 0l817 0 0 98 -817 0 0 -98zm4150 -468l322 1 -17 319 -291 0 -14 -320 0 0z"/>
  </g>
  <rect class="fil6" width="5498" height="5628"/>
 </g>
</svg>
