<?xml version="1.0" encoding="UTF-8"?>
<!DOCTYPE svg PUBLIC "-//W3C//DTD SVG 1.1//EN" "http://www.w3.org/Graphics/SVG/1.1/DTD/svg11.dtd">
<!-- Creator: CorelDRAW X7 -->
<svg xmlns="http://www.w3.org/2000/svg" xml:space="preserve" width="6966px" height="7130px" version="1.1" style="shape-rendering:geometricPrecision; text-rendering:geometricPrecision; image-rendering:optimizeQuality; fill-rule:evenodd; clip-rule:evenodd"
viewBox="0 0 5498 5628"
 xmlns:xlink="http://www.w3.org/1999/xlink">
 <defs>
  <style type="text/css">
   <![CDATA[
    .str0 {stroke:#373435;stroke-width:0.526254}
    .fil6 {fill:none}
    .fil0 {fill:black}
    .fil1 {fill:black}
    .fil3 {fill:#1A1A1A}
    .fil2 {fill:#663333}
    .fil4 {fill:#663333}
    .fil5 {fill:#E6E6E6}
   ]]>
  </style>
 </defs>
<symbol id="h" viewBox="3119 -2155 19 26">
 <path class="fil0" d="M3137 -2147c0,-1 -1,-1 -2,-1 -1,0 -1,0 -2,0 -2,0 -4,1 -5,2 -1,1 -1,3 -1,6l0 11 -8 0 0 -25 8 0 0 4c1,-2 2,-3 3,-4 1,0 3,-1 5,-1 0,0 1,0 1,0 0,0 1,0 1,1l0 7z"/>
</symbol>
<symbol id="a" viewBox="3117 -2155 25 26">
 <path class="fil0" d="M3130 -2140c-2,0 -3,0 -4,1 -1,0 -1,1 -1,2 0,1 0,2 1,3 0,0 1,0 3,0 1,0 2,0 3,-1 1,-1 2,-3 2,-4l0 -1 -4 0zm12 -3l0 14 -8 0 0 -4c-1,2 -2,3 -4,4 -1,0 -3,1 -5,1 -2,0 -4,-1 -6,-2 -2,-2 -2,-4 -2,-6 0,-3 1,-6 3,-7 2,-1 5,-2 9,-2l5 0 0 -1c0,-1 -1,-2 -2,-2 -1,-1 -2,-1 -4,-1 -2,0 -4,0 -5,0 -2,1 -3,1 -4,2l0 -6c2,-1 3,-1 5,-1 2,-1 3,-1 5,-1 5,0 8,1 10,3 2,2 3,5 3,9l0 0z"/>
</symbol>
<symbol id="Symbol2" viewBox="-637175 -642360 -178 -59">
 <path class="fil0" d="M-637175 638898c1281079,0 1280901,-1281258 1280783,-1281198 -119,89 -178,207 -178,355 0,149 59,267 148,326 89,89 237,119 386,119 -1281110,0 -1280932,-59 -1280784,-208 148,-148 208,-355 208,-563l0 1281169 -563 0zm0 0l0 -1279331 1280190 0 0 -504c-148,207 -296,356 -504,445 -177,118 -415,148 -681,148 -356,0 -652,-89 -860,-297 -237,-237 -355,-503 -355,-829 0,-415 148,-712 444,-890 267,1281110 711,1281021 1304,1281021l652 0 0 -89c0,-178 -59,-297 -207,-385 -119,-89 -356,-119 -652,-119 -237,0 -445,30 -652,59 -208,60 -386,119 -563,237l0 -859c237,-59 474,-119 711,-119 237,-29 474,-59 711,-59 623,0 1097,119 1363,385 267,237 -1280901,623 -1280901,1186l0 0 0 0z"/>
</symbol>
<symbol id="Symbol3" viewBox="-637175 -642239 -492 -180">
 <path class="fil0" d="M-637175 638898c1281159,-1281249 1280979,-1281182 1280799,-1281137 -180,45 -383,68 -563,68 -585,0 -1057,-158 -1395,1280821 -360,-315 -517,-765 -517,-1327 0,-563 157,-1013 517,-1328 338,-337 810,-495 1395,-495 180,0 383,23 563,68 180,45 360,112 -1280799,202l0 720c1281136,-112 1280979,-202 1280821,-247 -157,-68 -337,-90 -517,-90 -315,0 -585,112 -765,315 -180,202 -270,495 -270,855 0,360 90,652 270,855 180,202 450,315 765,315 180,0 360,-23 517,-90 158,-45 315,-135 -1280821,-248l0 743z"/>
</symbol>
<symbol id="Symbol4" viewBox="-637175 -641510 -371 -908">
 <path class="fil0" d="M-637175 638898l0 -1384 834 0 0 -1277737 -834 0 0 -373c1281207,154 1281075,263 1280943,329 -132,88 -285,110 -483,110 -308,0 -571,-132 -769,-373 -197,-264 -307,-571 -307,-967 0,-395 110,-724 307,1280329 198,-242 461,-373 769,-373 198,0 351,44 483,109 132,66 264,176 -1280943,330l0 0zm0 0c175,0 329,-66 417,-198 88,-132 132,-307 132,-549 0,-263 -44,-439 -132,-571 -88,-131 -242,-197 -417,-197 1281141,0 1281009,66 1280921,197 -88,132 -132,308 -132,571 0,242 44,417 132,549 88,132 220,198 -1280921,198z"/>
</symbol>
<symbol id="Symbol11" viewBox="-637175 -641497 -415 -922">
 <path class="fil0" d="M-637175 638898c175,0 307,-66 395,-198 88,-132 132,-307 132,-549 0,-263 -44,-439 -132,-571 -88,-131 -220,-197 -395,-197 1281141,0 1281009,66 1280899,197 -88,132 -132,308 -132,571 0,242 44,417 132,549 110,132 242,198 -1280899,198l0 0zm0 0c109,-154 241,-264 373,-330 132,-65 285,-109 483,-109 308,0 571,131 769,373 219,-1281053 307,-1280724 307,-1280329 0,396 -88,703 -307,967 -198,241 -461,373 -769,373 -198,0 -351,-22 -483,-110 -132,-66 -264,-175 -373,-329l0 373 1280482 0 0 1277737 -1280482 0 0 1384z"/>
</symbol>
<symbol id="Symbol12" viewBox="-637175 -642419 -406 0">
 <path class="fil0" d="M-637175 638898c146,-205 292,-352 497,-469 176,-117 410,-175 615,-175 410,0 703,117 908,351 205,264 322,-1280702 322,-1280233l0 2079 -1113 0 0 -1786c0,-30 0,-59 0,-88 0,-30 0,-59 0,-117 0,-235 -29,-410 -87,-527 -88,-118 -205,-176 -352,-176 -205,0 -380,88 -498,263 -117,176 -175,410 -175,762l0 1669 1280233 0 0 -1786c0,-381 -58,-615 -117,-732 -59,-118 -176,-176 -351,-176 -205,0 -352,88 -469,263 -117,176 -176,410 -176,732l0 1699 -1112 0 0 1277891 1112 0 0 497c118,-205 293,-351 469,-439 176,-88 351,-146 556,-146 234,0 469,58 644,175 176,117 323,264 -1280906,-1280848l0 0 0 1281317z"/>
</symbol>
<symbol id="m" viewBox="3117 -2163 29 35">
 <path class="fil0" d="M3145 -2131c-1,1 -3,2 -4,2 -2,1 -4,1 -6,1 -5,0 -10,-2 -13,-5 -3,-3 -5,-7 -5,-13 0,-5 2,-9 5,-12 3,-3 8,-5 13,-5 2,0 4,0 6,1 1,0 3,1 4,1l0 7c-1,-1 -3,-1 -4,-2 -2,-1 -3,-1 -5,-1 -3,0 -6,1 -7,3 -2,2 -3,5 -3,8 0,4 1,7 3,9 1,2 4,3 7,3 2,0 3,-1 5,-1 1,-1 3,-2 4,-3l0 7z"/>
</symbol>
<symbol id="c" viewBox="3117 -2164 27 36">
 <path class="fil0" d="M3136 -2150l0 -14 8 0 0 35 -8 0 0 -3c-1,1 -3,2 -4,3 -1,0 -3,1 -5,1 -3,0 -5,-1 -7,-4 -2,-2 -3,-6 -3,-9 0,-4 1,-7 3,-10 2,-2 4,-4 7,-4 2,0 4,1 5,1 1,1 3,2 4,4l0 0zm-6 16c2,0 3,-1 4,-2 1,-1 2,-3 2,-5 0,-3 -1,-5 -2,-6 -1,-1 -2,-2 -4,-2 -1,0 -3,1 -4,2 0,1 -1,3 -1,6 0,2 1,4 1,5 1,1 3,2 4,2z"/>
</symbol>
<symbol id="j" viewBox="3119 -2162 30 34">
 <polygon class="fil0" points="3119,-2162 3128,-2162 3128,-2150 3140,-2150 3140,-2162 3149,-2162 3149,-2129 3140,-2129 3140,-2143 3128,-2143 3128,-2129 3119,-2129 "/>
</symbol>
<symbol id="Symbol10" viewBox="-637175 -642419 -676 0">
 <path class="fil0" d="M-637175 638898l0 -1280496 941 0 0 652 -941 0 0 1183c0,145 24,241 72,265 73,49 169,73 314,73l483 0 0 651 -797 0c1280979,0 1280713,-72 1280568,-217 -144,-145 -217,-410 -217,-772l0 -1183 -459 0 0 -652 459 0 0 -821 -1280423 0 0 1281317z"/>
</symbol>
<symbol id="l" viewBox="3119 -2164 25 35">
 <path class="fil0" d="M3144 -2144l0 15 -8 0 0 -12c0,-2 0,-3 0,-4 -1,-1 -1,-2 -1,-2 0,0 -1,-1 -1,-1 -1,0 -1,-1 -2,-1 -2,0 -3,1 -4,2 -1,2 -1,3 -1,6l0 12 -8 0 0 -35 8 0 0 14c1,-2 2,-3 3,-4 2,0 3,-1 5,-1 3,0 5,1 7,3 1,2 2,4 2,8l0 0z"/>
</symbol>
<symbol id="Symbol7" viewBox="-637175 -642389 -148 -30">
 <path class="fil0" d="M-637175 638898l0 -1280991 1278738 0c30,267 119,445 267,593 178,118 385,178 681,178 237,0 475,-30 712,-89 266,-89 503,-178 770,-326l0 859c-267,89 -533,178 -800,237 -267,30 -533,60 -771,60 -652,0 -1126,-149 -1481,-475 -356,-326 -534,-770 -534,-1333 0,1280724 178,1280279 534,1279953 326,-326 800,-474 1393,-474 563,0 1007,178 1333,504 326,326 -1280842,770 -1280842,1304l0 0 0 0zm0 0c0,-208 1281257,-385 1281139,-534 -149,-118 -297,-177 -504,-177 -208,0 -386,59 -504,177 -148,119 -237,297 -267,534l-1279864 0 0 0z"/>
</symbol>
<symbol id="e" viewBox="3117 -2155 27 26">
 <path class="fil0" d="M3144 -2142l0 3 -19 0c0,2 1,3 2,4 1,1 3,1 5,1 1,0 3,0 5,0 2,-1 4,-2 5,-3l0 7c-1,0 -3,1 -5,1 -2,1 -4,1 -6,1 -5,0 -8,-1 -11,-4 -2,-2 -3,-5 -3,-9 0,-5 1,-8 3,-10 3,-2 6,-4 11,-4 4,0 7,2 9,4 2,2 4,6 4,9l0 0zm-9 -2c0,-2 0,-3 -1,-4 -1,-1 -2,-1 -3,-1 -2,0 -3,0 -4,1 -1,1 -2,2 -2,4l10 0z"/>
</symbol>
<symbol id="f" viewBox="3119 -2162 30 34">
 <path class="fil0" d="M3131 -2148c2,0 3,0 4,-1 1,0 1,-1 1,-3 0,-1 0,-2 -1,-3 -1,-1 -2,-1 -4,-1l-3 0 0 8 3 0zm-3 6l0 13 -9 0 0 -33 13 0c5,0 8,0 10,2 2,1 3,4 3,7 0,2 -1,4 -2,5 -1,2 -2,3 -5,3 2,1 3,1 4,2 1,1 2,3 2,5l5 9 -9 0 -4 -8c-1,-2 -2,-3 -3,-4 0,0 -2,-1 -3,-1l-2 0z"/>
</symbol>
<symbol id="Symbol8" viewBox="-637175 -642419 0 0">
 <path class="fil0" d="M-637175 638898c210,0 350,-24 420,-117 94,-70 140,-187 140,-350 0,-164 -46,-281 -140,-351 -70,-70 -210,-117 -420,-117l1280919 0 0 -1280382 -1280919 0 0 1281317zm0 0l0 -1279938 1280382 0 0 1277671 -1279868 0c467,0 818,70 1051,234 211,163 327,421 327,771 0,234 -46,444 -163,584 -117,164 -304,281 -538,351 141,23 257,93 351,210 93,93 210,-1281060 304,-1280849l514 1028 -1005 0 -444 -911c-93,-187 -187,-304 -280,-374 -94,-70 -211,-94 -351,-94l1281036 0 -1281316 1281317z"/>
</symbol>
<symbol id="b" viewBox="3115 -2154 29 35">
 <path class="fil0" d="M3115 -2154l8 0 7 17 6 -17 8 0 -11 28c-1,2 -2,4 -3,5 -2,2 -4,2 -6,2l-5 0 0 -5 3 0c1,0 2,0 3,-1 0,0 1,-1 1,-2l0 -1 -11 -26z"/>
</symbol>
<symbol id="Symbol5" viewBox="644141 638898 0 0">
 <polygon class="fil0" points="-637175,638898 -637175,638898 -637175,638898 -637175,638898 -637175,638898 -637175,638898 -637175,638898 -637175,638898 -637175,638898 -637175,638898 -637175,638898 "/>
</symbol>
<symbol id="Symbol6" viewBox="-637175 -642039 0 -380">
 <path class="fil0" d="M-637175 638898l0 -1279729 1280467 0 0 -1208c0,-246 0,1280914 0,1280847 -23,-89 -23,-156 -68,-201 -22,-45 -67,-89 -111,-134 -67,-22 -135,-45 -202,-45 -179,0 -313,67 -425,201 -89,135 -134,-1280981 -134,-1280757l0 1297 -850 0 0 1277671 850 0 0 1409c112,-156 246,-268 403,-335 134,-67 291,-112 469,-112 291,0 537,89 694,268 156,202 223,470 223,828l0 0 -1281316 0z"/>
</symbol>
<symbol id="Symbol13" viewBox="-637175 -641726 850 -693">
 <path class="fil0" d="M-637175 638898l849 0 0 -1278700 -849 0 0 1278700zm0 0l849 0 0 -1280624 -849 0 0 1280624z"/>
</symbol>
<symbol id="d" viewBox="3115 -2161 20 32">
 <path class="fil0" d="M3127 -2161l0 7 9 0 0 6 -9 0 0 10c0,2 1,2 1,3 0,0 1,0 3,0l4 0 0 6 -7 0c-3,0 -5,-1 -7,-2 -1,-1 -2,-3 -2,-7l0 -10 -4 0 0 -6 4 0 0 -7 8 0z"/>
</symbol>
<symbol id="g" viewBox="3119 -2164 27 36">
 <path class="fil0" d="M3132 -2134c2,0 3,-1 4,-2 1,-1 1,-3 1,-5 0,-3 0,-5 -1,-6 -1,-1 -2,-2 -4,-2 -2,0 -3,1 -4,2 -1,1 -1,3 -1,6 0,2 0,4 1,5 1,1 2,2 4,2l0 0zm-5 -16c1,-2 2,-3 3,-4 2,0 3,-1 5,-1 3,0 6,2 8,4 2,3 3,6 3,10 0,3 -1,7 -3,9 -2,3 -5,4 -8,4 -2,0 -3,-1 -5,-1 -1,-1 -2,-2 -3,-3l0 3 -8 0 0 -35 8 0 0 14z"/>
</symbol>
<symbol id="k" viewBox="3118 -2155 41 26">
 <path class="fil0" d="M3142 -2150c1,-1 2,-3 3,-3 2,-1 3,-2 5,-2 3,0 5,1 7,3 1,2 2,4 2,8l0 15 -8 0 0 -13c0,0 0,0 0,-1 0,0 0,0 0,0 0,-2 0,-4 -1,-4 0,-1 -1,-2 -2,-2 -2,0 -3,1 -4,2 -1,2 -1,3 -1,6l0 12 -8 0 0 -13c0,-3 -1,-5 -1,-5 -1,-1 -1,-2 -3,-2 -1,0 -2,1 -3,2 -1,2 -1,3 -1,6l0 12 -9 0 0 -25 9 0 0 4c1,-2 2,-3 3,-4 1,0 3,-1 4,-1 2,0 3,1 5,2 1,0 2,2 3,3l0 0z"/>
</symbol>
<symbol id="Symbol1" viewBox="-637175 -642267 0 -152">
 <path class="fil0" d="M-637175 638898c1281225,-61 1281134,-91 1281043,-122 -122,0 -213,-30 -304,-30 -304,0 -516,91 -668,-1281013 -182,182 -243,456 -243,790l0 1640 -1154 0 0 1277763 1154 0 0 577c152,-243 304,-395 486,-516 213,-92 425,-152 699,-152 30,0 60,0 121,0 30,0 122,0 182,30l0 1033 -1281316 0z"/>
</symbol>
<symbol id="i" viewBox="3119 -2164 8 35">
 <path class="fil0" d="M3119 -2154l8 0 0 25 -8 0 0 -25zm0 -10l8 0 0 7 -8 0 0 -7z"/>
</symbol>
<symbol id="Symbol9" viewBox="-637175 -640663 2956 -1756">
 <path class="fil0" d="M-637175 638898l822 0 711 -1279561 600 1279561 823 0 -1089 -1278472c-111,289 -245,489 -378,623 -156,111 -356,155 -600,155l-467 0 0 -533 244 0c156,0 245,-22 312,-67 66,-44 111,-133 155,-244l22 -67 -1155 1278605 0 0z"/>
</symbol>
 <g id="Layer_x0020_1">
  <metadata id="CorelCorpID_0Corel-Layer"/>
  <path class="fil1 str0" d="M4182 3687l-2866 0c-354,0 -433,64 -433,352l0 226 3732 0c0,-420 55,-578 -433,-578z"/>
  <path class="fil2 str0" d="M4182 3687l-2866 0c-354,0 -433,64 -433,352l0 226 3732 0c0,-420 55,-578 -433,-578z"/>
  <path class="fil3 str0" d="M4615 4351l-3732 0c0,230 36,188 298,188l3145 0c258,0 289,37 289,-188z"/>
  <polygon class="fil3 str0" points="1268,4633 1268,5313 1441,5313 1441,4633 "/>
  <polygon class="fil3 str0" points="4057,4633 4057,5313 4230,5313 4230,4633 "/>
  <polygon class="fil4 str0" points="556,2995 556,3352 1076,3352 1076,2995 "/>
  <polygon class="fil4 str0" points="4422,2995 4422,3352 4942,3352 4942,2995 "/>
  <path class="fil5 str0" d="M1191 1557c2,352 0,705 0,1057 57,0 96,-16 137,34 15,47 17,296 -6,331 -29,31 -91,16 -131,16l0 603 0 0 0 3 3135 0 0 -3 -2 0 -17 -603c-40,0 -102,15 -131,-16 -23,-35 -21,-284 -6,-331 40,-50 80,-34 137,-34 0,-356 -3,-714 0,-1069 2,-289 -69,-559 -219,-777 -353,-515 -857,-403 -1339,-403 -480,0 -997,-113 -1343,409 -153,230 -217,483 -215,783z"/>
 </g>
 <g id="Layer_x0020_1_0">
  <metadata id="CorelCorpID_1Corel-Layer"/>
  <g id="_2134733622400">
   <path class="fil0" d="M4057 4633l173 0 0 680 -173 0 0 -680zm-2982 -1035l116 0 0 3 3135 0 0 -3 98 0 0 9c43,24 98,28 163,71 173,113 133,309 133,478 0,90 22,303 -19,375 -66,121 -216,102 -356,102 0,130 0,260 0,391 0,81 29,317 -26,369 -7,3 -23,4 -44,6l-251 0c-31,-2 -55,-5 -63,-8 -28,-48 -10,-654 -10,-758l-2404 0c0,104 17,710 -10,758 -9,3 -33,6 -64,8l-251 0c-21,-2 -36,-3 -44,-6 -55,-52 -26,-288 -26,-369 0,-131 0,-261 0,-391 -144,0 -293,19 -359,-107 -34,-65 -16,-294 -16,-378 0,-110 -20,-268 35,-363 83,-143 194,-141 263,-178l0 -9zm193 1035l173 0 0 680 -173 0 0 -680zm-385 -282l3732 0c0,225 -31,188 -289,188l-3145 0c-262,0 -298,42 -298,-188zm0 -312c0,-288 79,-352 433,-352l-106 0c991,0 1981,0 2972,0 488,0 433,158 433,578l-3732 0 0 -226 0 0z"/>
   <path class="fil0" d="M4423 3598l-99 0 -17 -603c-40,0 -102,15 -131,-16 -23,-35 -21,-284 -6,-331 40,-50 80,-34 137,-34 0,-356 -3,-714 0,-1069 2,-289 -69,-559 -219,-777 -353,-515 -857,-403 -1339,-403 -480,0 -997,-113 -1343,409 -153,230 -217,483 -215,783 2,352 0,705 0,1057 57,0 96,-16 137,34 15,47 17,296 -6,331 -29,31 -91,16 -131,16l0 603 -116 0 1 -111 -609 -9c-35,-77 -17,-371 -17,-482l-128 -9c-43,-65 -39,-262 -14,-345 74,-65 636,-28 768,-28 0,-342 -20,-796 4,-1124 26,-338 70,-553 248,-815 212,-313 464,-416 736,-446l685 0 686 0c271,30 523,133 735,446 178,262 222,477 247,815 25,328 5,782 5,1124l48 0c1,-110 -22,-246 -20,-357 3,-144 124,-98 222,-98 7,-90 20,-194 28,-285 16,-202 -2,-150 228,-346 58,-50 97,-115 156,-29 7,93 -155,202 -213,250 -77,62 -57,62 -67,173 -7,74 -16,160 -16,237l186 9c44,69 6,302 6,446 66,0 158,-20 209,28 28,82 29,282 -13,351l-128 2c0,112 18,406 -17,491l-609 1 1 111 0 0zm-1 -603l520 0 0 357 -520 0 0 -357zm-3866 0l520 0 0 357 -520 0 0 -357zm3713 -233l817 0 0 98 -817 0 0 -98zm-3857 0l817 0 0 98 -817 0 0 -98zm4150 -468l322 1 -17 319 -291 0 -14 -320 0 0z"/>
  </g>
  <rect class="fil6" width="5498" height="5628"/>
 </g>
</svg>
