<?xml version="1.0" encoding="UTF-8"?>
<!DOCTYPE svg PUBLIC "-//W3C//DTD SVG 1.1//EN" "http://www.w3.org/Graphics/SVG/1.1/DTD/svg11.dtd">
<!-- Creator: CorelDRAW X7 -->
<svg xmlns="http://www.w3.org/2000/svg" xml:space="preserve" width="8148px" height="6980px" version="1.1" style="shape-rendering:geometricPrecision; text-rendering:geometricPrecision; image-rendering:optimizeQuality; fill-rule:evenodd; clip-rule:evenodd"
viewBox="0 0 5966 5111"
 xmlns:xlink="http://www.w3.org/1999/xlink">
 <defs>
  <style type="text/css">
   <![CDATA[
    .str1 {stroke:#192F45;stroke-width:15.6198}
    .str0 {stroke:#373435;stroke-width:0.488154}
    .fil1 {fill:none}
    .fil0 {fill:black}
    .fil2 {fill:black}
    .fil5 {fill:#192F45}
    .fil6 {fill:#B9FAFA}
    .fil3 {fill:#FF6600}
    .fil4 {fill:white}
   ]]>
  </style>
 </defs>
<symbol id="a" viewBox="3734 -8646 24 25">
 <path class="fil0" d="M3746 -8633c-1,0 -2,1 -3,1 -1,1 -1,1 -1,2 0,1 0,2 1,3 0,0 1,0 2,0 2,0 3,0 4,-1 1,-1 1,-2 1,-4l0 -1 -4 0zm12 -3l0 14 -8 0 0 -4c-1,2 -2,3 -3,3 -1,1 -3,1 -5,1 -2,0 -4,0 -6,-2 -1,-1 -2,-3 -2,-5 0,-3 1,-5 3,-6 2,-1 5,-2 9,-2l4 0 0 -1c0,-1 0,-2 -1,-2 -1,-1 -3,-1 -5,-1 -1,0 -3,0 -4,0 -1,1 -3,1 -4,2l0 -6c2,0 3,-1 5,-1 2,0 3,0 5,0 4,0 7,1 9,2 2,2 3,5 3,8l0 0z"/>
</symbol>
<symbol id="Symbol28" viewBox="-590201 -443588 0 5421">
 <path class="fil0" d="M-590201 -440576c1188149,0 1187948,0 1187747,201 -200,0 -200,201 -200,401 0,201 0,402 200,603 0,0 201,0 603,0 -1188350,0 -1188150,0 -1187949,-201 201,-201 402,-602 402,-803l0 -201 -803 0zm0 -602l0 2811 1186944 0 0 -803c-201,401 -401,602 -803,803 -201,0 -602,201 -1004,201 -402,0 -803,-201 -1205,-402 -401,-402 -401,-803 -401,-1205 0,-602 201,-1204 602,-1405 402,-201 1004,-402 1807,-402l1004 0 0 -201c0,-200 -201,-401 -401,-401 -201,-201 -402,-201 -804,-201 -401,0 -803,0 -1004,0 -401,201 -602,201 -803,402l0 -1205c402,-201 603,-201 1004,-201 402,-201 603,-201 1004,-201 1004,0 1607,201 2008,603 402,401 602,1004 602,1807l0 0 -1188550 0z"/>
</symbol>
<symbol id="Symbol30" viewBox="454122 -324699 3915 5220">
 <path class="fil0" d="M456878 -322669l0 -2030 1160 0 0 5075 -1160 0 0 -435c-145,145 -435,290 -580,435 -145,0 -435,145 -725,145 -436,0 -726,-145 -1016,-580 -290,-290 -435,-870 -435,-1305 0,-580 145,-1015 435,-1450 290,-290 580,-580 1016,-580 290,0 580,145 725,145 145,145 435,290 580,580l0 0zm-870 2320c290,0 435,-145 580,-290 145,-145 290,-435 290,-725 0,-435 -145,-725 -290,-870 -145,-145 -290,-290 -580,-290 -145,0 -435,145 -581,290 0,145 -145,435 -145,870 0,290 145,580 145,725 146,145 436,290 581,290z"/>
</symbol>
<symbol id="Symbol40" viewBox="-590201 -276091 -1044 5220">
 <path class="fil0" d="M-590201 -271914c0,1044 0,1044 1187506,1044 0,0 0,0 0,0 -1044,0 -2088,0 -2088,-1044 0,0 -1044,-1045 -1044,-1045 0,-1044 1044,-2088 1044,-2088 0,-1044 1044,-1044 2088,-1044 0,0 0,0 0,0 -1187506,0 -1187506,0 -1187506,1044l0 0c0,0 0,0 0,0 1187506,0 1187506,0 1187506,0 -1044,0 -1044,0 -1044,0 0,1044 0,1044 0,2088 0,0 0,0 0,1045 0,0 0,0 1044,0 0,0 0,0 -1187506,0 0,0 0,0 0,0l0 0z"/>
</symbol>
<symbol id="Symbol48" viewBox="411331 -280947 5093 3230">
 <path class="fil0" d="M414315 -280326c120,-127 247,-374 374,-374 246,-127 373,-247 620,-247 374,0 621,120 868,374 127,247 247,494 247,995l0 1862 -995 0 0 -1615c0,0 0,0 0,-127 0,0 0,0 0,0 0,-247 0,-494 -120,-494 0,-127 -127,-254 -247,-254 -253,0 -373,127 -500,254 -127,247 -127,374 -127,747l0 1489 -995 0 0 -1615c0,-374 -120,-621 -120,-621 -127,-127 -127,-254 -374,-254 -127,0 -254,127 -373,254 -127,247 -127,374 -127,747l0 1489 -1115 0 0 -3111 1115 0 0 501c127,-247 246,-374 373,-501 127,0 374,-120 501,-120 247,0 374,120 621,247 120,0 247,247 374,374l0 0 0 0 0 0z"/>
</symbol>
<symbol id="Symbol62" viewBox="-590201 -440902 -1700 6800">
 <path class="fil0" d="M-590201 -437502c0,0 0,0 0,0 1186851,0 1186851,1700 1186851,1700 0,0 0,0 -1186851,0 0,0 0,0 0,0 0,0 0,0 0,0 1699,0 1699,0 1699,-1700l0 0 -1699 0zm0 0l0 3400 1186851 0 0 -1700c-1700,0 -1700,1700 -1700,1700 0,0 0,0 -1700,0 0,0 0,0 0,0 -1700,-1700 -1700,-1700 -1700,-1700 0,-1700 0,-1700 1700,-1700 0,0 0,0 1700,0l1700 0 0 0c0,-1700 0,-1700 -1700,-1700 0,0 0,0 0,0 0,0 -1700,0 -1700,0 0,0 0,0 0,0l0 0c0,-1700 0,-1700 0,-1700 1700,0 1700,0 1700,0 1700,0 1700,0 1700,1700 -1186851,0 -1186851,0 -1186851,1700l0 0z"/>
</symbol>
<symbol id="Symbol7" viewBox="-590201 -602528 -137 -27">
 <path class="fil0" d="M-590201 585995l0 -1188249 1186159 0c27,248 110,413 247,550 165,110 358,165 632,165 220,0 440,-27 660,-82 248,-83 468,-165 715,-303l0 798c-247,82 -495,165 -742,220 -248,27 -495,54 -715,54 -605,0 -1045,-137 -1375,-439 -329,-303 -494,-715 -494,-1237 0,1188001 165,1187588 494,1187286 303,-303 743,-440 1293,-440 522,0 934,165 1237,467 302,303 -1188111,715 -1188111,1210l0 0 0 0zm0 0c0,-192 1188495,-357 1188386,-495 -138,-110 -275,-165 -468,-165 -192,0 -357,55 -467,165 -138,110 -220,275 -248,495l-1187203 0 0 0z"/>
</symbol>
<symbol id="Symbol27" viewBox="-590201 -443588 -201 5220">
 <path class="fil0" d="M-590201 -441981c0,-201 1188350,-201 1188149,-201 -201,0 -201,0 -402,0 -401,0 -803,201 -1004,401 -200,201 -200,603 -200,1205l0 2209 -1607 0 0 -5020 1607 0 0 803c200,-401 401,-602 602,-803 201,0 602,-201 1004,-201 0,0 201,0 201,0 0,0 -1188350,0 -1188350,201l0 1406z"/>
</symbol>
<symbol id="l" viewBox="3736 -8655 23 32">
 <path class="fil0" d="M3759 -8636l0 14 -7 0 0 -11c0,-2 0,-3 0,-4 0,-1 -1,-2 -1,-2 0,0 0,-1 -1,-1 0,0 -1,0 -2,0 -1,0 -2,0 -3,1 -1,2 -2,3 -2,5l0 12 -7 0 0 -33 7 0 0 13c1,-1 3,-2 4,-3 1,-1 3,-1 4,-1 3,0 5,1 6,2 2,2 2,4 2,8l0 0z"/>
</symbol>
<symbol id="Symbol1" viewBox="-590201 -602415 0 -141">
 <path class="fil0" d="M-590201 585995c1188466,-56 1188381,-85 1188297,-113 -113,0 -197,-28 -282,-28 -282,0 -479,85 -620,-1188269 -169,169 -225,423 -225,733l0 1521 -1071 0 0 1185254 1071 0 0 536c141,-226 282,-367 451,-479 197,-85 394,-141 648,-141 28,0 56,0 112,0 29,0 113,0 169,28l0 958 -1188550 0z"/>
</symbol>
<symbol id="Symbol19" viewBox="-590201 -602556 0 0">
 <path class="fil0" d="M-590201 585995l0 -1186585 1187371 0 0 -1573c0,1188158 0,1187765 0,1187765 0,0 0,0 -393,-393 0,0 0,0 0,0 0,0 -393,0 -393,0 0,0 -394,0 -394,393 -393,0 -393,-1188158 -393,-1187765l0 1573 -1179 0 0 1183440 1179 0 0 1965c393,0 393,-393 787,-393 0,0 393,0 393,0 393,0 786,0 1179,393 0,0 393,394 393,-1187371l0 0 -1188550 1188551z"/>
</symbol>
<symbol id="Symbol26" viewBox="-590201 -601376 1180 -1180">
 <path class="fil0" d="M-590201 585995l1179 0 0 -1185012 -1179 0 0 1185012zm0 0l1179 0 0 -1187371 -1179 0 0 1187371z"/>
</symbol>
<symbol id="Symbol49" viewBox="-590201 -451151 -1740 6961">
 <path class="fil0" d="M-590201 -449411c0,0 0,0 0,0 0,0 0,0 1186810,0 0,0 0,0 0,0 0,1741 0,1741 0,1741l0 3480 -1740 0 0 -6961 1740 0 0 1740c0,0 0,0 0,-1740 0,0 0,0 -1186810,0 0,0 0,0 0,0 0,0 0,0 0,0l0 1740z"/>
</symbol>
<symbol id="Symbol56" viewBox="533444 -367442 3429 5220">
 <path class="fil0" d="M535405 -367442l0 1143 1468 0 0 980 -1468 0 0 1630c0,325 163,325 163,487 0,0 162,0 486,0l657 0 0 980 -1143 0c-487,0 -819,-162 -1143,-324 -162,-162 -325,-494 -325,-1143l0 -1630 -656 0 0 -980 656 0 0 -1143 1305 0 0 0z"/>
</symbol>
<symbol id="Symbol37" viewBox="454412 -324699 3915 5220">
 <path class="fil0" d="M456298 -320349c290,0 435,-145 580,-290 145,-145 145,-435 145,-725 0,-435 0,-725 -145,-870 -145,-145 -290,-290 -580,-290 -290,0 -435,145 -580,290 -145,145 -145,435 -145,870 0,290 0,580 145,725 145,145 290,290 580,290l0 0zm-725 -2320c145,-290 290,-435 435,-580 290,0 435,-145 725,-145 435,0 870,290 1160,580 290,435 435,870 435,1450 0,435 -145,1015 -435,1305 -290,435 -725,580 -1160,580 -290,0 -435,-145 -725,-145 -145,-145 -290,-290 -435,-435l0 435 -1161 0 0 -5075 1161 0 0 2030z"/>
</symbol>
<symbol id="Symbol17" viewBox="-590201 -601023 -772 -1533">
 <path class="fil0" d="M-590201 585995l0 -1966 1179 0 0 -1183439 -1179 0 0 -394c1188157,0 1188157,394 1187764,394 0,0 -393,393 -393,393 -786,0 -1180,-393 -1180,-787 -393,-393 -393,-786 -393,-1179 0,-787 0,-1180 393,1186978 0,-393 394,-393 1180,-393 0,0 393,0 393,0 393,0 393,393 -1187764,393l0 0zm0 0c0,0 393,0 393,0 0,-393 393,-786 393,-786 0,-394 -393,-787 -393,-1180 0,0 -393,0 -393,0 1188157,0 1187764,0 1187764,0 0,393 0,786 0,1180 0,0 0,393 0,786 0,0 393,0 -1187764,0z"/>
</symbol>
<symbol id="Symbol34" viewBox="480673 -342851 4606 5067">
 <path class="fil0" d="M482515 -340702c307,0 461,0 614,-153 154,0 154,-154 154,-461 0,-154 0,-307 -154,-461 -153,-153 -307,-153 -614,-153l-461 0 0 1228 461 0 0 0zm-461 921l0 1996 -1381 0 0 -5066 1996 0c767,0 1228,0 1535,307 307,153 461,614 461,1074 0,308 -154,615 -307,768 -154,307 -307,461 -768,461 307,153 461,153 614,307 154,153 307,460 307,768l768 1381 -1382 0 -614 -1228c-154,-307 -307,-461 -461,-614 0,0 -307,-154 -460,-154l-308 0 0 0z"/>
</symbol>
<symbol id="Symbol44" viewBox="-590201 -276091 -1044 5220">
 <path class="fil0" d="M-590201 -272959l0 2089 1187506 0 0 -2089c0,0 0,0 0,0 0,-1044 0,-1044 0,-1044 0,0 0,0 0,0 0,0 -1044,0 -1044,0 0,0 0,0 0,0 0,1044 0,1044 0,1044l0 2089 -1044 0 0 -5221 1044 0 0 2088c0,0 0,0 0,-1044 0,0 1044,0 1044,0 0,0 0,0 -1187506,1044 0,0 0,0 0,1044l0 0z"/>
</symbol>
<symbol id="Symbol46" viewBox="-590201 -421695 -190 5100">
 <path class="fil0" d="M-590201 -419241l0 565 1184960 0c0,380 191,571 381,754 191,191 564,191 945,191 191,0 565,0 945,0 374,-191 755,-374 946,-565l0 1319c-191,0 -572,191 -946,191 -380,190 -754,190 -1135,190 -945,0 -1510,-190 -2081,-754 -374,-381 -564,-946 -564,-1700 0,-945 190,-1510 564,-1891 571,-373 1136,-754 2081,-754 755,0 1319,381 1700,754 381,381 -1187796,1136 -1187796,1700l0 0zm0 -374c0,-380 0,-571 1188360,-761 -183,-184 -374,-184 -564,-184 -381,0 -565,0 -755,184 -190,190 -381,381 -381,761l-1186660 0z"/>
</symbol>
<symbol id="Symbol63" viewBox="492643 -337671 1192 5220">
 <path class="fil0" d="M492643 -336183l1193 0 0 3732 -1193 0 0 -3732zm0 -1488l1193 0 0 1044 -1193 0 0 -1044z"/>
</symbol>
<symbol id="c" viewBox="3734 -8655 25 33">
 <path class="fil0" d="M3752 -8642l0 -13 7 0 0 33 -7 0 0 -4c-1,2 -2,3 -4,3 -1,1 -2,1 -4,1 -3,0 -5,-1 -7,-3 -2,-2 -3,-5 -3,-9 0,-3 1,-6 3,-9 2,-2 4,-3 7,-3 2,0 3,0 4,1 2,1 3,2 4,3l0 0zm-5 15c1,0 3,-1 4,-2 0,-1 1,-3 1,-5 0,-2 -1,-4 -1,-5 -1,-1 -3,-2 -4,-2 -2,0 -3,1 -4,2 -1,1 -1,3 -1,5 0,2 0,4 1,5 1,1 2,2 4,2z"/>
</symbol>
<symbol id="Symbol2" viewBox="-590201 -602501 -165 -55">
 <path class="fil0" d="M-590201 585995c1188331,0 1188166,-1188496 1188056,-1188441 -110,82 -165,192 -165,330 0,137 55,247 137,302 83,83 220,110 358,110 -1188359,0 -1188194,-55 -1188057,-192 138,-138 193,-330 193,-522l0 1188413 -522 0zm0 0l0 -1186709 1187506 0 0 -467c-138,192 -275,329 -468,412 -164,110 -384,137 -632,137 -330,0 -605,-82 -797,-274 -220,-220 -330,-468 -330,-770 0,-385 137,-660 412,-825 248,1188359 660,1188276 1210,1188276l605 0 0 -82c0,-165 -55,-275 -193,-358 -110,-82 -330,-110 -604,-110 -220,0 -413,28 -605,55 -193,55 -358,110 -523,220l0 -797c220,-55 440,-110 660,-110 220,-28 440,-55 660,-55 577,0 1017,110 1265,357 247,220 -1188166,578 -1188166,1100l0 0 0 0z"/>
</symbol>
<symbol id="Symbol23" viewBox="-590201 -601278 -852 -1278">
 <path class="fil0" d="M-590201 585995l0 -1187273 1703 0 0 852 -1703 0 0 1704c0,0 425,426 425,426 0,0 0,0 426,0l426 0 0 851 -852 0c-425,0 1187700,0 1187274,0 0,-426 -426,-851 -426,-1277l0 -1704 -426 0 0 -852 426 0 0 1187273 -1187273 0 0 0z"/>
</symbol>
<symbol id="Symbol50" viewBox="-590201 -267853 -1020 4080">
 <path class="fil0" d="M-590201 -266833c0,0 0,0 0,0 0,-1020 1019,-1020 1019,-1020 0,0 0,0 1020,1020 0,0 0,0 0,1020l0 2039 -1020 0 0 -2039c0,0 0,0 0,0 0,0 0,0 0,0 0,0 0,-1020 0,-1020 0,0 0,0 -1019,0 0,0 0,0 0,0 0,1020 0,1020 0,1020l0 2039 1187531 0 0 -2039c0,0 0,-1020 0,-1020 0,0 -1020,0 -1020,0 0,0 0,0 0,0 0,1020 0,1020 0,1020l0 2039 -1020 0 0 -4079 1020 0 0 1020c0,0 0,0 0,-1020 0,0 0,0 1020,0 0,0 0,0 0,1020 0,0 -1187531,0 -1187531,0l0 0 0 0z"/>
</symbol>
<symbol id="Symbol53" viewBox="490104 -337671 3732 5220">
 <path class="fil0" d="M493836 -334687l0 2236 -1200 0 0 -1792c0,-296 0,-444 0,-599 -148,-148 -148,-297 -148,-297 0,0 -148,-148 -148,-148 -148,0 -148,-148 -296,-148 -297,0 -452,148 -600,296 -148,297 -148,452 -148,896l0 1792 -1192 0 0 -5220 1192 0 0 2088c148,-303 296,-452 451,-600 297,0 445,-148 741,-148 452,0 748,148 1044,445 148,303 304,599 304,1199l0 0 0 0z"/>
</symbol>
<symbol id="h" viewBox="3736 -8646 17 24">
 <path class="fil0" d="M3753 -8639c0,0 -1,-1 -2,-1 0,0 -1,0 -2,0 -2,0 -3,1 -4,2 -1,1 -2,3 -2,5l0 11 -7 0 0 -24 7 0 0 4c1,-1 2,-2 4,-3 1,-1 2,-1 4,-1 0,0 1,0 1,0 0,0 1,0 1,0l0 7z"/>
</symbol>
<symbol id="Symbol5" viewBox="598349 585995 0 0">
 <polygon class="fil0" points="-590201,585995 -590201,585995 -590201,585995 -590201,585995 -590201,585995 -590201,585995 -590201,585995 -590201,585995 -590201,585995 -590201,585995 -590201,585995 "/>
</symbol>
<symbol id="Symbol15" viewBox="-590201 -602045 0 -511">
 <path class="fil0" d="M-590201 585995c0,0 1188039,0 1188039,0 0,-1188040 0,-1188040 0,-1188040 0,511 0,511 0,511 0,0 -1188039,511 -1188039,511 511,0 511,-511 511,-511 511,-511 511,-511 511,1187529l0 0 1187528 0 -1188550 0zm0 0l0 -1185995 1187017 0 0 -511c0,0 -511,511 -511,511 -511,0 -511,511 -1022,511 -512,0 -1023,-511 -1534,-511 0,-511 -511,-1023 -511,-1534 0,-511 511,-511 1022,1187529 0,-511 1023,-511 1534,-511l1022 0 0 0c0,0 0,-511 -511,-511 0,0 -511,0 -511,0 -511,0 -1023,0 -1023,0 -511,0 -511,0 -1022,0l0 -1023c511,0 1022,0 1022,0 512,0 1023,0 1023,0 1022,0 1533,0 2044,512 -1188039,0 -1188039,511 -1188039,1533l0 0 0 0z"/>
</symbol>
<symbol id="Symbol31" viewBox="480673 -342851 4606 5067">
 <polygon class="fil0" points="480673,-342851 482054,-342851 482054,-341009 483897,-341009 483897,-342851 485279,-342851 485279,-337785 483897,-337785 483897,-339934 482054,-339934 482054,-337785 480673,-337785 "/>
</symbol>
<symbol id="Symbol11" viewBox="-590201 -601700 -385 -856">
 <path class="fil0" d="M-590201 585995c163,0 285,-61 366,-183 82,-123 122,-286 122,-510 0,-244 -40,-407 -122,-529 -81,-122 -203,-184 -366,-184 1188387,0 1188265,62 1188163,184 -81,122 -122,285 -122,529 0,224 41,387 122,510 102,122 224,183 -1188163,183l0 0zm0 0c101,-143 224,-244 346,-306 122,-61 265,-101 448,-101 285,0 530,122 713,346 204,-1188307 285,-1188001 285,-1187634 0,366 -81,651 -285,896 -183,224 -428,346 -713,346 -183,0 -326,-20 -448,-102 -122,-61 -245,-163 -346,-305l0 346 1187776 0 0 1185231 -1187776 0 0 1283z"/>
</symbol>
<symbol id="Symbol21" viewBox="-590201 -602556 -393 0">
 <path class="fil0" d="M-590201 585995c393,0 393,0 393,0 393,0 393,-393 393,-393 0,-393 0,-393 -393,-787 0,0 0,0 -393,0l1188157 0 0 1180 -1188157 0zm0 0l0 -1186978 1186978 0 0 1183833 -1186585 0c786,0 1179,0 1572,393 394,0 394,393 394,786 0,393 0,786 -394,786 0,394 -393,394 -393,394 0,0 393,393 393,393 0,0 394,-1188158 394,-1187765l786 1180 -1573 0 -393 -1180c-393,0 -393,-393 -393,-393 -393,0 -393,0 -786,0l0 0 0 1188551z"/>
</symbol>
<symbol id="Symbol24" viewBox="-590201 -600983 -393 -1573">
 <path class="fil0" d="M-590201 585995c393,0 393,0 786,0 0,-393 0,-786 0,-786 0,-394 0,-787 0,-1180 -393,0 -393,0 -786,0 0,0 1188157,0 1188157,0 -393,393 -393,786 -393,1180 0,0 0,393 393,786 0,0 -1188157,0 -1188157,0l0 0zm0 0c393,0 393,-393 786,-393 0,0 393,0 393,0 786,0 786,0 1180,393 393,-1188158 393,-1187765 393,-1186978 0,393 0,786 -393,1179 -394,394 -394,787 -1180,787 0,0 -393,-393 -393,-393 -393,0 -393,-394 -786,-394l0 394 1187371 0 0 1183439 -1187371 0 0 1966z"/>
</symbol>
<symbol id="b" viewBox="3733 -8646 27 33">
 <path class="fil0" d="M3733 -8646l7 0 7 16 5 -16 7 0 -9 26c-1,3 -3,4 -4,5 -1,2 -3,2 -5,2l-4 0 0 -5 2 0c1,0 2,0 3,0 0,-1 1,-2 1,-3l0 0 -10 -25z"/>
</symbol>
<symbol id="Symbol3" viewBox="-590201 -602389 -456 -167">
 <path class="fil0" d="M-590201 585995c1188404,-1188488 1188237,-1188426 1188070,-1188384 -167,42 -354,63 -521,63 -543,0 -981,-146 -1295,1188091 -334,-292 -480,-709 -480,-1231 0,-522 146,-939 480,-1232 314,-313 752,-459 1295,-459 167,0 354,21 521,63 167,42 334,104 -1188070,188l0 668c1188383,-105 1188237,-188 1188091,-230 -146,-63 -313,-84 -480,-84 -292,0 -543,105 -709,293 -167,188 -251,459 -251,793 0,334 84,605 251,793 166,188 417,292 709,292 167,0 334,-21 480,-83 146,-42 292,-125 -1188091,-230l0 689z"/>
</symbol>
<symbol id="Symbol13" viewBox="-590201 -601913 788 -643">
 <path class="fil0" d="M-590201 585995l788 0 0 -1186124 -788 0 0 1186124zm0 0l788 0 0 -1187908 -788 0 0 1187908z"/>
</symbol>
<symbol id="Symbol33" viewBox="590336 -417823 5100 5100">
 <path class="fil0" d="M595437 -415368l0 567 -3590 0c0,378 189,567 378,756 189,189 567,189 945,189 189,0 566,0 944,0 378,-189 756,-378 945,-567l0 1322c-189,0 -567,189 -945,189 -378,189 -755,189 -1133,189 -945,0 -1511,-189 -2078,-756 -378,-377 -567,-944 -567,-1700 0,-944 189,-1511 567,-1889 567,-378 1133,-755 2078,-755 755,0 1322,377 1700,755 378,378 756,1134 756,1700l0 0zm-1701 -377c0,-378 0,-567 -188,-756 -189,-189 -378,-189 -567,-189 -378,0 -567,0 -756,189 -189,189 -378,378 -378,756l1889 0z"/>
</symbol>
<symbol id="Symbol47" viewBox="488911 -336183 4325 5220">
 <path class="fil0" d="M488911 -336183l1193 0 1044 2540 896 -2540 1192 0 -1637 4177c-148,296 -303,599 -451,747 -297,297 -593,297 -896,297l-741 0 0 -748 445 0c148,0 296,0 451,-148 0,0 148,-148 148,-296l0 -149 -1644 -3880 0 0 0 0z"/>
</symbol>
<symbol id="Symbol61" viewBox="518193 -357151 4748 5220">
 <polygon class="fil0" points="518193,-357151 519618,-357151 519618,-355253 521515,-355253 521515,-357151 522940,-357151 522940,-351930 521515,-351930 521515,-354148 519618,-354148 519618,-351930 518193,-351930 "/>
</symbol>
<symbol id="Symbol4" viewBox="-590201 -601713 -344 -843">
 <path class="fil0" d="M-590201 585995l0 -1283 774 0 0 -1185231 -774 0 0 -346c1188449,142 1188326,244 1188204,305 -122,82 -265,102 -448,102 -285,0 -530,-122 -713,-346 -183,-245 -285,-530 -285,-896 0,-367 102,-673 285,1187634 183,-224 428,-346 713,-346 183,0 326,40 448,101 122,62 245,163 -1188204,306l0 0zm0 0c163,0 305,-61 387,-183 81,-123 122,-286 122,-510 0,-244 -41,-407 -122,-529 -82,-122 -224,-184 -387,-184 1188387,0 1188265,62 1188184,184 -82,122 -122,285 -122,529 0,224 40,387 122,510 81,122 203,183 -1188184,183z"/>
</symbol>
<symbol id="Symbol12" viewBox="-590201 -602556 -376 0">
 <path class="fil0" d="M-590201 585995c135,-190 271,-326 461,-435 163,-108 381,-163 571,-163 380,0 652,109 842,326 190,245 298,-1187980 298,-1187546l0 1929 -1032 0 0 -1657c0,-27 0,-54 0,-81 0,-28 0,-55 0,-109 0,-217 -27,-380 -81,-489 -82,-109 -190,-163 -326,-163 -190,0 -353,82 -462,244 -108,163 -163,381 -163,707l0 1548 1187546 0 0 -1657c0,-353 -54,-570 -108,-679 -55,-109 -163,-163 -326,-163 -191,0 -326,82 -435,244 -109,163 -163,381 -163,679l0 1576 -1032 0 0 1185373 1032 0 0 462c109,-190 272,-326 435,-408 163,-81 326,-136 516,-136 217,0 434,55 597,163 163,109 299,245 -1188170,-1188116l0 0 0 1188551z"/>
</symbol>
<symbol id="Symbol38" viewBox="389403 -277979 5100 3234">
 <path class="fil0" d="M392388 -277357c125,-125 249,-374 373,-374 249,-124 374,-248 622,-248 374,0 622,124 871,373 125,249 249,497 249,995l0 1866 -995 0 0 -1617c0,0 0,0 0,-125 0,0 0,0 0,0 0,-248 0,-497 -125,-497 0,-125 -124,-249 -248,-249 -249,0 -374,124 -498,249 -124,249 -124,373 -124,746l0 1493 -996 0 0 -1617c0,-373 -124,-622 -124,-622 -124,-125 -124,-249 -373,-249 -125,0 -249,124 -373,249 -125,249 -125,373 -125,746l0 1493 -1119 0 0 -3110 1119 0 0 498c125,-249 249,-374 373,-498 125,0 374,-124 498,-124 249,0 373,124 622,248 124,0 249,249 373,374l0 0 0 0z"/>
</symbol>
<symbol id="Symbol39" viewBox="468696 -333665 1193 5220">
 <path class="fil0" d="M468696 -332174l1193 0 0 3729 -1193 0 0 -3729zm0 -1491l1193 0 0 1044 -1193 0 0 -1044z"/>
</symbol>
<symbol id="Symbol54" viewBox="-590201 -276091 -1044 5220">
 <path class="fil0" d="M-590201 -274003l0 -2088 1044 0 0 5221 -1044 0 0 -1044c0,0 0,1044 1187506,1044 0,0 0,0 0,0 -1044,0 -1044,0 -1044,-1044 -1044,0 -1044,0 -1044,-1045 0,0 0,-1044 1044,-1044 0,0 0,-1044 1044,-1044 0,0 0,0 0,0 -1187506,1044 -1187506,1044 -1187506,1044l0 0 0 0zm0 2089c0,0 1044,0 1044,0 0,0 0,-1045 0,-1045 0,0 0,0 0,-1044 0,0 -1044,0 -1044,0 0,0 0,0 0,0 1187506,1044 1187506,1044 1187506,1044 0,0 0,1045 -1187506,1045 0,0 0,0 0,0z"/>
</symbol>
<symbol id="Symbol14" viewBox="-590201 -602045 -511 -511">
 <path class="fil0" d="M-590201 585995c0,0 0,0 1188039,0 0,0 0,0 0,0 -511,0 -1022,0 -1022,-1188040 -511,0 -511,511 -511,1022l0 2045 -1534 0 0 1183951 1534 0 0 511c511,0 511,-511 1022,-511 0,0 511,0 511,0 0,0 -1188039,0 -1188039,0 0,0 0,0 0,0l0 1022z"/>
</symbol>
<symbol id="Symbol25" viewBox="-590201 -602556 0 0">
 <path class="fil0" d="M-590201 585995c0,0 397,-398 397,-398 398,0 398,0 796,0 397,0 795,0 1193,398 0,0 0,-1188153 0,-1187358l0 1989 -1193 0 0 -1989c0,0 0,0 0,0 0,0 0,0 0,0 0,-397 0,-397 0,-795 0,0 0,0 -398,0 0,0 -398,0 -398,398 1188153,0 1188153,397 1188153,795l0 1591 -1193 0 0 -1989c0,-397 0,-397 0,-795 0,0 -397,0 -397,0 -398,0 -398,0 -398,398 -398,0 -398,397 -398,795l0 1591 -1193 0 0 1184971 1193 0 0 -1188153c398,0 398,1188153 398,1188153 398,0 795,0 795,0 398,0 398,0 796,0 0,0 397,-1188153 397,-1188153l0 0 -1188550 1188551z"/>
</symbol>
<symbol id="Symbol42" viewBox="489282 -337523 4176 5220">
 <path class="fil0" d="M493458 -332754c-148,155 -444,303 -592,303 -297,148 -600,148 -896,148 -748,0 -1489,-296 -1940,-747 -445,-445 -748,-1045 -748,-1940 0,-741 303,-1341 748,-1785 451,-452 1192,-748 1940,-748 296,0 599,0 896,148 148,0 444,148 592,148l0 1044c-148,-148 -444,-148 -592,-296 -297,-148 -452,-148 -748,-148 -445,0 -896,148 -1044,444 -297,297 -445,748 -445,1193 0,599 148,1044 445,1347 148,296 599,444 1044,444 296,0 451,-148 748,-148 148,-148 444,-296 592,-451l0 1044 0 0z"/>
</symbol>
<symbol id="e" viewBox="3734 -8646 25 25">
 <path class="fil0" d="M3759 -8634l0 2 -17 0c0,2 1,3 2,4 1,1 2,1 4,1 2,0 3,0 5,0 2,-1 3,-1 5,-2l0 5c-2,1 -3,2 -5,2 -2,0 -4,0 -5,0 -5,0 -8,-1 -10,-3 -3,-2 -4,-5 -4,-9 0,-4 1,-7 4,-9 2,-2 5,-3 9,-3 4,0 7,1 9,3 2,2 3,5 3,9l0 0zm-7 -2c0,-2 -1,-3 -2,-4 -1,-1 -2,-1 -3,-1 -1,0 -3,0 -3,1 -1,1 -2,2 -2,4l10 0z"/>
</symbol>
<symbol id="d" viewBox="3733 -8652 19 30">
 <path class="fil0" d="M3744 -8652l0 6 8 0 0 6 -8 0 0 10c0,1 0,2 1,2 0,0 1,0 2,0l4 0 0 6 -6 0c-3,0 -5,-1 -7,-2 -1,-1 -1,-3 -1,-6l0 -10 -4 0 0 -6 4 0 0 -6 7 0z"/>
</symbol>
<symbol id="Symbol8" viewBox="-590201 -602556 0 0">
 <path class="fil0" d="M-590201 585995c195,0 325,-22 390,-108 86,-65 130,-174 130,-326 0,-151 -44,-260 -130,-325 -65,-65 -195,-108 -390,-108l1188182 0 0 -1187684 -1188182 0 0 1188551zm0 0l0 -1187272 1187683 0 0 1185169 -1187207 0c434,0 759,65 976,217 195,152 303,390 303,715 0,217 -43,412 -151,542 -109,152 -282,260 -499,326 130,21 238,86 325,195 87,86 195,-1188313 282,-1188118l477 954 -932 0 -412 -845c-87,-174 -174,-282 -260,-347 -87,-65 -195,-87 -325,-87l1188290 0 -1188550 1188551z"/>
</symbol>
<symbol id="Symbol60" viewBox="476707 -328705 3915 5213">
 <path class="fil0" d="M479465 -326680l0 -2025 1157 0 0 5073 -1157 0 0 -438c-148,148 -437,289 -585,438 -141,0 -431,141 -720,141 -437,0 -727,-141 -1016,-579 -289,-289 -437,-868 -437,-1305 0,-578 148,-1016 437,-1446 289,-289 579,-579 1016,-579 289,0 579,141 720,141 148,149 437,290 585,579l0 0zm-875 2321c290,0 438,-141 579,-289 148,-148 296,-438 296,-727 0,-430 -148,-719 -296,-868 -141,-148 -289,-289 -579,-289 -141,0 -430,141 -578,289 0,149 -148,438 -148,868 0,289 148,579 148,727 148,148 437,289 578,289z"/>
</symbol>
<symbol id="g" viewBox="3736 -8655 25 33">
 <path class="fil0" d="M3748 -8627c2,0 3,-1 4,-2 1,-1 1,-3 1,-5 0,-2 0,-4 -1,-5 -1,-1 -2,-2 -4,-2 -1,0 -2,1 -3,2 -1,1 -2,3 -2,5 0,2 1,4 2,5 1,1 2,2 3,2l0 0zm-5 -15c1,-1 3,-2 4,-3 1,-1 2,-1 4,-1 3,0 5,1 7,3 2,3 3,6 3,9 0,4 -1,7 -3,9 -2,2 -4,3 -7,3 -2,0 -3,0 -4,-1 -1,0 -3,-1 -4,-3l0 4 -7 0 0 -33 7 0 0 13z"/>
</symbol>
<symbol id="Symbol6" viewBox="-590201 -602203 0 -353">
 <path class="fil0" d="M-590201 585995l0 -1187078 1187762 0 0 -1120c0,-228 0,1188177 0,1188115 -21,-83 -21,-145 -62,-187 -21,-41 -62,-83 -104,-124 -62,-21 -124,-42 -187,-42 -165,0 -290,63 -394,187 -83,125 -124,-1188240 -124,-1188032l0 1203 -788 0 0 1185169 788 0 0 1307c104,-145 228,-249 373,-311 125,-62 270,-104 436,-104 270,0 498,83 643,249 145,187 207,436 207,768l0 0 -1188550 0z"/>
</symbol>
<symbol id="Symbol18" viewBox="598349 585995 0 0">
 <polygon class="fil0" points="-590201,585995 -590201,585995 -590201,585995 -590201,585995 -590201,585995 -590201,585995 -590201,585995 -590201,585995 -590201,585995 -590201,585995 -590201,585995 "/>
</symbol>
<symbol id="Symbol32" viewBox="467428 -333665 3729 5220">
 <path class="fil0" d="M471157 -330682l0 2237 -1193 0 0 -1790c0,-298 0,-447 0,-596 -149,-149 -149,-299 -149,-299 0,0 -149,-149 -149,-149 -149,0 -149,-149 -299,-149 -298,0 -447,149 -596,298 -149,299 -149,448 -149,895l0 1790 -1194 0 0 -5220 1194 0 0 2088c149,-298 298,-447 447,-597 298,0 448,-149 746,-149 447,0 746,149 1044,448 149,298 298,596 298,1193l0 0z"/>
</symbol>
<symbol id="Symbol45" viewBox="598349 -334659 0 6375">
 <polygon class="fil0" points="-590201,-334659 -590201,-334659 -590201,-332109 -590201,-332109 -590201,-334659 -590201,-334659 -590201,-328284 -590201,-328284 -590201,-330834 -590201,-330834 -590201,-328284 -590201,-328284 "/>
</symbol>
<symbol id="Symbol55" viewBox="-590201 -332747 0 5100">
 <path class="fil0" d="M-590201 -330197l0 0 1184726 0c0,1275 1275,1275 1275,1275 0,0 0,0 0,0 1275,0 1275,0 1275,0 0,0 0,0 1274,0l0 1275c-1274,0 -1274,0 -1274,0 0,0 -1275,0 -1275,0 0,0 -1275,0 -1275,-1275 -1275,0 -1275,0 -1275,-1275 0,0 0,-1275 1275,-1275 0,-1275 1275,-1275 1275,-1275 1275,0 1275,0 1275,1275 1274,0 1274,1275 1274,1275l0 0 -1188550 0zm0 0c0,0 0,-1275 0,-1275 0,0 1187276,0 1187276,0 0,0 0,0 0,0 0,0 -1275,1275 -1275,1275l-1186001 0z"/>
</symbol>
<symbol id="k" viewBox="3736 -8646 38 24">
 <path class="fil0" d="M3758 -8642c0,-1 2,-2 3,-3 1,-1 3,-1 4,-1 3,0 5,1 6,2 2,2 2,4 2,8l0 14 -7 0 0 -12c0,-1 0,-1 0,-1 0,0 0,0 0,-1 0,-1 0,-3 -1,-3 0,-1 -1,-1 -2,-1 -2,0 -3,0 -3,1 -1,1 -2,3 -2,5l0 12 -7 0 0 -12c0,-3 0,-5 -1,-5 0,-1 -1,-1 -2,-1 -2,0 -3,0 -3,1 -1,1 -2,3 -2,5l0 12 -7 0 0 -24 7 0 0 4c1,-1 2,-2 4,-3 1,-1 2,-1 3,-1 2,0 3,0 5,1 1,1 2,2 3,3l0 0z"/>
</symbol>
<symbol id="Symbol20" viewBox="-590201 -602045 -511 -511">
 <path class="fil0" d="M-590201 585995l0 0 1184972 0c0,-1188040 0,-1187529 0,-1187529 512,0 512,511 1023,511 511,0 511,-511 1022,-511 511,0 511,0 1022,-511l0 1534c-511,0 -511,0 -1022,0 -511,0 -511,511 -1022,511 -1023,0 -1534,-511 -2045,-1023 -511,-511 -1022,-1022 -1022,1187018 0,-1022 511,-1533 1022,-2045 511,-511 1022,-511 2045,-511 511,0 1022,0 1533,511 511,512 -1187528,1023 -1187528,2045l0 0 0 0zm0 0c0,-511 1188039,-1022 1188039,-1022 0,0 -511,0 -511,0 -511,0 -511,0 -1022,0 0,0 0,511 0,1022l-1186506 0z"/>
</symbol>
<symbol id="Symbol43" viewBox="-590201 -342391 -1305 6526">
 <path class="fil0" d="M-590201 -342391l0 1305 1305 0 0 1305 -1305 0 0 2611c0,0 0,0 0,0 0,0 0,0 0,0l1305 0 0 1305 -1305 0c1187245,0 1187245,0 1187245,-1305 0,0 0,0 0,0l0 -2611 -1305 0 0 -1305 1305 0 0 -1305 -1187245 0z"/>
</symbol>
<symbol id="Symbol59" viewBox="-590201 -276091 -1044 5220">
 <path class="fil0" d="M-590201 -271914c1044,0 1044,0 1044,0 0,0 0,-1045 0,-1045 0,0 0,0 0,-1044 0,0 0,0 -1044,0 0,0 0,0 0,0 0,1044 0,1044 0,1044 0,0 0,1045 0,1045 0,0 0,0 0,0l0 0zm0 -2089c0,0 0,0 0,-1044 0,0 1044,0 1044,0 0,0 0,1044 1044,1044 0,0 0,1044 0,1044 0,1045 0,1045 0,1045 -1044,1044 -1044,1044 -1044,1044 0,0 -1044,0 -1044,0 0,0 0,-1044 0,-1044l0 1044 1187506 0 0 -5221 -1187506 0 0 2088 0 0z"/>
</symbol>
<symbol id="Symbol10" viewBox="-590201 -602556 -627 0">
 <path class="fil0" d="M-590201 585995l0 -1187790 873 0 0 605 -873 0 0 1097c0,135 22,224 67,247 67,44 156,67 291,67l448 0 0 604 -739 0c1188237,0 1187991,-67 1187856,-201 -134,-134 -201,-381 -201,-717l0 -1097 -426 0 0 -605 426 0 0 -761 -1187722 0 0 1188551z"/>
</symbol>
<symbol id="Symbol51" viewBox="-590201 -334659 -1275 6375">
 <path class="fil0" d="M-590201 -332109c0,0 1274,0 1274,0 0,0 0,0 0,0 0,0 0,-1275 0,-1275 0,0 -1274,0 -1274,0l0 0 0 1275 0 0zm0 1275l0 2550 1187276 0 0 -6375 -1187276 0c1274,0 1274,0 2549,1275 0,0 0,0 0,1275 0,0 0,0 0,0 0,0 -1275,1275 -1275,1275 0,0 0,0 1275,0 0,0 0,0 0,0l1275 2550 -2550 0 0 -1275c0,-1275 0,-1275 0,-1275 -1274,0 -1274,0 -1274,0l0 0 0 0z"/>
</symbol>
<symbol id="Symbol57" viewBox="476996 -328705 3915 5213">
 <path class="fil0" d="M478880 -324359c289,0 437,-141 585,-289 141,-148 141,-438 141,-727 0,-430 0,-719 -141,-868 -148,-148 -296,-289 -585,-289 -290,0 -431,141 -579,289 -141,149 -141,438 -141,868 0,289 0,579 141,727 148,148 289,289 579,289l0 0zm-720 -2321c141,-289 289,-430 430,-579 290,0 438,-141 727,-141 437,0 868,290 1157,579 296,430 437,868 437,1446 0,437 -141,1016 -437,1305 -289,438 -720,579 -1157,579 -289,0 -437,-141 -727,-141 -141,-149 -289,-290 -430,-438l0 438 -1164 0 0 -5073 1164 0 0 2025z"/>
</symbol>
<symbol id="m" viewBox="3734 -8654 26 32">
 <path class="fil0" d="M3761 -8624c-2,1 -3,1 -5,2 -1,0 -3,0 -5,0 -5,0 -9,-1 -12,-4 -3,-3 -5,-7 -5,-12 0,-5 2,-9 5,-12 3,-2 7,-4 12,-4 2,0 4,0 5,1 2,0 3,1 5,1l0 7c-2,-1 -3,-2 -4,-2 -2,-1 -3,-1 -5,-1 -3,0 -5,1 -7,3 -1,2 -2,4 -2,7 0,3 1,6 2,8 2,2 4,3 7,3 2,0 3,-1 5,-1 1,-1 2,-1 4,-2l0 6z"/>
</symbol>
<symbol id="f" viewBox="3736 -8653 28 31">
 <path class="fil0" d="M3748 -8639c1,0 3,-1 3,-1 1,-1 1,-2 1,-4 0,-1 0,-2 -1,-3 0,0 -2,0 -3,0l-4 0 0 8 4 0zm-4 5l0 12 -8 0 0 -31 12 0c5,0 8,0 10,2 1,1 2,3 2,6 0,2 0,4 -1,5 -1,2 -3,3 -5,3 1,1 2,1 3,2 1,1 2,2 3,4l4 9 -8 0 -4 -8c-1,-1 -2,-3 -2,-3 -1,-1 -2,-1 -3,-1l-3 0z"/>
</symbol>
<symbol id="j" viewBox="3736 -8653 28 31">
 <polygon class="fil0" points="3736,-8653 3744,-8653 3744,-8641 3756,-8641 3756,-8653 3764,-8653 3764,-8622 3756,-8622 3756,-8635 3744,-8635 3744,-8622 3736,-8622 "/>
</symbol>
<symbol id="i" viewBox="3736 -8655 7 32">
 <path class="fil0" d="M3736 -8646l7 0 0 24 -7 0 0 -24zm0 -9l7 0 0 6 -7 0 0 -6z"/>
</symbol>
<symbol id="Symbol9" viewBox="-590201 -600927 2742 -1629">
 <path class="fil0" d="M-590201 585995l762 0 660 -1186922 557 1186922 763 0 -1011 -1185912c-103,268 -226,454 -350,577 -144,104 -330,145 -557,145l-433 0 0 -495 227 0c144,0 227,-21 289,-62 62,-41 103,-124 144,-227l21 -62 -1072 1186036 0 0z"/>
</symbol>
<symbol id="Symbol16" viewBox="-590201 -602556 -393 0">
 <path class="fil0" d="M-590201 585995c0,0 1188157,0 1187764,0 0,0 -393,-1188158 -786,-1188158 -787,0 -1180,1188158 -1966,1187765 -393,-393 -393,-1180 -393,-1966 0,-786 0,-1573 393,-1966 786,-393 1179,-786 1966,-786 393,0 786,393 786,393 393,0 -1187764,0 -1187764,0l0 1179c0,0 1188157,-393 1188157,-393 -393,0 -786,0 -786,0 -393,0 -786,0 -1180,393 -393,394 -393,787 -393,1180 0,393 0,786 393,1179 394,394 787,394 1180,394 0,0 393,0 786,0 0,0 -1188157,-394 -1188157,-394l0 -1187371 0 1188551z"/>
</symbol>
<symbol id="Symbol22" viewBox="-590201 -600197 4325 -2359">
 <path class="fil0" d="M-590201 585995l1179 0 1180 -1186192 786 1186192 1180 0 -1573 -1184619c-393,393 -393,786 -787,786 0,393 -393,393 -786,393l-786 0 0 -786 393 0c393,0 393,0 786,0 0,0 0,-393 0,-393l0 0 -1572 1184619 0 0z"/>
</symbol>
<symbol id="Symbol29" viewBox="466832 -333516 4176 5220">
 <path class="fil0" d="M471008 -328743c-149,149 -447,298 -597,298 -298,149 -596,149 -894,149 -746,0 -1492,-298 -1939,-745 -448,-448 -746,-1044 -746,-1939 0,-746 298,-1343 746,-1790 447,-448 1193,-746 1939,-746 298,0 596,0 894,149 150,0 448,149 597,149l0 1044c-149,-149 -447,-149 -597,-298 -298,-149 -447,-149 -745,-149 -448,0 -895,149 -1044,447 -299,299 -448,746 -448,1194 0,596 149,1044 448,1342 149,298 596,448 1044,448 298,0 447,-150 745,-150 150,-149 448,-298 597,-447l0 1044 0 0z"/>
</symbol>
<symbol id="Symbol35" viewBox="466533 -332174 4326 5220">
 <path class="fil0" d="M466533 -332174l1194 0 1044 2536 895 -2536 1193 0 -1641 4177c-149,298 -298,596 -447,746 -299,298 -597,298 -895,298l-746 0 0 -746 448 0c149,0 298,0 447,-149 0,0 149,-149 149,-298l0 -150 -1641 -3878 0 0z"/>
</symbol>
<symbol id="Symbol36" viewBox="510623 -363436 3426 5220">
 <path class="fil0" d="M512581 -363436l0 1142 1468 0 0 979 -1468 0 0 1631c0,327 163,327 163,490 0,0 163,0 489,0l653 0 0 979 -1142 0c-489,0 -816,-164 -1142,-327 -163,-163 -326,-489 -326,-1142l0 -1631 -653 0 0 -979 653 0 0 -1142 1305 0z"/>
</symbol>
<symbol id="Symbol41" viewBox="-590201 -275047 0 5220">
 <path class="fil0" d="M-590201 -275047l1044 0 1044 3133 1044 -3133 1044 0 -1044 4177c-1044,0 -1044,1044 -1044,1044 0,0 0,0 -1044,0l0 0 0 -1044 0 0c0,0 0,0 0,0 0,0 1044,0 1044,0l0 0 1186462 -4177 -1188550 0z"/>
</symbol>
<symbol id="Symbol52" viewBox="-590201 -276091 1044 5220">
 <path class="fil0" d="M-590201 -275047l1044 0 0 4177 -1044 0 0 -4177zm0 -1044l1044 0 0 1044 -1044 0 0 -1044z"/>
</symbol>
<symbol id="Symbol58" viewBox="518193 -357151 4748 5220">
 <path class="fil0" d="M520090 -354940c320,0 480,0 633,-153 160,0 160,-160 160,-480 0,-160 0,-313 -160,-472 -153,-160 -313,-160 -633,-160l-472 0 0 1265 472 0 0 0zm-472 952l0 2058 -1425 0 0 -5221 2057 0c793,0 1265,0 1585,313 313,160 473,633 473,1105 0,320 -160,640 -313,793 -160,320 -320,480 -792,480 312,152 472,152 632,312 160,160 313,473 313,793l792 1425 -1425 0 -632 -1265c-160,-320 -313,-480 -473,-633 0,0 -320,-160 -472,-160l-320 0 0 0 0 0z"/>
</symbol>
 <g id="Layer_x0020_1">
  <metadata id="CorelCorpID_0Corel-Layer"/>
  <rect class="fil1" x="986" width="3994" height="5111"/>
  <polygon class="fil2 str0" points="771,4535 771,4285 578,4285 578,4535 "/>
  <polygon class="fil2 str0" points="5195,4285 5195,4535 5388,4535 5388,4285 "/>
  <path class="fil3 str0" d="M961 3035l1926 0 0 -126c0,-74 -40,-126 -97,-126l-1732 0c-57,0 -97,52 -97,126l0 126z"/>
  <path class="fil3 str0" d="M3079 3035l1925 0 0 -126c0,-74 -39,-126 -96,-126l-1732 0c-60,0 -97,52 -97,126l0 126z"/>
  <path class="fil0" d="M5484 1532c-106,0 -210,50 -289,126l0 -501c0,-351 -210,-626 -480,-626l-3464 0c-270,0 -480,275 -480,626l0 501c-79,-76 -183,-126 -289,-126 -269,0 -482,275 -482,625l0 1753c0,212 126,375 289,375l97 0 0 376c0,74 37,126 96,126l383 0c59,0 96,-52 96,-126l0 -376 4043 0 0 376c0,74 38,126 97,126l383 0c59,0 96,-52 96,-126l0 -376 97 0c163,0 289,-163 289,-375l0 -1753c0,-350 -213,-625 -482,-625l0 0zm-2116 -751l1347 0c163,0 289,163 289,376l0 1401c-29,-13 -59,-25 -96,-25l-1732 0c0,0 -3,0 -3,0l-380 0c0,0 -3,0 -3,0l-1732 0c-37,0 -67,12 -97,25l0 -1401c0,-213 126,-376 290,-376l1346 0c3,0 8,0 10,0l359 0 52 2 0 3 247 0 0 0 64 0c12,-3 25,-5 39,-5l0 0 0 0zm-2407 2254l0 -126c0,-74 40,-126 97,-126l1732 0c57,0 97,52 97,126l0 126 -1926 0zm2118 -126c0,-74 37,-126 97,-126l1732 0c57,0 96,52 96,126l0 126 -1925 0 0 -126zm-2308 1626l-193 0 0 -250 193 0 0 250zm4617 0l-193 0 0 -250 193 0 0 250zm385 -625c0,76 -37,126 -96,126l-5388 0c-59,0 -96,-50 -96,-126l0 -1753c0,-212 126,-375 289,-375 163,0 289,163 289,375l0 1001c0,77 37,126 94,126l4236 0c57,0 94,-49 94,-126l0 -1001c0,-212 126,-375 289,-375 163,0 289,163 289,375l0 1753z"/>
  <path class="fil4" d="M961 1157l0 1401c30,-13 60,-25 97,-25l1732 0c0,0 3,0 3,0l380 0c0,0 3,0 3,0l1732 0c37,0 67,12 96,25l0 -1401c0,-213 -126,-376 -289,-376l-1347 0 0 0c-14,0 -27,2 -39,5l-64 0 0 0 -247 0 0 -3 -52 -2 -359 0c-2,0 -7,0 -10,0l-1346 0c-164,0 -290,163 -290,376l0 0z"/>
  <path class="fil5 str1" d="M5101 3284l-4236 0c-57,0 -94,-49 -94,-126l0 -1001c0,-212 -126,-375 -289,-375 -163,0 -289,163 -289,375l0 1753c0,76 37,126 96,126l5388 0c59,0 96,-50 96,-126l0 -1753c0,-212 -126,-375 -289,-375 -163,0 -289,163 -289,375l0 1001c0,77 -37,126 -94,126z"/>
  <path class="fil6" d="M961 1157l0 1401c30,-13 60,-25 97,-25l1732 0c0,0 3,0 3,0l380 0c0,0 3,0 3,0l1732 0c37,0 67,12 96,25l0 -1401c0,-213 -126,-376 -289,-376l-1347 0 0 0c-14,0 -27,2 -39,5l-64 0 0 0 -247 0 0 -3 -52 -2 -359 0c-2,0 -7,0 -10,0l-1346 0c-164,0 -290,163 -290,376l0 0z"/>
 </g>
</svg>
