<?xml version="1.0" encoding="UTF-8"?>
<!DOCTYPE svg PUBLIC "-//W3C//DTD SVG 1.1//EN" "http://www.w3.org/Graphics/SVG/1.1/DTD/svg11.dtd">
<!-- Creator: CorelDRAW X7 -->
<svg xmlns="http://www.w3.org/2000/svg" xml:space="preserve" width="6217px" height="6217px" version="1.1" style="shape-rendering:geometricPrecision; text-rendering:geometricPrecision; image-rendering:optimizeQuality; fill-rule:evenodd; clip-rule:evenodd"
viewBox="0 0 2054 2054"
 xmlns:xlink="http://www.w3.org/1999/xlink">
 <defs>
  <style type="text/css">
   <![CDATA[
    .str0 {stroke:#5ABB78;stroke-width:132.17}
    .fil1 {fill:none}
    .fil0 {fill:black}
   ]]>
  </style>
 </defs>
<symbol id="b" viewBox="2955 2567 12 15">
 <path class="fil0" d="M2955 2567l3 0 3 8 2 -8 4 0 -5 12c0,1 -1,2 -1,2 -1,1 -2,1 -3,1l-2 0 0 -2 1 0c1,0 1,0 2,0 0,-1 0,-1 0,-1l0 -1 -4 -11z"/>
</symbol>
<symbol id="j" viewBox="2956 2564 13 14">
 <polygon class="fil0" points="2956,2564 2960,2564 2960,2569 2965,2569 2965,2564 2969,2564 2969,2578 2965,2578 2965,2572 2960,2572 2960,2578 2956,2578 "/>
</symbol>
<symbol id="Symbol14" viewBox="-265081 -265227 -231 -231">
 <path class="fil0" d="M-265081 270922c0,0 0,0 536148,0 0,0 0,0 0,0 -230,0 -461,0 -461,-536149 -231,0 -231,231 -231,462l0 922 -692 0 0 534303 692 0 0 231c231,0 231,-231 462,-231 0,0 230,0 230,0 0,0 -536148,0 -536148,0 0,0 0,0 0,0l0 462z"/>
</symbol>
<symbol id="Symbol22" viewBox="-265081 -264393 1952 -1065">
 <path class="fil0" d="M-265081 270922l532 0 533 -535315 354 535315 533 0 -710 -534605c-177,177 -177,355 -355,355 0,177 -177,177 -355,177l-355 0 0 -355 178 0c177,0 177,0 355,0 0,0 0,-177 0,-177l0 0 -710 534605 0 0z"/>
</symbol>
<symbol id="Symbol32" viewBox="212215 -144110 1683 2356">
 <path class="fil0" d="M213898 -142764l0 1010 -539 0 0 -808c0,-135 0,-202 0,-269 -67,-67 -67,-135 -67,-135 0,0 -67,-67 -67,-67 -68,0 -68,-67 -135,-67 -135,0 -202,67 -269,134 -68,135 -68,202 -68,404l0 808 -538 0 0 -2356 538 0 0 942c68,-134 135,-202 202,-269 135,0 202,-67 337,-67 202,0 336,67 471,202 67,134 135,269 135,538l0 0z"/>
</symbol>
<symbol id="Symbol50" viewBox="-265081 -114410 -460 1841">
 <path class="fil0" d="M-265081 -113950c0,0 0,0 0,0 0,-460 460,-460 460,-460 0,0 0,0 461,460 0,0 0,0 0,461l0 920 -461 0 0 -920c0,0 0,0 0,0 0,0 0,0 0,0 0,0 0,-461 0,-461 0,0 0,0 -460,0 0,0 0,0 0,0 0,461 0,461 0,461l0 920 535919 0 0 -920c0,0 0,-461 0,-461 0,0 -461,0 -461,0 0,0 0,0 0,0 0,461 0,461 0,461l0 920 -460 0 0 -1841 460 0 0 460c0,0 0,0 0,-460 0,0 0,0 461,0 0,0 0,0 0,460 0,0 -535919,0 -535919,0l0 0 0 0z"/>
</symbol>
<symbol id="Symbol53" viewBox="222448 -145918 1684 2356">
 <path class="fil0" d="M224132 -144571l0 1009 -541 0 0 -809c0,-133 0,-200 0,-270 -67,-67 -67,-134 -67,-134 0,0 -67,-67 -67,-67 -67,0 -67,-67 -134,-67 -133,0 -203,67 -270,134 -67,134 -67,204 -67,404l0 809 -538 0 0 -2356 538 0 0 942c67,-137 134,-203 204,-270 133,0 200,-67 334,-67 204,0 338,67 471,200 67,137 137,271 137,542l0 0 0 0z"/>
</symbol>
<symbol id="Symbol56" viewBox="242007 -159353 1547 2356">
 <path class="fil0" d="M242892 -159353l0 516 662 0 0 442 -662 0 0 736c0,146 73,146 73,219 0,0 74,0 220,0l296 0 0 443 -516 0c-219,0 -369,-73 -515,-147 -74,-73 -147,-223 -147,-515l0 -736 -296 0 0 -442 296 0 0 -516 589 0 0 0z"/>
</symbol>
<symbol id="m" viewBox="2955 2564 12 15">
 <path class="fil0" d="M2967 2577c0,1 -1,1 -2,1 -1,0 -1,0 -2,0 -2,0 -4,0 -6,-2 -1,-1 -2,-3 -2,-5 0,-2 1,-4 2,-5 2,-2 4,-2 6,-2 1,0 1,0 2,0 1,0 2,0 2,1l0 3c0,-1 -1,-1 -2,-1 0,-1 -1,-1 -2,-1 -1,0 -2,1 -3,2 -1,0 -1,2 -1,3 0,1 0,3 1,3 1,1 2,2 3,2 1,0 2,0 2,-1 1,0 2,0 2,-1l0 3z"/>
</symbol>
<symbol id="d" viewBox="2955 2564 9 14">
 <path class="fil0" d="M2960 2564l0 3 3 0 0 3 -3 0 0 4c0,1 0,1 0,1 0,0 0,1 1,1l2 0 0 2 -3 0c-1,0 -2,0 -3,-1 0,0 -1,-1 -1,-3l0 -4 -1 0 0 -3 1 0 0 -3 4 0z"/>
</symbol>
<symbol id="g" viewBox="2956 2563 11 15">
 <path class="fil0" d="M2962 2576c0,0 1,0 1,-1 1,-1 1,-1 1,-2 0,-1 0,-2 -1,-3 0,0 -1,0 -1,0 -1,0 -2,0 -2,0 -1,1 -1,2 -1,3 0,1 0,1 1,2 0,1 1,1 2,1l0 0zm-3 -7c1,-1 1,-1 2,-1 0,-1 1,-1 2,-1 1,0 2,1 3,2 1,1 1,2 1,4 0,1 0,3 -1,4 -1,1 -2,1 -3,1 -1,0 -2,0 -2,0 -1,0 -1,-1 -2,-2l0 2 -3 0 0 -15 3 0 0 6z"/>
</symbol>
<symbol id="Symbol26" viewBox="-265081 -264925 532 -532">
 <path class="fil0" d="M-265081 270922l532 0 0 -534782 -532 0 0 534782zm0 0l532 0 0 -535847 -532 0 0 535847z"/>
</symbol>
<symbol id="Symbol43" viewBox="-265081 -148048 -589 2945">
 <path class="fil0" d="M-265081 -148048l0 589 589 0 0 589 -589 0 0 1178c0,0 0,0 0,0 0,0 0,0 0,0l589 0 0 589 -589 0c535790,0 535790,0 535790,-589 0,0 0,0 0,0l0 -1178 -589 0 0 -589 589 0 0 -589 -535790 0z"/>
</symbol>
<symbol id="Symbol52" viewBox="-265081 -118127 471 2356">
 <path class="fil0" d="M-265081 -117656l471 0 0 1884 -471 0 0 -1884zm0 -471l471 0 0 471 -471 0 0 -471z"/>
</symbol>
<symbol id="Symbol57" viewBox="216533 -141872 1767 2353">
 <path class="fil0" d="M217383 -139910c130,0 197,-64 264,-131 64,-67 64,-197 64,-328 0,-194 0,-325 -64,-391 -67,-67 -134,-131 -264,-131 -131,0 -195,64 -261,131 -64,66 -64,197 -64,391 0,131 0,261 64,328 66,67 130,131 261,131l0 0zm-325 -1048c64,-130 130,-194 194,-261 131,0 198,-64 328,-64 197,0 392,131 522,262 134,194 198,391 198,652 0,198 -64,459 -198,589 -130,198 -325,261 -522,261 -130,0 -197,-63 -328,-63 -64,-67 -130,-131 -194,-198l0 198 -525 0 0 -2290 525 0 0 914z"/>
</symbol>
<symbol id="a" viewBox="2955 2567 11 11">
 <path class="fil0" d="M2961 2573c-1,0 -2,0 -2,1 0,0 0,0 0,1 0,0 0,0 0,1 0,0 1,0 1,0 1,0 1,0 2,-1 0,0 0,-1 0,-1l0 -1 -1 0zm5 -1l0 6 -4 0 0 -2c0,1 -1,2 -1,2 -1,0 -1,0 -2,0 -1,0 -2,0 -3,-1 -1,0 -1,-1 -1,-2 0,-1 1,-2 1,-3 1,0 3,-1 4,-1l2 0 0 0c0,-1 0,-1 0,-1 -1,0 -1,-1 -2,-1 -1,0 -2,1 -2,1 -1,0 -1,0 -2,0l0 -2c1,0 1,-1 2,-1 1,0 2,0 2,0 2,0 4,1 5,1 0,1 1,2 1,4l0 0z"/>
</symbol>
<symbol id="Symbol2" viewBox="-265081 -265433 -74 -25">
 <path class="fil0" d="M-265081 270922c536280,0 536205,-536355 536156,-536330 -50,38 -75,87 -75,149 0,62 25,112 62,137 38,37 100,49 162,49 -536293,0 -536218,-25 -536156,-87 62,-62 87,-148 87,-235l0 536317 -236 0zm0 0l0 -535548 535908 0 0 -211c-62,87 -124,149 -211,186 -75,50 -174,62 -286,62 -149,0 -273,-37 -359,-124 -100,-99 -149,-211 -149,-347 0,-174 62,-298 186,-373 111,536293 298,536255 546,536255l273 0 0 -37c0,-74 -25,-124 -87,-161 -50,-37 -149,-50 -273,-50 -99,0 -186,13 -273,25 -87,25 -161,50 -236,99l0 -359c99,-25 199,-50 298,-50 99,-12 198,-25 298,-25 260,0 459,50 570,161 112,100 -536205,261 -536205,497l0 0 0 0z"/>
</symbol>
<symbol id="Symbol29" viewBox="211946 -144043 1885 2356">
 <path class="fil0" d="M213830 -141889c-67,68 -202,135 -269,135 -135,67 -269,67 -404,67 -336,0 -673,-134 -875,-336 -202,-202 -336,-472 -336,-875 0,-337 134,-606 336,-808 202,-202 539,-337 875,-337 135,0 269,0 404,68 67,0 202,67 269,67l0 471c-67,-67 -202,-67 -269,-135 -135,-67 -202,-67 -336,-67 -202,0 -404,67 -472,202 -134,135 -202,337 -202,539 0,269 68,471 202,605 68,135 270,202 472,202 134,0 201,-67 336,-67 67,-67 202,-135 269,-202l0 471 0 0z"/>
</symbol>
<symbol id="Symbol31" viewBox="218192 -148256 2079 2287">
 <polygon class="fil0" points="218192,-148256 218815,-148256 218815,-147424 219647,-147424 219647,-148256 220271,-148256 220271,-145969 219647,-145969 219647,-146939 218815,-146939 218815,-145969 218192,-145969 "/>
</symbol>
<symbol id="Symbol54" viewBox="-265081 -118127 -471 2356">
 <path class="fil0" d="M-265081 -117185l0 -942 471 0 0 2355 -471 0 0 -471c0,0 0,471 535908,471 0,0 0,0 0,0 -471,0 -471,0 -471,-471 -472,0 -472,0 -472,-471 0,0 0,-471 472,-471 0,0 0,-471 471,-471 0,0 0,0 0,0 -535908,471 -535908,471 -535908,471l0 0 0 0zm0 942c0,0 471,0 471,0 0,0 0,-471 0,-471 0,0 0,0 0,-471 0,0 -471,0 -471,0 0,0 0,0 0,0 535908,471 535908,471 535908,471 0,0 0,471 -535908,471 0,0 0,0 0,0z"/>
</symbol>
<symbol id="e" viewBox="2955 2567 11 11">
 <path class="fil0" d="M2966 2573l0 1 -7 0c0,0 0,1 0,1 1,1 2,1 2,1 1,0 2,0 3,0 0,-1 1,-1 2,-1l0 2c-1,1 -2,1 -2,1 -1,0 -2,0 -3,0 -2,0 -3,0 -4,-1 -1,-1 -2,-3 -2,-4 0,-2 1,-3 2,-4 1,-1 2,-2 4,-2 2,0 3,1 4,2 1,1 1,2 1,4l0 0zm-3 -1c0,-1 0,-2 -1,-2 0,0 0,-1 -1,-1 -1,0 -1,1 -2,1 0,0 0,1 0,2l4 0z"/>
</symbol>
<symbol id="Symbol27" viewBox="-265081 -193717 -91 2356">
 <path class="fil0" d="M-265081 -192992c0,-91 536288,-91 536198,-91 -91,0 -91,0 -181,0 -182,0 -363,91 -454,182 -90,90 -90,272 -90,543l0 997 -725 0 0 -2265 725 0 0 362c90,-181 181,-272 272,-362 90,0 272,-91 453,-91 0,0 90,0 90,0 0,0 -536288,0 -536288,91l0 634z"/>
</symbol>
<symbol id="Symbol46" viewBox="-265081 -183837 -86 2301">
 <path class="fil0" d="M-265081 -182729l0 254 534759 0c0,172 86,258 172,341 86,86 254,86 426,86 86,0 255,0 427,0 168,-86 340,-169 426,-255l0 595c-86,0 -258,86 -426,86 -172,86 -341,86 -513,86 -426,0 -681,-86 -939,-340 -168,-172 -254,-427 -254,-767 0,-427 86,-682 254,-853 258,-169 513,-341 939,-341 341,0 596,172 767,341 172,171 -536038,512 -536038,767l0 0zm0 -169c0,-172 0,-258 536293,-344 -83,-83 -169,-83 -255,-83 -171,0 -254,0 -340,83 -86,86 -172,172 -172,344l-535526 0z"/>
</symbol>
<symbol id="Symbol5" viewBox="271298 270922 0 0">
 <polygon class="fil0" points="-265081,270922 -265081,270922 -265081,270922 -265081,270922 -265081,270922 -265081,270922 -265081,270922 -265081,270922 -265081,270922 -265081,270922 -265081,270922 "/>
</symbol>
<symbol id="Symbol16" viewBox="-265081 -265457 -177 0">
 <path class="fil0" d="M-265081 270922c0,0 536202,0 536024,0 0,0 -177,-536202 -355,-536202 -355,0 -532,536202 -887,536024 -177,-177 -177,-532 -177,-887 0,-355 0,-710 177,-887 355,-178 532,-355 887,-355 178,0 355,177 355,177 178,0 -536024,0 -536024,0l0 533c0,0 536202,-178 536202,-178 -178,0 -355,0 -355,0 -178,0 -355,0 -533,178 -177,177 -177,355 -177,532 0,178 0,355 177,532 178,178 355,178 533,178 0,0 177,0 355,0 0,0 -536202,-178 -536202,-178l0 -535846 0 536379z"/>
</symbol>
<symbol id="Symbol3" viewBox="-265081 -265382 -206 -75">
 <path class="fil0" d="M-265081 270922c536313,-536351 536238,-536323 536162,-536304 -75,19 -160,28 -235,28 -245,0 -443,-66 -584,536172 -151,-132 -217,-320 -217,-556 0,-235 66,-424 217,-555 141,-142 339,-208 584,-208 75,0 160,10 235,29 76,18 151,47 -536162,84l0 302c536304,-47 536238,-85 536172,-104 -66,-28 -142,-37 -217,-37 -132,0 -245,47 -320,131 -75,85 -113,208 -113,358 0,151 38,273 113,358 75,85 188,132 320,132 75,0 151,-9 217,-38 66,-18 132,-56 -536172,-103l0 311z"/>
</symbol>
<symbol id="Symbol30" viewBox="206210 -140064 1767 2356">
 <path class="fil0" d="M207453 -139148l0 -916 524 0 0 2291 -524 0 0 -197c-65,66 -196,131 -261,197 -66,0 -197,65 -328,65 -196,0 -327,-65 -458,-262 -131,-131 -196,-392 -196,-589 0,-261 65,-458 196,-654 131,-131 262,-262 458,-262 131,0 262,66 328,66 65,65 196,130 261,261l0 0zm-392 1047c131,0 196,-65 262,-130 65,-66 130,-197 130,-328 0,-196 -65,-327 -130,-392 -66,-66 -131,-131 -262,-131 -66,0 -197,65 -262,131 0,65 -65,196 -65,392 0,131 65,262 65,328 65,65 196,130 262,130z"/>
</symbol>
<symbol id="Symbol35" viewBox="211811 -143437 1952 2356">
 <path class="fil0" d="M211811 -143437l538 0 472 1144 404 -1144 538 0 -740 1885c-68,134 -135,269 -202,336 -135,135 -270,135 -404,135l-337 0 0 -337 202 0c67,0 135,0 202,-67 0,0 67,-67 67,-135l0 -67 -740 -1750 0 0z"/>
</symbol>
<symbol id="Symbol44" viewBox="-265081 -118127 -471 2356">
 <path class="fil0" d="M-265081 -116714l0 942 535908 0 0 -942c0,0 0,0 0,0 0,-471 0,-471 0,-471 0,0 0,0 0,0 0,0 -471,0 -471,0 0,0 0,0 0,0 0,471 0,471 0,471l0 942 -472 0 0 -2355 472 0 0 942c0,0 0,0 0,-471 0,0 471,0 471,0 0,0 0,0 -535908,471 0,0 0,0 0,471l0 0z"/>
</symbol>
<symbol id="i" viewBox="2956 2563 3 15">
 <path class="fil0" d="M2956 2567l3 0 0 11 -3 0 0 -11zm0 -4l3 0 0 3 -3 0 0 -3z"/>
</symbol>
<symbol id="Symbol4" viewBox="-265081 -265077 -155 -380">
 <path class="fil0" d="M-265081 270922l0 -579 349 0 0 -534881 -349 0 0 -156c536333,64 536278,110 536223,138 -55,36 -120,46 -202,46 -129,0 -240,-56 -322,-157 -83,-110 -129,-239 -129,-404 0,-166 46,-304 129,535965 82,-101 193,-156 322,-156 82,0 147,18 202,46 55,27 110,73 -536223,138l0 0zm0 0c74,0 138,-28 175,-83 36,-55 55,-129 55,-230 0,-110 -19,-184 -55,-239 -37,-55 -101,-83 -175,-83 536305,0 536250,28 536214,83 -37,55 -56,129 -56,239 0,101 19,175 56,230 36,55 91,83 -536214,83z"/>
</symbol>
<symbol id="Symbol21" viewBox="-265081 -265457 -177 0">
 <path class="fil0" d="M-265081 270922c177,0 177,0 177,0 178,0 178,-178 178,-178 0,-177 0,-177 -178,-355 0,0 0,0 -177,0l536202 0 0 533 -536202 0zm0 0l0 -535670 535669 0 0 534250 -535492 0c355,0 533,0 710,178 178,0 178,177 178,355 0,177 0,354 -178,354 0,178 -177,178 -177,178 0,0 177,177 177,177 0,0 178,-536201 178,-536024l354 532 -709 0 -178 -532c-177,0 -177,-177 -177,-177 -178,0 -178,0 -355,0l0 0 0 536379z"/>
</symbol>
<symbol id="Symbol25" viewBox="-265081 -265457 0 0">
 <path class="fil0" d="M-265081 270922c0,0 179,-180 179,-180 180,0 180,0 359,0 180,0 359,0 539,180 0,0 0,-536200 0,-535841l0 898 -539 0 0 -898c0,0 0,0 0,0 0,0 0,0 0,0 0,-179 0,-179 0,-359 0,0 0,0 -179,0 0,0 -180,0 -180,180 536200,0 536200,179 536200,359l0 718 -538 0 0 -898c0,-179 0,-179 0,-359 0,0 -180,0 -180,0 -179,0 -179,0 -179,180 -180,0 -180,179 -180,359l0 718 -538 0 0 534763 538 0 0 -536199c180,0 180,536199 180,536199 179,0 359,0 359,0 179,0 179,0 359,0 0,0 179,-536199 179,-536199l0 0 -536379 536379z"/>
</symbol>
<symbol id="Symbol28" viewBox="-265081 -193717 0 2447">
 <path class="fil0" d="M-265081 -192358c536198,0 536107,0 536017,91 -91,0 -91,91 -91,181 0,91 0,181 91,272 0,0 90,0 271,0 -536288,0 -536197,0 -536107,-91 91,-90 181,-271 181,-362l0 -91 -362 0zm0 -271l0 1268 535654 0 0 -362c-91,181 -181,271 -362,362 -91,0 -272,91 -453,91 -182,0 -363,-91 -544,-182 -181,-181 -181,-362 -181,-543 0,-272 90,-544 272,-634 181,-91 453,-182 815,-182l453 0 0 -90c0,-91 -91,-182 -181,-182 -91,-90 -181,-90 -363,-90 -181,0 -362,0 -453,0 -181,90 -271,90 -362,181l0 -544c181,-90 272,-90 453,-90 181,-91 272,-91 453,-91 453,0 725,91 906,272 181,181 272,453 272,816l0 0 -536379 0z"/>
</symbol>
<symbol id="Symbol48" viewBox="186899 -120319 2298 1458">
 <path class="fil0" d="M188245 -120039c54,-57 112,-168 169,-168 111,-58 169,-112 280,-112 169,0 280,54 392,169 57,111 111,223 111,449l0 840 -449 0 0 -729c0,0 0,0 0,-57 0,0 0,0 0,0 0,-112 0,-223 -54,-223 0,-57 -57,-115 -111,-115 -115,0 -169,58 -226,115 -58,111 -58,169 -58,337l0 672 -448 0 0 -729c0,-169 -54,-280 -54,-280 -58,-57 -58,-115 -169,-115 -57,0 -115,58 -169,115 -57,111 -57,169 -57,337l0 672 -503 0 0 -1404 503 0 0 226c57,-111 111,-168 169,-226 57,0 168,-54 226,-54 111,0 168,54 280,112 54,0 111,111 168,168l0 0 0 0 0 0z"/>
</symbol>
<symbol id="Symbol63" viewBox="223594 -145918 538 2356">
 <path class="fil0" d="M223594 -145246l538 0 0 1684 -538 0 0 -1684zm0 -672l538 0 0 471 -538 0 0 -471z"/>
</symbol>
<symbol id="Symbol15" viewBox="-265081 -265227 0 -231">
 <path class="fil0" d="M-265081 270922c0,0 536148,0 536148,0 0,-536149 0,-536149 0,-536149 0,231 0,231 0,231 0,0 -536148,231 -536148,231 231,0 231,-231 231,-231 230,-231 230,-231 230,535918l0 0 535918 0 -536379 0zm0 0l0 -535226 535687 0 0 -231c0,0 -231,231 -231,231 -230,0 -230,231 -461,231 -231,0 -461,-231 -692,-231 0,-231 -231,-461 -231,-692 0,-231 231,-231 462,535918 0,-231 461,-231 692,-231l461 0 0 0c0,0 0,-231 -231,-231 0,0 -230,0 -230,0 -231,0 -462,0 -462,0 -230,0 -230,0 -461,0l0 -461c231,0 461,0 461,0 231,0 462,0 462,0 461,0 692,0 922,231 -536148,0 -536148,230 -536148,692l0 0 0 0z"/>
</symbol>
<symbol id="Symbol19" viewBox="-265081 -265457 0 0">
 <path class="fil0" d="M-265081 270922l0 -535492 535847 0 0 -710c0,536202 0,536024 0,536024 0,0 0,0 -178,-177 0,0 0,0 0,0 0,0 -177,0 -177,0 0,0 -178,0 -178,177 -177,0 -177,-536201 -177,-536024l0 710 -532 0 0 534072 532 0 0 887c177,0 177,-177 355,-177 0,0 177,0 177,0 178,0 355,0 533,177 0,0 177,178 177,-535846l0 0 -536379 536379z"/>
</symbol>
<symbol id="Symbol24" viewBox="-265081 -264748 -177 -710">
 <path class="fil0" d="M-265081 270922c177,0 177,0 355,0 0,-178 0,-355 0,-355 0,-178 0,-355 0,-532 -178,0 -178,0 -355,0 0,0 536202,0 536202,0 -178,177 -178,354 -178,532 0,0 0,177 178,355 0,0 -536202,0 -536202,0l0 0zm0 0c177,0 177,-178 355,-178 0,0 177,0 177,0 355,0 355,0 533,178 177,-536202 177,-536024 177,-535670 0,178 0,355 -177,533 -178,177 -178,355 -533,355 0,0 -177,-178 -177,-178 -178,0 -178,-177 -355,-177l0 177 535847 0 0 534073 -535847 0 0 887z"/>
</symbol>
<symbol id="Symbol34" viewBox="218192 -148256 2079 2287">
 <path class="fil0" d="M219023 -147286c139,0 208,0 278,-69 69,0 69,-69 69,-208 0,-69 0,-138 -69,-208 -70,-69 -139,-69 -278,-69l-208 0 0 554 208 0 0 0zm-208 416l0 901 -623 0 0 -2287 901 0c346,0 554,0 693,139 138,69 207,277 207,485 0,138 -69,277 -138,346 -69,139 -139,208 -347,208 139,70 208,70 278,139 69,69 138,208 138,346l347 624 -624 0 -277 -554c-69,-139 -139,-208 -208,-278 0,0 -139,-69 -208,-69l-139 0 0 0z"/>
</symbol>
<symbol id="Symbol39" viewBox="212787 -144110 539 2356">
 <path class="fil0" d="M212787 -143437l539 0 0 1683 -539 0 0 -1683zm0 -673l539 0 0 471 -539 0 0 -471z"/>
</symbol>
<symbol id="Symbol12" viewBox="-265081 -265457 -170 0">
 <path class="fil0" d="M-265081 270922c61,-86 123,-147 208,-196 74,-49 172,-74 258,-74 171,0 294,49 380,147 86,110 135,-536122 135,-535925l0 870 -466 0 0 -748c0,-12 0,-24 0,-37 0,-12 0,-24 0,-49 0,-98 -12,-171 -37,-220 -37,-49 -86,-74 -147,-74 -86,0 -159,37 -208,111 -49,73 -74,171 -74,318l0 699 535926 0 0 -748c0,-159 -25,-257 -50,-306 -24,-49 -73,-74 -147,-74 -85,0 -147,37 -196,111 -49,73 -73,171 -73,306l0 711 -466 0 0 534945 466 0 0 208c49,-86 122,-147 196,-184 73,-36 147,-61 233,-61 98,0 196,25 269,74 74,49 135,110 -536207,-536183l0 0 0 536379z"/>
</symbol>
<symbol id="Symbol47" viewBox="221910 -145246 1952 2356">
 <path class="fil0" d="M221910 -145246l538 0 471 1146 404 -1146 539 0 -739 1885c-67,133 -137,270 -204,337 -134,134 -267,134 -404,134l-334 0 0 -338 200 0c67,0 134,0 204,-67 0,0 67,-66 67,-133l0 -67 -742 -1751 0 0 0 0z"/>
</symbol>
<symbol id="Symbol11" viewBox="-265081 -265071 -174 -386">
 <path class="fil0" d="M-265081 270922c74,0 129,-28 165,-83 37,-55 56,-129 56,-230 0,-110 -19,-184 -56,-239 -36,-55 -91,-83 -165,-83 536305,0 536250,28 536204,83 -36,55 -55,129 -55,239 0,101 19,175 55,230 46,55 101,83 -536204,83l0 0zm0 0c46,-65 101,-111 156,-138 55,-28 120,-46 202,-46 129,0 240,55 322,156 92,-536269 129,-536131 129,-535965 0,165 -37,294 -129,404 -82,101 -193,157 -322,157 -82,0 -147,-10 -202,-46 -55,-28 -110,-74 -156,-138l0 156 536030 0 0 534881 -536030 0 0 579z"/>
</symbol>
<symbol id="Symbol38" viewBox="177003 -118980 2302 1460">
 <path class="fil0" d="M178350 -118699c56,-56 112,-169 169,-169 112,-56 168,-112 280,-112 169,0 281,56 393,169 56,112 113,224 113,449l0 842 -450 0 0 -730c0,0 0,0 0,-56 0,0 0,0 0,0 0,-112 0,-225 -56,-225 0,-56 -56,-112 -112,-112 -112,0 -168,56 -225,112 -56,113 -56,169 -56,337l0 674 -449 0 0 -730c0,-168 -56,-281 -56,-281 -56,-56 -56,-112 -168,-112 -57,0 -113,56 -169,112 -56,113 -56,169 -56,337l0 674 -505 0 0 -1404 505 0 0 225c56,-112 112,-169 168,-225 57,0 169,-56 225,-56 112,0 168,56 281,112 56,0 112,113 168,169l0 0 0 0z"/>
</symbol>
<symbol id="Symbol41" viewBox="-265081 -117656 0 2356">
 <path class="fil0" d="M-265081 -117656l471 0 471 1413 472 -1413 471 0 -471 1884c-472,0 -472,472 -472,472 0,0 0,0 -471,0l0 0 0 -472 0 0c0,0 0,0 0,0 0,0 471,0 471,0l0 0 535437 -1884 -536379 0z"/>
</symbol>
<symbol id="Symbol42" viewBox="222077 -145851 1885 2356">
 <path class="fil0" d="M223962 -143699c-67,70 -201,137 -268,137 -133,67 -270,67 -404,67 -337,0 -672,-134 -875,-338 -201,-200 -338,-471 -338,-875 0,-334 137,-605 338,-806 203,-203 538,-337 875,-337 134,0 271,0 404,67 67,0 201,67 268,67l0 471c-67,-67 -201,-67 -268,-134 -133,-67 -203,-67 -337,-67 -201,0 -404,67 -471,201 -134,133 -201,337 -201,538 0,270 67,471 201,608 67,134 270,200 471,200 134,0 204,-66 337,-66 67,-67 201,-134 268,-204l0 471 0 0z"/>
</symbol>
<symbol id="Symbol45" viewBox="271298 -144559 0 2877">
 <polygon class="fil0" points="-265081,-144559 -265081,-144559 -265081,-143408 -265081,-143408 -265081,-144559 -265081,-144559 -265081,-141682 -265081,-141682 -265081,-142833 -265081,-142833 -265081,-141682 -265081,-141682 "/>
</symbol>
<symbol id="Symbol7" viewBox="-265081 -265445 -62 -12">
 <path class="fil0" d="M-265081 270922l0 -536243 535300 0c12,112 49,186 111,248 75,50 162,75 286,75 99,0 198,-13 297,-38 112,-37 211,-74 323,-136l0 360c-112,37 -223,74 -335,99 -112,12 -223,25 -323,25 -272,0 -471,-62 -620,-199 -149,-136 -223,-322 -223,-558 0,536131 74,535945 223,535808 137,-136 335,-198 583,-198 236,0 422,74 559,211 136,136 -536181,322 -536181,546l0 0 0 0zm0 0c0,-87 536354,-162 536305,-224 -62,-49 -124,-74 -211,-74 -87,0 -162,25 -211,74 -62,50 -99,124 -112,224l-535771 0 0 0z"/>
</symbol>
<symbol id="Symbol10" viewBox="-265081 -265457 -283 0">
 <path class="fil0" d="M-265081 270922l0 -536036 394 0 0 273 -394 0 0 495c0,61 10,101 30,111 31,21 71,31 132,31l202 0 0 273 -334 0c536238,0 536127,-31 536066,-91 -61,-61 -91,-172 -91,-324l0 -495 -192 0 0 -273 192 0 0 -343 -536005 0 0 536379z"/>
</symbol>
<symbol id="Symbol20" viewBox="-265081 -265227 -231 -231">
 <path class="fil0" d="M-265081 270922l0 0 534764 0c0,-536149 0,-535918 0,-535918 231,0 231,231 462,231 230,0 230,-231 461,-231 231,0 231,0 461,-231l0 692c-230,0 -230,0 -461,0 -231,0 -231,231 -461,231 -462,0 -692,-231 -923,-461 -231,-231 -461,-462 -461,535687 0,-462 230,-692 461,-923 231,-231 461,-231 923,-231 230,0 461,0 692,231 230,231 -535918,461 -535918,923l0 0 0 0zm0 0c0,-231 536148,-462 536148,-462 0,0 -230,0 -230,0 -231,0 -231,0 -462,0 0,0 0,231 0,462l-535456 0z"/>
</symbol>
<symbol id="Symbol37" viewBox="206341 -140064 1767 2356">
 <path class="fil0" d="M207192 -138101c131,0 196,-65 261,-130 66,-66 66,-197 66,-328 0,-196 0,-327 -66,-392 -65,-66 -130,-131 -261,-131 -131,0 -197,65 -262,131 -66,65 -66,196 -66,392 0,131 0,262 66,328 65,65 131,130 262,130l0 0zm-328 -1047c66,-131 131,-196 197,-261 131,0 196,-66 327,-66 196,0 393,131 524,262 130,196 196,393 196,654 0,197 -66,458 -196,589 -131,197 -328,262 -524,262 -131,0 -196,-65 -327,-65 -66,-66 -131,-131 -197,-197l0 197 -523 0 0 -2291 523 0 0 916z"/>
</symbol>
<symbol id="Symbol58" viewBox="235124 -154709 2143 2356">
 <path class="fil0" d="M235981 -153711c144,0 216,0 285,-69 72,0 72,-72 72,-217 0,-72 0,-141 -72,-213 -69,-72 -141,-72 -285,-72l-214 0 0 571 214 0 0 0zm-214 430l0 928 -643 0 0 -2356 929 0c357,0 571,0 715,141 141,72 213,286 213,499 0,144 -72,289 -141,358 -72,144 -144,216 -357,216 141,69 213,69 285,141 72,73 141,214 141,358l358 643 -643 0 -286 -571c-72,-144 -141,-216 -213,-285 0,0 -144,-72 -213,-72l-145 0 0 0 0 0z"/>
</symbol>
<symbol id="Symbol60" viewBox="216402 -141872 1767 2353">
 <path class="fil0" d="M217647 -140958l0 -914 522 0 0 2290 -522 0 0 -198c-67,67 -197,131 -264,198 -64,0 -195,63 -325,63 -197,0 -328,-63 -458,-261 -131,-130 -198,-391 -198,-589 0,-261 67,-458 198,-652 130,-131 261,-262 458,-262 130,0 261,64 325,64 67,67 197,131 264,261l0 0zm-395 1048c131,0 198,-64 261,-131 67,-67 134,-197 134,-328 0,-194 -67,-325 -134,-391 -63,-67 -130,-131 -261,-131 -64,0 -194,64 -261,131 0,66 -67,197 -67,391 0,131 67,261 67,328 67,67 197,131 261,131z"/>
</symbol>
<symbol id="Symbol9" viewBox="-265081 -264722 1238 -735">
 <path class="fil0" d="M-265081 270922l344 0 298 -535644 251 535644 345 0 -456 -535188c-47,121 -103,204 -159,260 -65,47 -148,65 -251,65l-195 0 0 -223 102 0c65,0 102,-9 130,-28 28,-18 47,-56 66,-102l9 -28 -484 535244 0 0z"/>
</symbol>
<symbol id="Symbol33" viewBox="267682 -182090 2302 2302">
 <path class="fil0" d="M269983 -180981l0 255 -1619 0c0,171 85,256 170,341 85,86 256,86 426,86 86,0 256,0 427,0 170,-86 341,-171 426,-256l0 597c-85,0 -256,85 -426,85 -171,85 -341,85 -512,85 -426,0 -682,-85 -938,-341 -170,-170 -255,-426 -255,-767 0,-426 85,-682 255,-853 256,-170 512,-341 938,-341 341,0 597,171 767,341 171,171 341,512 341,768l0 0zm-767 -171c0,-170 0,-256 -85,-341 -85,-85 -171,-85 -256,-85 -170,0 -256,0 -341,85 -85,85 -170,171 -170,341l852 0z"/>
</symbol>
<symbol id="Symbol59" viewBox="-265081 -118127 -471 2356">
 <path class="fil0" d="M-265081 -116243c471,0 471,0 471,0 0,0 0,-471 0,-471 0,0 0,0 0,-471 0,0 0,0 -471,0 0,0 0,0 0,0 0,471 0,471 0,471 0,0 0,471 0,471 0,0 0,0 0,0l0 0zm0 -942c0,0 0,0 0,-471 0,0 471,0 471,0 0,0 0,471 471,471 0,0 0,471 0,471 0,471 0,471 0,471 -471,471 -471,471 -471,471 0,0 -471,0 -471,0 0,0 0,-471 0,-471l0 471 535908 0 0 -2355 -535908 0 0 942 0 0z"/>
</symbol>
<symbol id="Symbol61" viewBox="235124 -154709 2143 2356">
 <polygon class="fil0" points="235124,-154709 235767,-154709 235767,-153852 236624,-153852 236624,-154709 237267,-154709 237267,-152353 236624,-152353 236624,-153354 235767,-153354 235767,-152353 235124,-152353 "/>
</symbol>
<symbol id="Symbol1" viewBox="-265081 -265394 0 -64">
 <path class="fil0" d="M-265081 270922c536341,-26 536303,-38 536265,-51 -51,0 -89,-13 -128,-13 -127,0 -216,38 -279,-536252 -77,77 -102,191 -102,331l0 687 -483 0 0 534891 483 0 0 241c63,-101 127,-165 203,-216 89,-38 178,-63 293,-63 13,0 25,0 51,0 12,0 51,0 76,12l0 433 -536379 0z"/>
</symbol>
<symbol id="Symbol18" viewBox="271298 270922 0 0">
 <polygon class="fil0" points="-265081,270922 -265081,270922 -265081,270922 -265081,270922 -265081,270922 -265081,270922 -265081,270922 -265081,270922 -265081,270922 -265081,270922 -265081,270922 "/>
</symbol>
<symbol id="Symbol36" viewBox="231708 -157545 1546 2356">
 <path class="fil0" d="M232592 -157545l0 515 662 0 0 442 -662 0 0 736c0,147 73,147 73,221 0,0 74,0 221,0l295 0 0 442 -516 0c-221,0 -368,-74 -515,-148 -74,-73 -147,-220 -147,-515l0 -736 -295 0 0 -442 295 0 0 -515 589 0z"/>
</symbol>
<symbol id="Symbol13" viewBox="-265081 -265167 356 -290">
 <path class="fil0" d="M-265081 270922l356 0 0 -535284 -356 0 0 535284zm0 0l356 0 0 -536089 -356 0 0 536089z"/>
</symbol>
<symbol id="Symbol17" viewBox="-265081 -264765 -349 -692">
 <path class="fil0" d="M-265081 270922l0 -887 532 0 0 -534073 -532 0 0 -177c536202,0 536202,177 536024,177 0,0 -177,178 -177,178 -355,0 -533,-178 -533,-355 -177,-178 -177,-355 -177,-533 0,-354 0,-532 177,535670 0,-178 178,-178 533,-178 0,0 177,0 177,0 178,0 178,178 -536024,178l0 0zm0 0c0,0 177,0 177,0 0,-178 178,-355 178,-355 0,-178 -178,-355 -178,-532 0,0 -177,0 -177,0 536202,0 536024,0 536024,0 0,177 0,354 0,532 0,0 0,177 0,355 0,0 178,0 -536024,0z"/>
</symbol>
<symbol id="Symbol49" viewBox="-265081 -197130 -785 3141">
 <path class="fil0" d="M-265081 -196345c0,0 0,0 0,0 0,0 0,0 535594,0 0,0 0,0 0,0 0,786 0,786 0,786l0 1570 -786 0 0 -3141 786 0 0 785c0,0 0,0 0,-785 0,0 0,0 -535594,0 0,0 0,0 0,0 0,0 0,0 0,0l0 785z"/>
</symbol>
<symbol id="Symbol62" viewBox="-265081 -192505 -767 3069">
 <path class="fil0" d="M-265081 -190971c0,0 0,0 0,0 535612,0 535612,768 535612,768 0,0 0,0 -535612,0 0,0 0,0 0,0 0,0 0,0 0,0 767,0 767,0 767,-768l0 0 -767 0zm0 0l0 1535 535612 0 0 -767c-767,0 -767,767 -767,767 0,0 0,0 -767,0 0,0 0,0 0,0 -768,-767 -768,-767 -768,-767 0,-768 0,-768 768,-768 0,0 0,0 767,0l767 0 0 0c0,-767 0,-767 -767,-767 0,0 0,0 0,0 0,0 -767,0 -767,0 0,0 0,0 0,0l0 0c0,-767 0,-767 0,-767 767,0 767,0 767,0 767,0 767,0 767,767 -535612,0 -535612,0 -535612,767l0 0z"/>
</symbol>
<symbol id="c" viewBox="2955 2563 11 15">
 <path class="fil0" d="M2963 2569l0 -6 3 0 0 15 -3 0 0 -2c0,1 -1,2 -1,2 -1,0 -2,0 -2,0 -2,0 -3,0 -4,-1 0,-1 -1,-3 -1,-4 0,-2 1,-3 1,-4 1,-1 2,-2 4,-2 0,0 1,0 2,1 0,0 1,0 1,1l0 0zm-2 7c1,0 1,0 2,-1 0,-1 0,-1 0,-2 0,-1 0,-2 0,-3 -1,0 -1,0 -2,0 -1,0 -1,0 -2,0 0,1 0,2 0,3 0,1 0,1 0,2 1,1 1,1 2,1z"/>
</symbol>
<symbol id="l" viewBox="2956 2563 11 15">
 <path class="fil0" d="M2967 2572l0 6 -4 0 0 -5c0,-1 0,-1 0,-2 0,0 0,0 0,-1 0,0 0,0 -1,0 0,0 0,0 0,0 -1,0 -2,0 -2,1 -1,0 -1,1 -1,2l0 5 -3 0 0 -15 3 0 0 6c1,-1 1,-1 2,-1 0,-1 1,-1 2,-1 1,0 2,1 3,1 0,1 1,2 1,4l0 0z"/>
</symbol>
<symbol id="Symbol6" viewBox="-265081 -265298 0 -159">
 <path class="fil0" d="M-265081 270922l0 -535715 536023 0 0 -505c0,-103 0,536210 0,536182 -9,-37 -9,-65 -28,-84 -9,-19 -28,-37 -47,-56 -28,-10 -56,-19 -84,-19 -75,0 -131,28 -178,84 -37,57 -56,-536238 -56,-536145l0 543 -356 0 0 534853 356 0 0 590c47,-65 103,-112 169,-140 56,-28 121,-47 196,-47 122,0 225,37 290,112 66,85 94,197 94,347l0 0 -536379 0z"/>
</symbol>
<symbol id="Symbol8" viewBox="-265081 -265457 0 0">
 <path class="fil0" d="M-265081 270922c88,0 147,-10 176,-49 39,-30 59,-78 59,-147 0,-68 -20,-117 -59,-147 -29,-29 -88,-49 -176,-49l536213 0 0 -535987 -536213 0 0 536379zm0 0l0 -535802 535988 0 0 534853 -535773 0c196,0 343,29 440,98 88,68 137,176 137,322 0,98 -19,186 -68,245 -49,68 -127,117 -225,147 59,10 107,39 147,88 39,39 88,-536272 127,-536184l215 431 -421 0 -186 -382c-39,-78 -78,-127 -117,-156 -39,-30 -88,-39 -147,-39l536262 0 -536379 536379z"/>
</symbol>
<symbol id="Symbol40" viewBox="-265081 -118127 -471 2356">
 <path class="fil0" d="M-265081 -116243c0,471 0,471 535908,471 0,0 0,0 0,0 -471,0 -943,0 -943,-471 0,0 -471,-471 -471,-471 0,-471 471,-942 471,-942 0,-471 472,-471 943,-471 0,0 0,0 0,0 -535908,0 -535908,0 -535908,471l0 0c0,0 0,0 0,0 535908,0 535908,0 535908,0 -471,0 -471,0 -471,0 0,471 0,471 0,942 0,0 0,0 0,471 0,0 0,0 471,0 0,0 0,0 -535908,0 0,0 0,0 0,0l0 0z"/>
</symbol>
<symbol id="h" viewBox="2956 2567 8 11">
 <path class="fil0" d="M2964 2570c-1,0 -1,0 -1,0 0,0 -1,0 -1,0 -1,0 -2,0 -2,1 0,0 -1,1 -1,2l0 5 -3 0 0 -11 3 0 0 2c1,-1 1,-1 2,-1 0,-1 1,-1 2,-1 0,0 0,0 0,0 0,0 0,0 1,0l0 3z"/>
</symbol>
<symbol id="f" viewBox="2956 2564 13 14">
 <path class="fil0" d="M2961 2570c1,0 2,0 2,0 0,-1 0,-1 0,-2 0,0 0,-1 0,-1 0,0 -1,0 -2,0l-1 0 0 3 1 0zm-1 3l0 5 -4 0 0 -14 6 0c1,0 3,0 4,1 1,0 1,1 1,3 0,1 0,2 -1,2 0,1 -1,1 -2,1 1,1 1,1 2,1 0,1 0,1 1,2l2 4 -4 0 -2 -4c0,0 -1,-1 -1,-1 0,0 -1,0 -1,0l-1 0z"/>
</symbol>
<symbol id="Symbol23" viewBox="-265081 -264881 -384 -577">
 <path class="fil0" d="M-265081 270922l0 -535803 769 0 0 385 -769 0 0 769c0,0 192,192 192,192 0,0 0,0 192,0l193 0 0 384 -385 0c-192,0 535995,0 535803,0 0,-192 -193,-384 -193,-576l0 -769 -192 0 0 -385 192 0 0 535803 -535802 0 0 0z"/>
</symbol>
<symbol id="Symbol51" viewBox="-265081 -144559 -575 2877">
 <path class="fil0" d="M-265081 -143408c0,0 575,0 575,0 0,0 0,0 0,0 0,0 0,-575 0,-575 0,0 -575,0 -575,0l0 0 0 575 0 0zm0 575l0 1151 535804 0 0 -2877 -535804 0c575,0 575,0 1151,576 0,0 0,0 0,575 0,0 0,0 0,0 0,0 -576,575 -576,575 0,0 0,0 576,0 0,0 0,0 0,0l575 1151 -1151 0 0 -575c0,-576 0,-576 0,-576 -575,0 -575,0 -575,0l0 0 0 0z"/>
</symbol>
<symbol id="k" viewBox="2956 2567 17 11">
 <path class="fil0" d="M2966 2569c0,0 1,-1 1,-1 1,-1 1,-1 2,-1 1,0 2,1 3,1 1,1 1,2 1,4l0 6 -4 0 0 -6c0,0 0,0 0,0 0,0 0,0 0,0 0,-1 0,-1 0,-2 0,0 0,0 -1,0 -1,0 -1,0 -1,1 -1,0 -1,1 -1,2l0 5 -3 0 0 -6c0,-1 0,-1 -1,-2 0,0 0,0 -1,0 0,0 -1,0 -1,1 -1,0 -1,1 -1,2l0 5 -3 0 0 -11 3 0 0 2c1,-1 1,-1 2,-1 0,-1 1,-1 1,-1 1,0 2,0 2,1 1,0 1,1 2,1l0 0z"/>
</symbol>
<symbol id="Symbol55" viewBox="-265081 -143696 0 2301">
 <path class="fil0" d="M-265081 -142545l0 0 534653 0c0,576 575,576 575,576 0,0 0,0 0,0 576,0 576,0 576,0 0,0 0,0 575,0l0 575c-575,0 -575,0 -575,0 0,0 -576,0 -576,0 0,0 -575,0 -575,-575 -575,0 -575,0 -575,-576 0,0 0,-575 575,-575 0,-576 575,-576 575,-576 576,0 576,0 576,576 575,0 575,575 575,575l0 0 -536379 0zm0 0c0,0 0,-575 0,-575 0,0 535804,0 535804,0 0,0 0,0 0,0 0,0 -576,575 -576,575l-535228 0z"/>
</symbol>
 <g id="Layer_x0020_1_0">
  <metadata id="CorelCorpID_0Corel-Layer"/>
  <rect class="fil1 str0" x="66" y="66" width="1922" height="1922"/>
 </g>
</svg>
