<?xml version="1.0" encoding="UTF-8"?>
<!DOCTYPE svg PUBLIC "-//W3C//DTD SVG 1.1//EN" "http://www.w3.org/Graphics/SVG/1.1/DTD/svg11.dtd">
<!-- Creator: CorelDRAW X7 -->
<svg xmlns="http://www.w3.org/2000/svg" xml:space="preserve" width="8148px" height="6980px" version="1.1" style="shape-rendering:geometricPrecision; text-rendering:geometricPrecision; image-rendering:optimizeQuality; fill-rule:evenodd; clip-rule:evenodd"
viewBox="0 0 1324 1134"
 xmlns:xlink="http://www.w3.org/1999/xlink">
 <defs>
  <style type="text/css">
   <![CDATA[
    .str1 {stroke:#192F45;stroke-width:3.46669}
    .str0 {stroke:#373435;stroke-width:0.108349}
    .fil1 {fill:none}
    .fil0 {fill:black}
    .fil4 {fill:#192F45}
    .fil2 {fill:red}
    .fil3 {fill:white}
   ]]>
  </style>
 </defs>
<symbol id="m" viewBox="3999 2249 6 7">
 <path class="fil0" d="M4005 2255c-1,1 -1,1 -2,1 0,0 0,0 -1,0 -1,0 -2,0 -2,-1 -1,-1 -1,-2 -1,-3 0,-1 0,-2 1,-2 0,-1 1,-1 2,-1 1,0 1,0 1,0 1,0 1,0 2,0l0 2c-1,-1 -1,-1 -1,-1 -1,0 -1,0 -1,0 -1,0 -2,0 -2,1 0,0 -1,1 -1,1 0,1 1,2 1,2 0,0 1,1 2,1 0,0 0,0 1,-1 0,0 0,0 1,0l0 1z"/>
</symbol>
<symbol id="d" viewBox="3998 2249 4 7">
 <path class="fil0" d="M4001 2249l0 2 1 0 0 1 -1 0 0 2c0,0 0,0 0,0 0,0 0,1 0,1l1 0 0 1 -1 0c-1,0 -1,0 -1,-1 -1,0 -1,0 -1,-1l0 -2 -1 0 0 -1 1 0 0 -2 2 0z"/>
</symbol>
<symbol id="c" viewBox="3999 2249 6 7">
 <path class="fil0" d="M4002 2251l0 -2 2 0 0 7 -2 0 0 -1c0,0 0,1 0,1 -1,0 -1,0 -1,0 -1,0 -1,0 -2,-1 0,0 0,-1 0,-2 0,-1 0,-1 0,-2 1,0 1,-1 2,-1 0,0 0,0 1,1 0,0 0,0 0,0l0 0zm-1 4c1,0 1,0 1,-1 0,0 0,0 0,-1 0,0 0,-1 0,-1 0,0 0,0 -1,0 0,0 0,0 0,0 -1,0 -1,1 -1,1 0,1 0,1 1,1 0,1 0,1 0,1z"/>
</symbol>
<symbol id="j" viewBox="3999 2249 6 7">
 <polygon class="fil0" points="3999,2249 4001,2249 4001,2251 4003,2251 4003,2249 4005,2249 4005,2256 4003,2256 4003,2253 4001,2253 4001,2256 3999,2256 "/>
</symbol>
<symbol id="Symbol17" viewBox="-127830 -129232 -171 -340">
 <path class="fil0" d="M-127830 134235l0 -436 262 0 0 -262673 -262 0 0 -87c263721,0 263721,87 263633,87 0,0 -87,87 -87,87 -174,0 -262,-87 -262,-174 -87,-88 -87,-175 -87,-262 0,-175 0,-262 87,263458 0,-87 88,-87 262,-87 0,0 87,0 87,0 88,0 88,87 -263633,87l0 0zm0 0c0,0 87,0 87,0 0,-87 88,-174 88,-174 0,-87 -88,-175 -88,-262 0,0 -87,0 -87,0 263721,0 263633,0 263633,0 0,87 0,175 0,262 0,0 0,87 0,174 0,0 88,0 -263633,0z"/>
</symbol>
<symbol id="Symbol53" viewBox="111952 -70779 828 1159">
 <path class="fil0" d="M112780 -70117l0 497 -266 0 0 -398c0,-66 0,-99 0,-133 -33,-33 -33,-66 -33,-66 0,0 -33,-33 -33,-33 -33,0 -33,-33 -65,-33 -66,0 -101,33 -134,66 -32,66 -32,100 -32,199l0 398 -265 0 0 -1159 265 0 0 463c32,-67 65,-100 100,-133 66,0 98,-33 164,-33 100,0 166,33 232,99 33,67 67,133 67,266l0 0 0 0z"/>
</symbol>
<symbol id="Symbol85" viewBox="107379 -69762 852 1135">
 <path class="fil0" d="M107979 -69321l0 -441 252 0 0 1104 -252 0 0 -95c-32,32 -95,63 -127,95 -31,0 -94,31 -157,31 -95,0 -158,-31 -221,-126 -63,-63 -95,-189 -95,-284 0,-126 32,-221 95,-315 63,-63 126,-126 221,-126 63,0 126,31 157,31 32,32 95,63 127,126l0 0zm-190 505c63,0 95,-31 126,-63 32,-32 64,-95 64,-158 0,-94 -32,-156 -64,-189 -31,-32 -63,-63 -126,-63 -31,0 -94,31 -126,63 0,33 -32,95 -32,189 0,63 32,126 32,158 32,32 95,63 126,63z"/>
</symbol>
<symbol id="Symbol5" viewBox="135978 134235 0 0">
 <polygon class="fil0" points="-127830,134235 -127830,134235 -127830,134235 -127830,134235 -127830,134235 -127830,134235 -127830,134235 -127830,134235 -127830,134235 -127830,134235 -127830,134235 "/>
</symbol>
<symbol id="Symbol13" viewBox="-127830 -129430 175 -143">
 <path class="fil0" d="M-127830 134235l175 0 0 -263269 -175 0 0 263269zm0 0l175 0 0 -263665 -175 0 0 263665z"/>
</symbol>
<symbol id="Symbol16" viewBox="-127830 -129572 -87 0">
 <path class="fil0" d="M-127830 134235c0,0 263721,0 263633,0 0,0 -87,-263720 -174,-263720 -175,0 -262,263720 -437,263633 -87,-87 -87,-262 -87,-436 0,-175 0,-349 87,-437 175,-87 262,-174 437,-174 87,0 174,87 174,87 88,0 -263633,0 -263633,0l0 262c0,0 263721,-87 263721,-87 -88,0 -175,0 -175,0 -87,0 -174,0 -262,87 -87,87 -87,175 -87,262 0,87 0,174 87,262 88,87 175,87 262,87 0,0 87,0 175,0 0,0 -263721,-87 -263721,-87l0 -263546 0 263807z"/>
</symbol>
<symbol id="Symbol50" viewBox="-127830 -55283 -226 906">
 <path class="fil0" d="M-127830 -55056c0,0 0,0 0,0 0,-227 227,-227 227,-227 0,0 0,0 226,227 0,0 0,0 0,226l0 453 -226 0 0 -453c0,0 0,0 0,0 0,0 0,0 0,0 0,0 0,-226 0,-226 0,0 0,0 -227,0 0,0 0,0 0,0 0,226 0,226 0,226l0 453 263581 0 0 -453c0,0 0,-226 0,-226 0,0 -226,0 -226,0 0,0 0,0 0,0 0,226 0,226 0,226l0 453 -226 0 0 -906 226 0 0 227c0,0 0,0 0,-227 0,0 0,0 226,0 0,0 0,0 0,227 0,0 -263581,0 -263581,0l0 0 0 0z"/>
</symbol>
<symbol id="Symbol78" viewBox="109848 -71291 940 1135">
 <path class="fil0" d="M109848 -71291l259 0 227 552 195 -552 259 0 -356 908c-32,64 -66,130 -98,162 -64,65 -129,65 -194,65l-161 0 0 -163 96 0c32,0 65,0 98,-32 0,0 32,-32 32,-64l0 -33 -357 -843 0 0 0 0 0 0z"/>
</symbol>
<symbol id="Symbol83" viewBox="-127830 -129482 0 -91">
 <path class="fil0" d="M-127830 134235l0 -263717 263037 0c0,91 45,137 90,182 46,45 91,45 182,45 91,0 136,0 227,0 90,-45 136,-45 226,-90l0 226c-90,46 -136,91 -226,91 -91,0 -182,0 -227,0 -227,0 -363,-45 -454,-136 -136,-91 -181,-227 -181,263399 0,-181 45,-317 181,-408 91,-91 227,-136 408,-136 182,0 318,45 409,136 90,91 136,227 136,408l0 0 -263808 0zm0 0c0,-90 263762,-136 263717,-181 -45,-45 -91,-45 -136,-45 -45,0 -136,0 -136,45 -45,45 -91,91 -91,181l-263354 0 0 0z"/>
</symbol>
<symbol id="Symbol86" viewBox="132066 -129297 859 -275">
 <path class="fil0" d="M132479 134235c68,0 103,-34 137,-68 34,-35 34,-103 34,-172 0,-69 0,-138 -34,-172 -34,-34 -69,-69 -137,-69 -35,0 -69,35 -104,69 -34,34 -68,103 -68,172 0,69 34,137 68,172 35,34 69,68 104,68l0 0zm-172 0c34,-34 103,-68 137,-103 35,-34 69,-34 138,-34 103,0 172,34 240,103 69,-263705 103,-263601 103,-263498 0,137 -34,240 -103,309 -68,69 -137,103 -240,103 -69,0 -103,0 -138,-34 -34,0 -103,-35 -137,-103l0 137 -241 0 0 262674 241 0 0 446z"/>
</symbol>
<symbol id="Symbol92" viewBox="135978 134235 0 0">
 <polygon class="fil0" points="-127830,134235 -127830,134235 -127830,134235 -127830,134235 -127830,134235 -127830,134235 -127830,134235 -127830,134235 -127830,134235 -127830,134235 -127830,134235 "/>
</symbol>
<symbol id="Symbol2" viewBox="-127830 -129560 -37 -12">
 <path class="fil0" d="M-127830 134235c263759,0 263722,-263795 263698,-263783 -24,18 -37,43 -37,73 0,31 13,55 31,67 18,19 49,25 79,25 -263765,0 -263728,-12 -263698,-43 31,-30 43,-73 43,-116l0 263777 -116 0zm0 0l0 -263398 263576 0 0 -104c-31,42 -61,73 -104,91 -36,25 -85,31 -140,31 -73,0 -134,-18 -177,-61 -49,-49 -73,-104 -73,-171 0,-85 30,-146 91,-183 55,263765 147,263747 269,263747l134 0 0 -19c0,-36 -12,-61 -43,-79 -24,-18 -73,-24 -134,-24 -49,0 -91,6 -134,12 -43,12 -80,24 -116,49l0 -177c49,-13 98,-25 146,-25 49,-6 98,-12 147,-12 128,0 226,24 280,79 55,49 -263722,129 -263722,244l0 0 0 0z"/>
</symbol>
<symbol id="Symbol6" viewBox="-127830 -129494 0 -78">
 <path class="fil0" d="M-127830 134235l0 -263480 263633 0 0 -249c0,-51 0,263725 0,263711 -5,-18 -5,-32 -14,-41 -5,-10 -14,-19 -23,-28 -14,-5 -28,-9 -41,-9 -37,0 -65,14 -88,41 -18,28 -27,-263738 -27,-263692l0 267 -175 0 0 263057 175 0 0 290c23,-32 50,-55 82,-69 28,-14 60,-23 97,-23 60,0 111,18 143,55 32,42 46,97 46,170l0 0 -263808 0z"/>
</symbol>
<symbol id="Symbol8" viewBox="-127830 -129572 0 0">
 <path class="fil0" d="M-127830 134235c43,0 72,-4 87,-24 19,-14 29,-38 29,-72 0,-33 -10,-58 -29,-72 -15,-14 -44,-24 -87,-24l263726 0 0 -263615 -263726 0 0 263807zm0 0l0 -263523 263615 0 0 263057 -263509 0c96,0 168,14 216,48 44,34 68,86 68,159 0,48 -10,91 -34,120 -24,34 -62,58 -111,72 29,5 53,19 73,43 19,20 43,-263754 62,-263711l106 212 -207 0 -91 -188c-19,-39 -39,-63 -58,-77 -19,-14 -43,-19 -72,-19l263750 0 -263808 263807z"/>
</symbol>
<symbol id="Symbol11" viewBox="-127830 -129382 -85 -190">
 <path class="fil0" d="M-127830 134235c36,0 63,-13 82,-40 18,-27 27,-64 27,-113 0,-55 -9,-91 -27,-118 -19,-27 -46,-41 -82,-41 263772,0 263745,14 263722,41 -18,27 -27,63 -27,118 0,49 9,86 27,113 23,27 50,40 -263722,40l0 0zm0 0c23,-31 50,-54 77,-67 27,-14 59,-23 99,-23 64,0 118,27 159,77 45,-263754 63,-263686 63,-263604 0,81 -18,144 -63,199 -41,49 -95,76 -159,76 -40,0 -72,-4 -99,-22 -27,-14 -54,-36 -77,-68l0 77 263636 0 0 263071 -263636 0 0 284z"/>
</symbol>
<symbol id="Symbol44" viewBox="-127830 -57111 -232 1159">
 <path class="fil0" d="M-127830 -56416l0 464 263576 0 0 -464c0,0 0,0 0,0 0,-231 0,-231 0,-231 0,0 0,0 0,0 0,0 -232,0 -232,0 0,0 0,0 0,0 0,231 0,231 0,231l0 464 -231 0 0 -1159 231 0 0 464c0,0 0,0 0,-232 0,0 232,0 232,0 0,0 0,0 -263576,232 0,0 0,0 0,231l0 0z"/>
</symbol>
<symbol id="Symbol88" viewBox="133598 -129572 1289 0">
 <path class="fil0" d="M134365 134235c0,-34 69,-69 104,-104 35,-35 105,-35 140,-35 104,0 174,35 209,70 69,-263738 69,-263669 69,-263529l0 488 -244 0 0 -419c0,-34 0,-34 0,-34 0,0 0,0 0,-35 0,-35 0,-105 -34,-105 0,-35 -35,-35 -70,-35 -70,0 -105,0 -105,35 -35,35 -69,105 -69,174l0 419 -244 0 0 -419c0,-104 0,-174 -35,-174 0,-35 -35,-35 -70,-35 -70,0 -104,0 -104,35 -35,35 -70,105 -70,174l0 419 -244 0 0 262971 244 0 0 -263668c35,263773 70,263738 139,263703 35,-35 70,-35 105,-35 70,0 104,0 174,35 35,35 70,70 105,-263703l0 0 0 263807z"/>
</symbol>
<symbol id="Symbol94" viewBox="105066 -70711 907 1134">
 <path class="fil0" d="M105974 -69674c-32,32 -97,65 -130,65 -65,32 -129,32 -194,32 -162,0 -324,-65 -421,-162 -98,-97 -163,-227 -163,-421 0,-162 65,-292 163,-389 97,-97 259,-162 421,-162 65,0 129,0 194,32 33,0 98,33 130,33l0 226c-32,-32 -97,-32 -130,-64 -65,-33 -97,-33 -162,-33 -97,0 -194,33 -227,97 -65,65 -97,163 -97,260 0,129 32,227 97,292 33,64 130,97 227,97 65,0 97,-33 162,-33 33,-32 98,-64 130,-97l0 227 0 0 0 0z"/>
</symbol>
<symbol id="k" viewBox="3999 2250 8 5">
 <path class="fil0" d="M4004 2251c0,0 0,0 1,0 0,-1 0,-1 0,-1 1,0 2,1 2,1 0,0 0,1 0,2l0 3 -1 0 0 -3c0,0 0,0 0,0 0,0 0,0 0,0 0,-1 0,-1 -1,-1 0,0 0,0 0,0 0,0 -1,0 -1,0 0,0 0,1 0,1l0 3 -2 0 0 -3c0,-1 0,-1 0,-1 0,0 0,0 0,0 -1,0 -1,0 -1,0 0,0 0,1 0,1l0 3 -2 0 0 -5 2 0 0 0c0,0 0,0 0,0 1,-1 1,-1 1,-1 1,0 1,1 1,1 0,0 1,0 1,0l0 0z"/>
</symbol>
<symbol id="Symbol28" viewBox="-127830 -94288 0 1203">
 <path class="fil0" d="M-127830 -93620c263719,0 263674,0 263630,45 -45,0 -45,45 -45,89 0,45 0,89 45,134 0,0 44,0 133,0 -263763,0 -263718,0 -263674,-45 45,-44 89,-133 89,-178l0 -45 -178 0zm0 -133l0 624 263451 0 0 -179c-44,89 -89,134 -178,179 -44,0 -134,44 -223,44 -89,0 -178,-44 -267,-89 -89,-89 -89,-178 -89,-267 0,-134 44,-268 133,-312 90,-45 223,-89 402,-89l222 0 0 -45c0,-45 -44,-89 -89,-89 -44,-45 -89,-45 -178,-45 -89,0 -178,0 -223,0 -89,45 -134,45 -178,89l0 -267c89,-45 134,-45 223,-45 89,-44 133,-44 223,-44 222,0 356,44 445,134 89,89 134,222 134,401l0 0 -263808 0z"/>
</symbol>
<symbol id="Symbol65" viewBox="102333 -68795 851 1134">
 <path class="fil0" d="M102932 -68354l0 -441 252 0 0 1103 -252 0 0 -95c-32,32 -95,63 -126,95 -32,0 -95,31 -158,31 -95,0 -158,-31 -221,-126 -63,-63 -94,-189 -94,-283 0,-127 31,-221 94,-316 63,-63 126,-126 221,-126 63,0 126,32 158,32 31,31 94,63 126,126l0 0zm-189 504c63,0 94,-31 126,-63 31,-31 63,-94 63,-157 0,-95 -32,-158 -63,-190 -32,-31 -63,-63 -126,-63 -32,0 -95,32 -127,63 0,32 -31,95 -31,190 0,63 31,126 31,157 32,32 95,63 127,63z"/>
</symbol>
<symbol id="a" viewBox="3999 2250 5 5">
 <path class="fil0" d="M4001 2253c0,0 0,0 -1,1 0,0 0,0 0,0 0,0 0,0 0,1 1,0 1,0 1,0 0,0 1,0 1,-1 0,0 0,0 0,0l0 -1 -1 0zm3 0l0 3 -2 0 0 -1c0,0 0,0 -1,1 0,0 0,0 -1,0 0,0 -1,0 -1,-1 0,0 0,0 0,-1 0,0 0,-1 0,-1 1,0 1,-1 2,-1l1 0 0 0c0,0 0,0 0,0 0,0 -1,0 -1,0 0,0 -1,0 -1,0 0,0 -1,0 -1,0l0 -1c0,0 1,0 1,-1 0,0 1,0 1,0 1,0 2,1 2,1 1,0 1,1 1,2l0 0z"/>
</symbol>
<symbol id="Symbol10" viewBox="-127830 -129572 -139 0">
 <path class="fil0" d="M-127830 134235l0 -263638 194 0 0 134 -194 0 0 243c0,30 5,50 15,55 15,10 35,15 65,15l99 0 0 134 -164 0c263738,0 263684,-15 263654,-45 -30,-29 -45,-84 -45,-159l0 -243 -94 0 0 -134 94 0 0 -169 -263624 0 0 263807z"/>
</symbol>
<symbol id="Symbol29" viewBox="106787 -69857 927 1159">
 <path class="fil0" d="M107714 -68797c-34,33 -100,66 -133,66 -66,33 -132,33 -199,33 -165,0 -331,-66 -430,-166 -99,-99 -165,-231 -165,-430 0,-166 66,-298 165,-397 99,-100 265,-166 430,-166 67,0 133,0 199,33 33,0 99,33 133,33l0 232c-34,-33 -100,-33 -133,-66 -66,-33 -99,-33 -165,-33 -100,0 -199,33 -232,99 -66,66 -100,166 -100,265 0,132 34,232 100,298 33,66 132,99 232,99 66,0 99,-33 165,-33 33,-33 99,-66 133,-99l0 232 0 0z"/>
</symbol>
<symbol id="Symbol38" viewBox="89601 -57530 1132 718">
 <path class="fil0" d="M90263 -57392c28,-28 55,-83 83,-83 55,-28 83,-55 138,-55 83,0 138,27 193,83 28,55 56,110 56,221l0 414 -221 0 0 -359c0,0 0,0 0,-28 0,0 0,0 0,0 0,-55 0,-110 -28,-110 0,-28 -27,-55 -55,-55 -55,0 -83,27 -111,55 -27,55 -27,83 -27,165l0 332 -221 0 0 -359c0,-83 -28,-138 -28,-138 -27,-28 -27,-55 -82,-55 -28,0 -56,27 -83,55 -28,55 -28,83 -28,165l0 332 -248 0 0 -691 248 0 0 111c28,-55 55,-83 83,-111 28,0 83,-27 110,-27 56,0 83,27 138,55 28,0 56,55 83,83l0 0 0 0z"/>
</symbol>
<symbol id="Symbol41" viewBox="-127830 -56879 0 1159">
 <path class="fil0" d="M-127830 -56879l232 0 232 695 231 -695 232 0 -232 927c-231,0 -231,232 -231,232 0,0 0,0 -232,0l0 0 0 -232 0 0c0,0 0,0 0,0 0,0 232,0 232,0l0 0 263344 -927 -263808 0z"/>
</symbol>
<symbol id="Symbol42" viewBox="111769 -70746 927 1159">
 <path class="fil0" d="M112696 -69688c-32,35 -98,68 -131,68 -66,32 -133,32 -199,32 -166,0 -330,-65 -431,-166 -98,-98 -166,-231 -166,-430 0,-165 68,-298 166,-396 101,-101 265,-166 431,-166 66,0 133,0 199,33 33,0 99,32 131,32l0 232c-32,-33 -98,-33 -131,-66 -66,-32 -100,-32 -166,-32 -99,0 -199,32 -232,98 -66,66 -98,166 -98,265 0,133 32,232 98,299 33,66 133,99 232,99 66,0 100,-33 166,-33 33,-33 99,-66 131,-101l0 232 0 0z"/>
</symbol>
<symbol id="Symbol91" viewBox="-127830 -129572 -146 0">
 <path class="fil0" d="M-127830 134235c37,0 110,-36 110,-36 36,-37 36,-73 36,-147 0,-36 0,-73 -36,-109 0,0 -73,0 -110,0l263662 0 0 292 -263662 0zm0 0l0 -263368 263515 0 0 262673 -263369 0c183,0 293,0 366,73 37,37 74,110 74,220 0,73 0,146 -37,183 -37,73 -110,110 -183,110 37,36 73,36 110,73 36,-263771 73,-263735 110,-263662l146 330 -293 0 -146 -293c-37,-37 -73,-110 -73,-110 -37,-36 -74,-36 -110,-36l-110 0 0 263807z"/>
</symbol>
<symbol id="Symbol26" viewBox="-127830 -129311 262 -262">
 <path class="fil0" d="M-127830 134235l262 0 0 -263022 -262 0 0 263022zm0 0l262 0 0 -263546 -262 0 0 263546z"/>
</symbol>
<symbol id="Symbol52" viewBox="-127830 -57111 232 1159">
 <path class="fil0" d="M-127830 -56879l232 0 0 927 -232 0 0 -927zm0 -232l232 0 0 232 -232 0 0 -232z"/>
</symbol>
<symbol id="Symbol60" viewBox="108978 -68789 869 1157">
 <path class="fil0" d="M109591 -68340l0 -449 256 0 0 1126 -256 0 0 -97c-33,33 -97,64 -130,97 -32,0 -96,31 -160,31 -97,0 -161,-31 -226,-128 -64,-64 -97,-193 -97,-290 0,-128 33,-225 97,-321 65,-64 129,-128 226,-128 64,0 128,31 160,31 33,33 97,64 130,128l0 0zm-195 516c65,0 98,-32 129,-65 33,-33 66,-97 66,-161 0,-95 -33,-160 -66,-193 -31,-32 -64,-64 -129,-64 -31,0 -95,32 -128,64 0,33 -33,98 -33,193 0,64 33,128 33,161 33,33 97,65 128,65z"/>
</symbol>
<symbol id="Symbol80" viewBox="104516 -70263 1324 840">
 <path class="fil0" d="M105291 -70101c33,-33 65,-97 97,-97 65,-32 97,-65 162,-65 97,0 161,33 226,97 32,65 65,129 65,259l0 484 -259 0 0 -420c0,0 0,0 0,-32 0,0 0,0 0,0 0,-65 0,-129 -32,-129 0,-33 -32,-65 -65,-65 -64,0 -97,32 -129,65 -32,64 -32,97 -32,193l0 388 -259 0 0 -420c0,-97 -32,-161 -32,-161 -32,-33 -32,-65 -97,-65 -32,0 -64,32 -97,65 -32,64 -32,97 -32,193l0 388 -291 0 0 -807 291 0 0 129c32,-65 65,-97 97,-129 32,0 97,-33 129,-33 65,0 97,33 162,65 32,0 64,64 96,97l0 0 0 0 0 0z"/>
</symbol>
<symbol id="Symbol96" viewBox="114664 -77213 744 1135">
 <path class="fil0" d="M115090 -77213l0 248 319 0 0 213 -319 0 0 354c0,71 35,71 35,107 0,0 35,0 106,0l142 0 0 213 -248 0c-106,0 -177,-36 -248,-72 -36,-35 -71,-106 -71,-248l0 -354 -142 0 0 -213 142 0 0 -248 284 0 0 0z"/>
</symbol>
<symbol id="b" viewBox="3998 2251 6 7">
 <path class="fil0" d="M3998 2251l2 0 1 3 2 -3 1 0 -2 5c0,1 0,1 -1,1 0,1 0,1 -1,1l-1 0 0 -1 1 0c0,0 0,0 0,0 0,-1 0,-1 1,-1l0 0 -3 -5z"/>
</symbol>
<symbol id="Symbol34" viewBox="109859 -71929 1022 1125">
 <path class="fil0" d="M110268 -71452c68,0 102,0 136,-34 34,0 34,-34 34,-102 0,-34 0,-68 -34,-102 -34,-34 -68,-34 -136,-34l-103 0 0 272 103 0 0 0zm-103 205l0 443 -306 0 0 -1125 443 0c170,0 272,0 340,68 69,34 103,137 103,239 0,68 -34,136 -68,170 -35,68 -69,102 -171,102 68,34 102,34 136,69 35,34 69,102 69,170l170 307 -307 0 -136 -273c-34,-68 -68,-102 -102,-136 0,0 -68,-34 -103,-34l-68 0 0 0z"/>
</symbol>
<symbol id="Symbol35" viewBox="106720 -69559 960 1159">
 <path class="fil0" d="M106720 -69559l265 0 232 563 199 -563 264 0 -364 927c-33,66 -66,132 -99,166 -66,66 -133,66 -199,66l-165 0 0 -166 99 0c33,0 66,0 99,-33 0,0 33,-33 33,-66l0 -33 -364 -861 0 0z"/>
</symbol>
<symbol id="Symbol40" viewBox="-127830 -57111 -232 1159">
 <path class="fil0" d="M-127830 -56184c0,232 0,232 263576,232 0,0 0,0 0,0 -232,0 -463,0 -463,-232 0,0 -232,-232 -232,-232 0,-231 232,-463 232,-463 0,-232 231,-232 463,-232 0,0 0,0 0,0 -263576,0 -263576,0 -263576,232l0 0c0,0 0,0 0,0 263576,0 263576,0 263576,0 -232,0 -232,0 -232,0 0,232 0,232 0,463 0,0 0,0 0,232 0,0 0,0 232,0 0,0 0,0 -263576,0 0,0 0,0 0,0l0 0z"/>
</symbol>
<symbol id="Symbol62" viewBox="-127830 -93692 -377 1509">
 <path class="fil0" d="M-127830 -92937c0,0 0,0 0,0 263431,0 263431,377 263431,377 0,0 0,0 -263431,0 0,0 0,0 0,0 0,0 0,0 0,0 377,0 377,0 377,-377l0 0 -377 0zm0 0l0 754 263431 0 0 -377c-378,0 -378,377 -378,377 0,0 0,0 -377,0 0,0 0,0 0,0 -377,-377 -377,-377 -377,-377 0,-377 0,-377 377,-377 0,0 0,0 377,0l378 0 0 0c0,-378 0,-378 -378,-378 0,0 0,0 0,0 0,0 -377,0 -377,0 0,0 0,0 0,0l0 0c0,-377 0,-377 0,-377 377,0 377,0 377,0 378,0 378,0 378,377 -263431,0 -263431,0 -263431,378l0 0z"/>
</symbol>
<symbol id="Symbol63" viewBox="112516 -70779 265 1159">
 <path class="fil0" d="M112516 -70449l264 0 0 829 -264 0 0 -829zm0 -330l264 0 0 232 -264 0 0 -232z"/>
</symbol>
<symbol id="Symbol69" viewBox="102396 -68795 851 1134">
 <path class="fil0" d="M102806 -67850c63,0 94,-31 126,-63 31,-31 31,-94 31,-157 0,-95 0,-158 -31,-190 -32,-31 -63,-63 -126,-63 -63,0 -95,32 -126,63 -32,32 -32,95 -32,190 0,63 0,126 32,157 31,32 63,63 126,63l0 0zm-158 -504c32,-63 63,-95 95,-126 63,0 94,-32 157,-32 95,0 189,63 252,126 63,95 95,189 95,316 0,94 -32,220 -95,283 -63,95 -157,126 -252,126 -63,0 -94,-31 -157,-31 -32,-32 -63,-63 -95,-95l0 95 -252 0 0 -1103 252 0 0 441z"/>
</symbol>
<symbol id="Symbol82" viewBox="109945 -71582 907 1134">
 <path class="fil0" d="M110852 -70546c-32,34 -96,66 -128,66 -65,32 -131,32 -195,32 -162,0 -323,-64 -421,-162 -97,-97 -163,-227 -163,-422 0,-161 66,-291 163,-387 98,-99 259,-163 421,-163 64,0 130,0 195,32 32,0 96,32 128,32l0 227c-32,-32 -96,-32 -128,-64 -65,-32 -98,-32 -163,-32 -96,0 -194,32 -227,96 -64,65 -96,163 -96,259 0,131 32,227 96,293 33,65 131,97 227,97 65,0 98,-32 163,-32 32,-33 96,-65 128,-98l0 226 0 0 0 0z"/>
</symbol>
<symbol id="g" viewBox="3999 2249 6 7">
 <path class="fil0" d="M4002 2255c0,0 0,0 1,-1 0,0 0,0 0,-1 0,0 0,-1 0,-1 -1,0 -1,0 -1,0 -1,0 -1,0 -1,0 0,0 0,1 0,1 0,1 0,1 0,1 0,1 0,1 1,1l0 0zm-1 -4c0,0 0,0 0,0 1,-1 1,-1 1,-1 1,0 1,1 2,1 0,1 1,1 1,2 0,1 -1,2 -1,2 -1,1 -1,1 -2,1 0,0 0,0 -1,0 0,-1 0,-1 0,-1l0 1 -2 0 0 -7 2 0 0 2z"/>
</symbol>
<symbol id="Symbol15" viewBox="-127830 -129459 0 -113">
 <path class="fil0" d="M-127830 134235c0,0 263694,0 263694,0 0,-263694 0,-263694 0,-263694 0,114 0,114 0,114 0,0 -263694,113 -263694,113 114,0 114,-113 114,-113 113,-114 113,-114 113,263580l0 0 263581 0 -263808 0zm0 0l0 -263240 263468 0 0 -114c0,0 -114,114 -114,114 -113,0 -113,113 -227,113 -113,0 -227,-113 -340,-113 0,-114 -114,-227 -114,-340 0,-114 114,-114 227,263580 0,-113 227,-113 341,-113l227 0 0 0c0,0 0,-113 -114,-113 0,0 -113,0 -113,0 -114,0 -227,0 -227,0 -114,0 -114,0 -227,0l0 -227c113,0 227,0 227,0 113,0 227,0 227,0 227,0 340,0 453,113 -263694,0 -263694,114 -263694,340l0 0 0 0z"/>
</symbol>
<symbol id="Symbol18" viewBox="135978 134235 0 0">
 <polygon class="fil0" points="-127830,134235 -127830,134235 -127830,134235 -127830,134235 -127830,134235 -127830,134235 -127830,134235 -127830,134235 -127830,134235 -127830,134235 -127830,134235 "/>
</symbol>
<symbol id="Symbol21" viewBox="-127830 -129572 -87 0">
 <path class="fil0" d="M-127830 134235c87,0 87,0 87,0 88,0 88,-87 88,-87 0,-87 0,-87 -88,-174 0,0 0,0 -87,0l263721 0 0 261 -263721 0zm0 0l0 -263458 263459 0 0 262760 -263372 0c175,0 262,0 349,88 88,0 88,87 88,174 0,87 0,175 -88,175 0,87 -87,87 -87,87 0,0 87,87 87,87 0,0 88,-263720 88,-263633l174 262 -349 0 -87 -262c-87,0 -87,-87 -87,-87 -88,0 -88,0 -175,0l0 0 0 263807z"/>
</symbol>
<symbol id="Symbol59" viewBox="-127830 -57111 -232 1159">
 <path class="fil0" d="M-127830 -56184c232,0 232,0 232,0 0,0 0,-232 0,-232 0,0 0,0 0,-231 0,0 0,0 -232,0 0,0 0,0 0,0 0,231 0,231 0,231 0,0 0,232 0,232 0,0 0,0 0,0l0 0zm0 -463c0,0 0,0 0,-232 0,0 232,0 232,0 0,0 0,232 232,232 0,0 0,231 0,231 0,232 0,232 0,232 -232,232 -232,232 -232,232 0,0 -232,0 -232,0 0,0 0,-232 0,-232l0 232 263576 0 0 -1159 -263576 0 0 464 0 0z"/>
</symbol>
<symbol id="Symbol70" viewBox="111166 -74989 1031 1134">
 <path class="fil0" d="M111579 -74508c68,0 103,0 137,-35 35,0 35,-34 35,-103 0,-34 0,-69 -35,-103 -34,-34 -69,-34 -137,-34l-103 0 0 275 103 0 0 0 0 0zm-103 206l0 447 -310 0 0 -1134 447 0c172,0 275,0 344,68 69,35 103,138 103,241 0,69 -34,137 -69,172 -34,68 -68,103 -172,103 69,34 104,34 138,69 34,34 69,103 69,172l172 309 -310 0 -137 -275c-35,-69 -69,-103 -104,-138 0,0 -68,-34 -102,-34l-69 0 0 0 0 0z"/>
</symbol>
<symbol id="Symbol90" viewBox="-127830 -129501 -141 -71">
 <path class="fil0" d="M-127830 134235c263737,-263772 263702,-263772 263631,-263736 -36,0 -107,0 -178,0 -177,0 -319,-36 -425,263666 -106,-107 -177,-249 -177,-426 0,-177 71,-319 177,-425 106,-71 248,-142 425,-142 71,0 142,0 178,35 71,0 106,36 -263631,36l0 248c263737,-35 263702,-71 263666,-71 -71,-35 -106,-35 -177,-35 -107,0 -177,35 -248,106 -36,71 -71,142 -71,248 0,107 35,213 71,284 71,71 141,106 248,106 71,0 106,-35 177,-35 36,-36 71,-36 -263666,-71l0 212 0 0z"/>
</symbol>
<symbol id="Symbol20" viewBox="-127830 -129459 -113 -113">
 <path class="fil0" d="M-127830 134235l0 0 263014 0c0,-263694 0,-263580 0,-263580 113,0 113,113 227,113 113,0 113,-113 227,-113 113,0 113,0 226,-114l0 340c-113,0 -113,0 -226,0 -114,0 -114,114 -227,114 -227,0 -341,-114 -454,-227 -114,-113 -227,-227 -227,263467 0,-226 113,-340 227,-453 113,-114 227,-114 454,-114 113,0 227,0 340,114 113,113 -263581,227 -263581,453l0 0 0 0zm0 0c0,-113 263694,-226 263694,-226 0,0 -113,0 -113,0 -113,0 -113,0 -227,0 0,0 0,113 0,226l-263354 0z"/>
</symbol>
<symbol id="Symbol23" viewBox="-127830 -129289 -189 -284">
 <path class="fil0" d="M-127830 134235l0 -263524 378 0 0 189 -378 0 0 379c0,0 95,94 95,94 0,0 0,0 94,0l95 0 0 189 -189 0c-95,0 263618,0 263524,0 0,-94 -95,-189 -95,-283l0 -379 -94 0 0 -189 94 0 0 263524 -263524 0 0 0z"/>
</symbol>
<symbol id="Symbol24" viewBox="-127830 -129223 -87 -349">
 <path class="fil0" d="M-127830 134235c87,0 87,0 175,0 0,-87 0,-174 0,-174 0,-87 0,-175 0,-262 -88,0 -88,0 -175,0 0,0 263721,0 263721,0 -88,87 -88,175 -88,262 0,0 0,87 88,174 0,0 -263721,0 -263721,0l0 0zm0 0c87,0 87,-87 175,-87 0,0 87,0 87,0 174,0 174,0 262,87 87,-263720 87,-263633 87,-263458 0,87 0,174 -87,262 -88,87 -88,174 -262,174 0,0 -87,-87 -87,-87 -88,0 -88,-87 -175,-87l0 87 263546 0 0 262673 -263546 0 0 436z"/>
</symbol>
<symbol id="Symbol55" viewBox="-127830 -69686 0 1132">
 <path class="fil0" d="M-127830 -69120l0 0 262959 0c0,283 283,283 283,283 0,0 0,0 0,0 283,0 283,0 283,0 0,0 0,0 283,0l0 283c-283,0 -283,0 -283,0 0,0 -283,0 -283,0 0,0 -283,0 -283,-283 -283,0 -283,0 -283,-283 0,0 0,-283 283,-283 0,-283 283,-283 283,-283 283,0 283,0 283,283 283,0 283,283 283,283l0 0 -263808 0zm0 0c0,0 0,-283 0,-283 0,0 263525,0 263525,0 0,0 0,0 0,0 0,0 -283,283 -283,283l-263242 0z"/>
</symbol>
<symbol id="Symbol74" viewBox="-127830 -129525 -47 -47">
 <path class="fil0" d="M-127830 134235c0,0 263761,-47 263713,-47 0,0 -47,0 -94,0 -95,0 -142,47 -189,-263713 -48,47 -95,142 -95,236l0 520 -331 0 0 262674 331 0 0 189c47,-48 95,-95 189,-142 48,-47 95,-47 189,-47 0,0 48,0 48,0 0,0 -263761,0 -263761,0l0 330 0 0z"/>
</symbol>
<symbol id="f" viewBox="3999 2249 6 7">
 <path class="fil0" d="M4002 2252c0,0 0,0 0,0 1,0 1,-1 1,-1 0,0 0,-1 -1,-1 0,0 0,0 0,0l-1 0 0 2 1 0zm-1 1l0 3 -2 0 0 -7 3 0c1,0 1,0 2,0 0,1 0,1 0,2 0,0 0,1 0,1 0,0 0,0 -1,0 0,1 1,1 1,1 0,0 0,0 0,1l1 2 -2 0 0 -2c-1,0 -1,-1 -1,-1 0,0 0,0 -1,0l0 0z"/>
</symbol>
<symbol id="Symbol7" viewBox="-127830 -129566 -31 -6">
 <path class="fil0" d="M-127830 134235l0 -263740 263277 0c6,55 24,91 55,122 37,24 79,36 140,36 49,0 98,-6 147,-18 55,-18 103,-36 158,-67l0 177c-55,18 -109,37 -164,49 -55,6 -110,12 -159,12 -134,0 -232,-31 -305,-98 -73,-67 -110,-158 -110,-274 0,263686 37,263594 110,263527 67,-67 165,-98 287,-98 116,0 207,37 274,104 67,67 -263710,159 -263710,268l0 0 0 0zm0 0c0,-42 263796,-79 263771,-109 -30,-25 -61,-37 -103,-37 -43,0 -80,12 -104,37 -31,24 -49,61 -55,109l-263509 0 0 0z"/>
</symbol>
<symbol id="Symbol9" viewBox="-127830 -129211 609 -362">
 <path class="fil0" d="M-127830 134235l169 0 147 -263446 123 263446 170 0 -224 -263222c-23,60 -51,101 -78,129 -32,22 -73,32 -124,32l-96 0 0 -110 50 0c32,0 51,-5 64,-14 14,-9 23,-27 33,-50l4 -14 -238 263249 0 0z"/>
</symbol>
<symbol id="Symbol49" viewBox="-127830 -95967 -386 1545">
 <path class="fil0" d="M-127830 -95581c0,0 0,0 0,0 0,0 0,0 263422,0 0,0 0,0 0,0 0,387 0,387 0,387l0 772 -387 0 0 -1545 387 0 0 386c0,0 0,0 0,-386 0,0 0,0 -263422,0 0,0 0,0 0,0 0,0 0,0 0,0l0 386z"/>
</symbol>
<symbol id="Symbol64" viewBox="-127830 -129527 -45 -45">
 <path class="fil0" d="M-127830 134235c263762,0 263717,-263762 263672,-263762 -46,45 -46,45 -46,91 0,45 0,91 46,136 0,0 45,0 90,0 -263716,0 -263671,0 -263626,-45 46,-46 46,-91 46,-182l0 263762 -182 0 0 0zm0 0l0 -263172 263445 0 0 -182c-45,91 -91,137 -136,137 -46,45 -136,45 -227,45 -91,0 -182,0 -272,-91 -46,-45 -91,-136 -91,-227 0,-136 45,-227 136,-272 91,-45 227,263717 408,263717l182 0 0 -45c0,-46 0,-91 -45,-91 -46,-45 -137,-45 -227,-45 -46,0 -136,0 -182,0 -45,45 -136,45 -181,90l0 -272c90,0 136,-45 227,-45 90,0 136,0 226,0 182,0 318,45 409,90 90,91 -263672,227 -263672,363l0 0z"/>
</symbol>
<symbol id="Symbol87" viewBox="105245 -70744 810 1134">
 <path class="fil0" d="M106055 -70095l0 486 -259 0 0 -389c0,-65 0,-97 0,-130 -33,-32 -33,-65 -33,-65 0,0 -32,-32 -32,-32 -33,0 -33,-32 -65,-32 -65,0 -97,32 -130,64 -32,65 -32,98 -32,195l0 389 -259 0 0 -1135 259 0 0 454c32,-65 65,-97 97,-130 65,0 97,-32 162,-32 97,0 162,32 227,97 32,65 65,130 65,260l0 0 0 0z"/>
</symbol>
<symbol id="l" viewBox="3999 2249 5 7">
 <path class="fil0" d="M4004 2253l0 3 -1 0 0 -3c0,0 -1,0 -1,-1 0,0 0,0 0,0 0,0 0,0 0,0 0,0 0,0 0,0 -1,0 -1,0 -1,0 0,0 0,1 0,1l0 3 -2 0 0 -7 2 0 0 2c0,0 0,0 0,0 1,-1 1,-1 1,-1 1,0 1,1 2,1 0,0 0,1 0,2l0 0z"/>
</symbol>
<symbol id="Symbol19" viewBox="-127830 -129572 0 0">
 <path class="fil0" d="M-127830 134235l0 -263371 263546 0 0 -349c0,263720 0,263633 0,263633 0,0 0,0 -87,-87 0,0 0,0 0,0 0,0 -87,0 -87,0 0,0 -88,0 -88,87 -87,0 -87,-263720 -87,-263633l0 349 -262 0 0 262673 262 0 0 437c87,0 87,-88 175,-88 0,0 87,0 87,0 87,0 174,0 262,88 0,0 87,87 87,-263546l0 0 -263808 263807z"/>
</symbol>
<symbol id="Symbol22" viewBox="-127830 -129049 960 -524">
 <path class="fil0" d="M-127830 134235l262 0 262 -263284 174 263284 262 0 -349 -262935c-87,88 -87,175 -175,175 0,87 -87,87 -174,87l-175 0 0 -174 88 0c87,0 87,0 174,0 0,0 0,-88 0,-88l0 0 -349 262935 0 0z"/>
</symbol>
<symbol id="Symbol30" viewBox="103966 -67900 869 1159">
 <path class="fil0" d="M104577 -67449l0 -451 258 0 0 1127 -258 0 0 -97c-32,32 -96,64 -129,97 -32,0 -96,32 -161,32 -96,0 -160,-32 -225,-129 -64,-64 -96,-193 -96,-290 0,-128 32,-225 96,-322 65,-64 129,-128 225,-128 65,0 129,32 161,32 33,32 97,64 129,129l0 0zm-193 515c64,0 97,-33 129,-65 32,-32 64,-96 64,-161 0,-96 -32,-161 -64,-193 -32,-32 -65,-64 -129,-64 -32,0 -97,32 -129,64 0,32 -32,97 -32,193 0,65 32,129 32,161 32,32 97,65 129,65z"/>
</symbol>
<symbol id="Symbol37" viewBox="104030 -67900 869 1159">
 <path class="fil0" d="M104448 -66934c65,0 97,-33 129,-65 32,-32 32,-96 32,-161 0,-96 0,-161 -32,-193 -32,-32 -64,-64 -129,-64 -64,0 -96,32 -128,64 -33,32 -33,97 -33,193 0,65 0,129 33,161 32,32 64,65 128,65l0 0zm-161 -515c33,-65 65,-97 97,-129 64,0 97,-32 161,-32 97,0 193,64 257,128 65,97 97,194 97,322 0,97 -32,226 -97,290 -64,97 -160,129 -257,129 -64,0 -97,-32 -161,-32 -32,-33 -64,-65 -97,-97l0 97 -257 0 0 -1127 257 0 0 451z"/>
</symbol>
<symbol id="Symbol72" viewBox="131997 -129301 859 -271">
 <path class="fil0" d="M132616 134235l0 -446 241 0 0 -262674 -241 0 0 -137c-34,68 -69,103 -137,103 -35,34 -69,34 -138,34 -103,0 -172,-34 -241,-103 -68,-69 -103,-172 -103,-309 0,-103 35,-207 103,263498 69,-69 138,-103 241,-103 69,0 103,0 138,34 68,35 103,69 137,103l0 0zm-172 0c35,0 103,-34 138,-68 0,-35 34,-103 34,-172 0,-69 -34,-138 -34,-172 -35,-34 -103,-69 -138,-69 -69,0 -103,35 -137,69 -35,34 -35,103 -35,172 0,69 0,137 35,172 34,34 68,68 137,68z"/>
</symbol>
<symbol id="Symbol89" viewBox="107442 -69762 852 1135">
 <path class="fil0" d="M107852 -68816c63,0 95,-31 127,-63 31,-32 31,-95 31,-158 0,-94 0,-156 -31,-189 -32,-32 -64,-63 -127,-63 -63,0 -94,31 -126,63 -31,33 -31,95 -31,189 0,63 0,126 31,158 32,32 63,63 126,63l0 0zm-157 -505c31,-63 63,-94 94,-126 63,0 95,-31 158,-31 95,0 189,63 252,126 64,94 95,189 95,315 0,95 -31,221 -95,284 -63,95 -157,126 -252,126 -63,0 -95,-31 -158,-31 -31,-32 -63,-63 -94,-95l0 95 -253 0 0 -1104 253 0 0 441z"/>
</symbol>
<symbol id="Symbol93" viewBox="-127830 -129360 248 -213">
 <path class="fil0" d="M-127830 134235l248 0 0 -262957 -248 0 0 262957zm0 0l248 0 0 -263595 -248 0 0 263595z"/>
</symbol>
<symbol id="Symbol95" viewBox="104985 -70420 940 1135">
 <path class="fil0" d="M104985 -70420l260 0 227 552 194 -552 259 0 -356 908c-33,65 -65,130 -97,162 -65,65 -130,65 -195,65l-162 0 0 -162 97 0c33,0 65,0 97,-33 0,0 33,-32 33,-64l0 -33 -357 -843 0 0 0 0z"/>
</symbol>
<symbol id="Symbol98" viewBox="116165 -75847 1032 1135">
 <path class="fil0" d="M116578 -75367c69,0 104,0 137,-33 35,0 35,-35 35,-104 0,-35 0,-68 -35,-103 -33,-35 -68,-35 -137,-35l-103 0 0 275 103 0 0 0 0 0zm-103 207l0 447 -310 0 0 -1134 447 0c173,0 275,0 345,68 68,35 103,137 103,240 0,69 -35,139 -68,172 -35,70 -70,105 -172,105 67,33 102,33 137,67 35,35 68,103 68,173l172 309 -310 0 -137 -275c-35,-69 -68,-104 -103,-137 0,0 -69,-35 -102,-35l-70 0 0 0 0 0 0 0z"/>
</symbol>
<symbol id="e" viewBox="3999 2250 6 5">
 <path class="fil0" d="M4004 2253l0 1 -4 0c0,0 0,0 1,0 0,1 0,1 1,1 0,0 0,0 1,0 0,-1 0,-1 1,-1l0 1c-1,1 -1,1 -1,1 -1,0 -1,0 -1,0 -1,0 -2,0 -3,-1 0,0 0,-1 0,-2 0,-1 0,-1 0,-2 1,0 2,-1 2,-1 1,0 2,1 2,1 1,1 1,1 1,2l0 0zm-2 0c0,-1 0,-1 0,-1 0,0 0,0 -1,0 0,0 0,0 0,0 -1,0 -1,0 -1,1l2 0z"/>
</symbol>
<symbol id="Symbol39" viewBox="107200 -69890 265 1159">
 <path class="fil0" d="M107200 -69559l265 0 0 828 -265 0 0 -828zm0 -331l265 0 0 232 -265 0 0 -232z"/>
</symbol>
<symbol id="Symbol56" viewBox="121572 -77387 761 1159">
 <path class="fil0" d="M122007 -77387l0 254 326 0 0 217 -326 0 0 362c0,72 36,72 36,108 0,0 36,0 108,0l146 0 0 218 -254 0c-108,0 -182,-36 -254,-72 -36,-36 -72,-110 -72,-254l0 -362 -145 0 0 -217 145 0 0 -254 290 0 0 0z"/>
</symbol>
<symbol id="Symbol67" viewBox="-127830 -129572 -71 0">
 <path class="fil0" d="M-127830 134235l0 -263311 263560 0 0 -390c0,-71 0,-106 0,263666 0,-35 -36,-71 -36,-71 0,0 0,-35 -35,-35 0,0 -36,0 -71,0 -36,0 -71,0 -106,35 -36,71 -71,106 -71,-263630l0 425 -248 0 0 262638 248 0 0 461c35,-36 106,-71 141,-107 36,-35 107,-35 142,-35 107,0 178,35 213,71 -263737,71 -263737,142 -263737,-263524l0 0 0 263807z"/>
</symbol>
<symbol id="Symbol73" viewBox="110172 -71614 811 1134">
 <path class="fil0" d="M110983 -70966l0 486 -261 0 0 -389c0,-65 0,-97 0,-130 -32,-33 -32,-65 -32,-65 0,0 -32,-32 -32,-32 -32,0 -32,-32 -65,-32 -64,0 -98,32 -130,64 -32,65 -32,98 -32,195l0 389 -259 0 0 -1134 259 0 0 454c32,-66 64,-99 98,-131 64,0 97,-32 161,-32 98,0 162,32 227,97 32,66 66,130 66,260l0 0 0 0 0 0z"/>
</symbol>
<symbol id="Symbol76" viewBox="131929 -129022 894 -550">
 <path class="fil0" d="M131929 134235l240 0 241 -263257 172 263257 240 0 -309 -262914c-34,104 -103,138 -138,172 -34,69 -103,69 -171,69l-138 0 0 -172 69 0c34,0 69,0 103,0 0,-34 34,-69 34,-103l0 0 -343 262948 0 0z"/>
</symbol>
<symbol id="Symbol81" viewBox="105796 -70744 259 1134">
 <path class="fil0" d="M105796 -70420l259 0 0 811 -259 0 0 -811zm0 -324l259 0 0 227 -259 0 0 -227z"/>
</symbol>
<symbol id="Symbol1" viewBox="-127830 -129541 0 -31">
 <path class="fil0" d="M-127830 134235c263789,-12 263770,-18 263752,-25 -25,0 -44,-6 -63,-6 -63,0 -106,19 -138,-263745 -37,37 -50,94 -50,163l0 337 -237 0 0 263076 237 0 0 119c32,-50 63,-81 100,-106 44,-19 88,-31 144,-31 7,0 13,0 25,0 7,0 25,0 38,6l0 212 -263808 0z"/>
</symbol>
<symbol id="Symbol4" viewBox="-127830 -129385 -76 -187">
 <path class="fil0" d="M-127830 134235l0 -284 172 0 0 -263071 -172 0 0 -77c263785,32 263758,54 263731,68 -27,18 -59,22 -99,22 -64,0 -118,-27 -159,-76 -40,-55 -63,-118 -63,-199 0,-82 23,-150 63,263604 41,-50 95,-77 159,-77 40,0 72,9 99,23 27,13 54,36 -263731,67l0 0zm0 0c36,0 68,-13 86,-40 18,-27 27,-64 27,-113 0,-55 -9,-91 -27,-118 -18,-27 -50,-41 -86,-41 263772,0 263745,14 263726,41 -18,27 -27,63 -27,118 0,49 9,86 27,113 19,27 46,40 -263726,40z"/>
</symbol>
<symbol id="Symbol33" viewBox="134199 -88570 1132 1132">
 <path class="fil0" d="M135331 -88024l0 125 -796 0c0,84 42,126 84,168 41,42 125,42 209,42 42,0 126,0 210,0 84,-42 168,-84 209,-126l0 294c-41,0 -125,42 -209,42 -84,42 -168,42 -252,42 -209,0 -335,-42 -461,-168 -84,-84 -126,-210 -126,-378 0,-209 42,-335 126,-419 126,-84 252,-168 461,-168 168,0 294,84 378,168 83,84 167,252 167,378l0 0zm-377 -84c0,-84 0,-126 -42,-168 -42,-42 -84,-42 -126,-42 -84,0 -126,0 -167,42 -42,42 -84,84 -84,168l419 0z"/>
</symbol>
<symbol id="Symbol48" viewBox="94468 -58189 1130 717">
 <path class="fil0" d="M95130 -58051c27,-28 55,-83 83,-83 55,-28 83,-55 138,-55 83,0 138,27 192,83 28,55 55,110 55,221l0 413 -221 0 0 -358c0,0 0,0 0,-28 0,0 0,0 0,0 0,-55 0,-110 -26,-110 0,-28 -28,-56 -55,-56 -56,0 -83,28 -111,56 -28,55 -28,83 -28,166l0 330 -221 0 0 -358c0,-83 -27,-138 -27,-138 -28,-28 -28,-56 -83,-56 -28,0 -56,28 -83,56 -28,55 -28,83 -28,166l0 330 -247 0 0 -690 247 0 0 111c28,-55 55,-83 83,-111 28,0 83,-27 111,-27 55,0 83,27 138,55 27,0 55,55 83,83l0 0 0 0 0 0z"/>
</symbol>
<symbol id="Symbol51" viewBox="-127830 -70111 -283 1415">
 <path class="fil0" d="M-127830 -69545c0,0 283,0 283,0 0,0 0,0 0,0 0,0 0,-283 0,-283 0,0 -283,0 -283,0l0 0 0 283 0 0zm0 283l0 566 263525 0 0 -1415 -263525 0c283,0 283,0 566,283 0,0 0,0 0,283 0,0 0,0 0,0 0,0 -283,283 -283,283 0,0 0,0 283,0 0,0 0,0 0,0l283 566 -566 0 0 -283c0,-283 0,-283 0,-283 -283,0 -283,0 -283,0l0 0 0 0z"/>
</symbol>
<symbol id="Symbol66" viewBox="110357 -71134 1324 840">
 <path class="fil0" d="M111132 -70972c32,-33 65,-97 98,-97 64,-33 97,-65 161,-65 97,0 161,32 225,98 34,64 65,128 65,258l0 484 -259 0 0 -419c0,0 0,0 0,-33 0,0 0,0 0,0 0,-65 0,-129 -31,-129 0,-33 -33,-66 -64,-66 -66,0 -97,33 -130,66 -33,64 -33,97 -33,194l0 387 -259 0 0 -419c0,-98 -31,-162 -31,-162 -33,-33 -33,-66 -98,-66 -33,0 -66,33 -97,66 -33,64 -33,97 -33,194l0 387 -289 0 0 -808 289 0 0 130c33,-64 64,-97 97,-130 33,0 98,-32 131,-32 64,0 97,32 161,65 31,0 64,64 97,97l0 0 0 0 0 0 0 0z"/>
</symbol>
<symbol id="Symbol71" viewBox="111000 -71614 259 1134">
 <path class="fil0" d="M111000 -71291l259 0 0 811 -259 0 0 -811zm0 -323l259 0 0 227 -259 0 0 -227z"/>
</symbol>
<symbol id="Symbol75" viewBox="111166 -74989 1031 1134">
 <polygon class="fil0" points="111166,-74989 111476,-74989 111476,-74577 111888,-74577 111888,-74989 112198,-74989 112198,-73855 111888,-73855 111888,-74336 111476,-74336 111476,-73855 111166,-73855 "/>
</symbol>
<symbol id="Symbol84" viewBox="-127830 -129345 -227 -227">
 <path class="fil0" d="M-127830 134235l0 -263580 303 0 0 226 -303 0 0 379c0,37 0,75 38,75 0,0 38,0 76,0l151 0 0 227 -227 0c263694,0 263619,-38 263543,-76 -38,-37 -38,-113 -38,-226l0 -379 -151 0 0 -226 151 0 0 263580 -263543 0z"/>
</symbol>
<symbol id="Symbol25" viewBox="-127830 -129572 0 0">
 <path class="fil0" d="M-127830 134235c0,0 88,-88 88,-88 89,0 89,0 177,0 88,0 177,0 265,88 0,0 0,-263719 0,-263542l0 441 -265 0 0 -441c0,0 0,0 0,0 0,0 0,0 0,0 0,-89 0,-89 0,-177 0,0 0,0 -88,0 0,0 -89,0 -89,88 263720,0 263720,89 263720,177l0 353 -265 0 0 -441c0,-89 0,-89 0,-177 0,0 -88,0 -88,0 -89,0 -89,0 -89,88 -88,0 -88,89 -88,177l0 353 -265 0 0 263013 265 0 0 -263719c88,0 88,263719 88,263719 89,0 177,0 177,0 88,0 88,0 177,0 0,0 88,-263719 88,-263719l0 0 -263808 263807z"/>
</symbol>
<symbol id="Symbol32" viewBox="106919 -69890 828 1159">
 <path class="fil0" d="M107747 -69228l0 497 -265 0 0 -398c0,-66 0,-99 0,-132 -33,-33 -33,-66 -33,-66 0,0 -33,-33 -33,-33 -34,0 -34,-33 -67,-33 -66,0 -99,33 -132,66 -33,66 -33,99 -33,198l0 398 -265 0 0 -1159 265 0 0 463c33,-66 66,-99 99,-132 66,0 99,-33 166,-33 99,0 165,33 231,99 34,66 67,133 67,265l0 0z"/>
</symbol>
<symbol id="Symbol43" viewBox="-127830 -71827 -290 1448">
 <path class="fil0" d="M-127830 -71827l0 290 290 0 0 290 -290 0 0 579c0,0 0,0 0,0 0,0 0,0 0,0l290 0 0 290 -290 0c263518,0 263518,0 263518,-290 0,0 0,0 0,0l0 -579 -289 0 0 -290 289 0 0 -290 -263518 0z"/>
</symbol>
<symbol id="Symbol58" viewBox="118186 -75103 1054 1159">
 <path class="fil0" d="M118608 -74612c71,0 106,0 140,-34 36,0 36,-36 36,-107 0,-35 0,-69 -36,-104 -34,-36 -69,-36 -140,-36l-105 0 0 281 105 0 0 0zm-105 211l0 457 -317 0 0 -1159 457 0c176,0 281,0 352,70 69,35 105,140 105,245 0,71 -36,142 -70,176 -35,71 -71,106 -175,106 69,34 104,34 140,70 35,35 69,105 69,176l176 316 -316 0 -140 -281c-36,-71 -70,-106 -105,-140 0,0 -71,-36 -105,-36l-71 0 0 0 0 0z"/>
</symbol>
<symbol id="Symbol61" viewBox="118186 -75103 1054 1159">
 <polygon class="fil0" points="118186,-75103 118503,-75103 118503,-74682 118924,-74682 118924,-75103 119240,-75103 119240,-73944 118924,-73944 118924,-74436 118503,-74436 118503,-73944 118186,-73944 "/>
</symbol>
<symbol id="Symbol12" viewBox="-127830 -129572 -84 0">
 <path class="fil0" d="M-127830 134235c30,-42 60,-72 103,-96 36,-24 84,-36 126,-36 85,0 145,24 187,72 42,54 66,-263681 66,-263585l0 428 -229 0 0 -367c0,-6 0,-12 0,-18 0,-6 0,-12 0,-24 0,-49 -6,-85 -18,-109 -18,-24 -42,-36 -72,-36 -42,0 -78,18 -103,54 -24,36 -36,85 -36,157l0 343 263585 0 0 -367c0,-79 -12,-127 -24,-151 -12,-24 -36,-36 -73,-36 -42,0 -72,18 -96,54 -24,36 -36,85 -36,151l0 349 -229 0 0 263103 229 0 0 102c24,-42 60,-72 96,-90 36,-18 73,-30 115,-30 48,0 96,12 132,36 37,24 67,54 -263723,-263711l0 0 0 263807z"/>
</symbol>
<symbol id="Symbol14" viewBox="-127830 -129459 -113 -113">
 <path class="fil0" d="M-127830 134235c0,0 0,0 263694,0 0,0 0,0 0,0 -113,0 -226,0 -226,-263694 -114,0 -114,114 -114,227l0 454 -340 0 0 262787 340 0 0 113c114,0 114,-113 227,-113 0,0 113,0 113,0 0,0 -263694,0 -263694,0 0,0 0,0 0,0l0 226z"/>
</symbol>
<symbol id="Symbol47" viewBox="111687 -70449 960 1159">
 <path class="fil0" d="M111687 -70449l265 0 232 564 199 -564 264 0 -363 927c-33,66 -67,133 -100,166 -66,66 -132,66 -199,66l-165 0 0 -166 99 0c33,0 66,0 100,-33 0,0 33,-33 33,-66l0 -33 -365 -861 0 0 0 0z"/>
</symbol>
<symbol id="Symbol79" viewBox="116165 -75847 1032 1135">
 <polygon class="fil0" points="116165,-75847 116475,-75847 116475,-75435 116887,-75435 116887,-75847 117197,-75847 117197,-74713 116887,-74713 116887,-75195 116475,-75195 116475,-74713 116165,-74713 "/>
</symbol>
<symbol id="h" viewBox="3999 2250 4 5">
 <path class="fil0" d="M4003 2252c0,0 0,0 -1,0 0,0 0,0 0,0 0,0 -1,0 -1,0 0,0 0,1 0,1l0 3 -2 0 0 -5 2 0 0 0c0,0 0,0 0,0 1,-1 1,-1 1,-1 0,0 0,0 1,0 0,0 0,0 0,0l0 2z"/>
</symbol>
<symbol id="Symbol3" viewBox="-127830 -129535 -101 -37">
 <path class="fil0" d="M-127830 134235c263775,-263793 263738,-263780 263701,-263770 -37,9 -78,14 -116,14 -120,0 -217,-33 -287,263705 -74,-64 -106,-157 -106,-273 0,-116 32,-208 106,-273 70,-70 167,-102 287,-102 38,0 79,5 116,14 37,9 74,23 -263701,41l0 149c263771,-23 263738,-42 263706,-51 -32,-14 -70,-19 -107,-19 -64,0 -120,23 -157,65 -37,42 -56,102 -56,176 0,74 19,134 56,176 37,42 93,65 157,65 37,0 75,-5 107,-18 32,-10 65,-28 -263706,-51l0 152z"/>
</symbol>
<symbol id="Symbol27" viewBox="-127830 -94288 -45 1159">
 <path class="fil0" d="M-127830 -93932c0,-44 263763,-44 263719,-44 -45,0 -45,0 -89,0 -90,0 -179,44 -223,89 -45,45 -45,134 -45,267l0 491 -356 0 0 -1115 356 0 0 179c45,-89 89,-134 134,-179 44,0 134,-44 223,-44 0,0 44,0 44,0 0,0 -263763,0 -263763,44l0 312z"/>
</symbol>
<symbol id="Symbol31" viewBox="109859 -71929 1022 1125">
 <polygon class="fil0" points="109859,-71929 110165,-71929 110165,-71520 110574,-71520 110574,-71929 110881,-71929 110881,-70804 110574,-70804 110574,-71281 110165,-71281 110165,-70804 109859,-70804 "/>
</symbol>
<symbol id="Symbol45" viewBox="135978 -70111 0 1415">
 <polygon class="fil0" points="-127830,-70111 -127830,-70111 -127830,-69545 -127830,-69545 -127830,-70111 -127830,-70111 -127830,-68696 -127830,-68696 -127830,-69262 -127830,-69262 -127830,-68696 -127830,-68696 "/>
</symbol>
<symbol id="Symbol54" viewBox="-127830 -57111 -232 1159">
 <path class="fil0" d="M-127830 -56647l0 -464 232 0 0 1159 -232 0 0 -232c0,0 0,232 263576,232 0,0 0,0 0,0 -232,0 -232,0 -232,-232 -231,0 -231,0 -231,-232 0,0 0,-231 231,-231 0,0 0,-232 232,-232 0,0 0,0 0,0 -263576,232 -263576,232 -263576,232l0 0 0 0zm0 463c0,0 232,0 232,0 0,0 0,-232 0,-232 0,0 0,0 0,-231 0,0 -232,0 -232,0 0,0 0,0 0,0 263576,231 263576,231 263576,231 0,0 0,232 -263576,232 0,0 0,0 0,0z"/>
</symbol>
<symbol id="Symbol57" viewBox="109043 -68789 869 1157">
 <path class="fil0" d="M109461 -67824c64,0 97,-32 130,-65 31,-33 31,-97 31,-161 0,-95 0,-160 -31,-193 -33,-32 -66,-64 -130,-64 -65,0 -96,32 -129,64 -31,33 -31,98 -31,193 0,64 0,128 31,161 33,33 64,65 129,65l0 0zm-160 -516c31,-64 64,-95 95,-128 65,0 98,-31 162,-31 97,0 192,64 257,128 65,96 97,193 97,321 0,97 -32,226 -97,290 -65,97 -160,128 -257,128 -64,0 -97,-31 -162,-31 -31,-33 -64,-64 -95,-97l0 97 -258 0 0 -1126 258 0 0 449z"/>
</symbol>
<symbol id="Symbol68" viewBox="119623 -78084 745 1134">
 <path class="fil0" d="M120049 -78084l0 249 319 0 0 213 -319 0 0 354c0,71 35,71 35,106 0,0 36,0 106,0l143 0 0 213 -249 0c-105,0 -178,-35 -248,-71 -35,-35 -71,-107 -71,-248l0 -354 -142 0 0 -213 142 0 0 -249 284 0 0 0z"/>
</symbol>
<symbol id="Symbol97" viewBox="-124295 -58232 227 1135">
 <path class="fil0" d="M-124295 -58005l227 0 0 907 -227 0 0 -907zm0 -227l227 0 0 227 -227 0 0 -227z"/>
</symbol>
<symbol id="i" viewBox="3999 2249 2 7">
 <path class="fil0" d="M3999 2251l2 0 0 5 -2 0 0 -5zm0 -2l2 0 0 1 -2 0 0 -1z"/>
</symbol>
<symbol id="Symbol36" viewBox="116506 -76498 760 1159">
 <path class="fil0" d="M116941 -76498l0 254 326 0 0 217 -326 0 0 362c0,72 36,72 36,109 0,0 36,0 109,0l145 0 0 217 -254 0c-109,0 -181,-36 -253,-73 -37,-36 -73,-108 -73,-253l0 -362 -145 0 0 -217 145 0 0 -254 290 0z"/>
</symbol>
<symbol id="Symbol46" viewBox="-127830 -89429 -42 1132">
 <path class="fil0" d="M-127830 -88884l0 125 263011 0c0,85 42,127 85,168 42,42 125,42 209,42 43,0 126,0 210,0 83,-42 168,-83 210,-125l0 292c-42,0 -127,43 -210,43 -84,42 -167,42 -252,42 -210,0 -335,-42 -462,-168 -83,-84 -125,-209 -125,-377 0,-210 42,-335 125,-419 127,-83 252,-168 462,-168 168,0 293,85 377,168 85,84 -263640,252 -263640,377l0 0zm0 -83c0,-85 0,-127 263766,-169 -41,-41 -83,-41 -126,-41 -84,0 -125,0 -167,41 -42,42 -85,84 -85,169l-263388 0z"/>
</symbol>
<symbol id="Symbol77" viewBox="134810 -91168 1135 1134">
 <path class="fil0" d="M135944 -90622l0 126 -798 0c0,84 42,126 84,168 42,42 126,42 210,42 42,0 126,0 210,0 84,-42 168,-84 210,-126l0 294c-42,0 -126,42 -210,42 -84,42 -168,42 -252,42 -210,0 -336,-42 -462,-168 -84,-84 -126,-210 -126,-378 0,-210 42,-336 126,-420 126,-84 252,-168 462,-168 168,0 294,84 378,168 84,84 168,252 168,378l0 0 0 0zm-378 -84c0,-84 0,-126 -42,-168 -42,-42 -84,-42 -126,-42 -84,0 -126,0 -168,42 -42,42 -84,84 -84,168l420 0z"/>
</symbol>
 <g id="Layer_x0020_1">
  <metadata id="CorelCorpID_0Corel-Layer"/>
  <rect class="fil1" x="219" width="886" height="1134"/>
  <polygon class="fil0 str0" points="171,1007 171,951 128,951 128,1007 "/>
  <polygon class="fil0 str0" points="1153,951 1153,1007 1196,1007 1196,951 "/>
  <path class="fil2 str0" d="M213 674l428 0 0 -28c0,-17 -9,-28 -22,-28l-384 0c-13,0 -22,11 -22,28l0 28 0 0z"/>
  <path class="fil2 str0" d="M683 674l428 0 0 -28c0,-17 -9,-28 -22,-28l-384 0c-13,0 -22,11 -22,28l0 28z"/>
  <path class="fil0" d="M1217 340c-23,0 -46,11 -64,28l0 -111c0,-78 -47,-139 -107,-139l-768 0c-60,0 -107,61 -107,139l0 111c-17,-17 -40,-28 -64,-28 -60,0 -107,61 -107,139l0 389c0,47 28,83 64,83l22 0 0 83c0,17 8,28 21,28l85 0c13,0 21,-11 21,-28l0 -83 898 0 0 83c0,17 8,28 21,28l85 0c13,0 21,-11 21,-28l0 -83 22 0c36,0 64,-36 64,-83l0 -389c0,-78 -47,-139 -107,-139l0 0 0 0zm-469 -167l298 0c37,0 65,37 65,84l0 311c-7,-3 -13,-6 -22,-6l-384 0c0,0 -1,0 -1,0l-84 0c0,0 -1,0 -1,0l-384 0c-8,0 -15,3 -22,6l0 -311c0,-47 28,-84 65,-84l298 0c1,0 2,0 3,0l79 0 12 1 0 0 55 0 0 0 14 0c3,0 5,-1 9,-1l0 0 0 0zm-535 501l0 -28c0,-17 9,-28 22,-28l384 0c13,0 22,11 22,28l0 28 -428 0 0 0zm470 -28c0,-17 9,-28 22,-28l384 0c13,0 22,11 22,28l0 28 -428 0 0 -28zm-512 361l-43 0 0 -56 43 0 0 56zm1025 0l-43 0 0 -56 43 0 0 56zm85 -139c0,17 -8,28 -21,28l-1196 0c-13,0 -21,-11 -21,-28l0 -389c0,-47 28,-83 64,-83 36,0 64,36 64,83l0 222c0,17 8,28 21,28l940 0c13,0 21,-11 21,-28l0 -222c0,-47 28,-83 64,-83 36,0 64,36 64,83l0 389z"/>
  <path class="fil3" d="M213 257l0 311c7,-3 14,-6 22,-6l384 0c0,0 1,0 1,0l84 0c0,0 1,0 1,0l384 0c9,0 15,3 22,6l0 -311c0,-47 -28,-84 -65,-84l-298 0 0 0c-4,0 -6,1 -9,1l-14 0 0 0 -55 0 0 0 -12 -1 -79 0c-1,0 -2,0 -3,0l-298 0c-37,0 -65,37 -65,84l0 0z"/>
  <path class="fil4 str1" d="M1132 729l-940 0c-13,0 -21,-11 -21,-28l0 -222c0,-47 -28,-83 -64,-83 -36,0 -64,36 -64,83l0 389c0,17 8,28 21,28l1196 0c13,0 21,-11 21,-28l0 -389c0,-47 -28,-83 -64,-83 -36,0 -64,36 -64,83l0 222c0,17 -8,28 -21,28z"/>
  <path class="fil2" d="M213 257l0 311c7,-3 14,-6 22,-6l384 0c0,0 1,0 1,0l84 0c0,0 1,0 1,0l384 0c9,0 15,3 22,6l0 -311c0,-47 -28,-84 -65,-84l-298 0 0 0c-4,0 -6,1 -9,1l-14 0 0 0 -55 0 0 0 -12 -1 -79 0c-1,0 -2,0 -3,0l-298 0c-37,0 -65,37 -65,84l0 0z"/>
 </g>
</svg>
